/* XPM */
static char *_135f197b33749bd88e513bd5cd0c58f7cezlVFoJLe1zrx5[] = {
/* columns rows colors chars-per-pixel */
"64 64 145 2 ",
"   c #000000",
".  c #080000",
"X  c #010907",
"o  c #020E0D",
"O  c #0B0C0B",
"+  c #160000",
"@  c #1D0000",
"#  c #130D0D",
"$  c #05160E",
"%  c #041414",
"&  c #240000",
"*  c #2A0000",
"=  c #370909",
"-  c #36241D",
";  c #092C23",
":  c #1E3329",
">  c #1B3A2E",
",  c #232424",
"<  c #282727",
"1  c #262827",
"2  c #272828",
"3  c #2B2D2D",
"4  c #353535",
"5  c #450100",
"6  c #4B0101",
"7  c #460808",
"8  c #570202",
"9  c #5C0201",
"0  c #7C0302",
"q  c #780F0C",
"w  c #6E1B16",
"e  c #4E2E26",
"r  c #463F33",
"t  c #652B23",
"y  c #1E4A3B",
"u  c #264939",
"i  c #2F5544",
"p  c #345E4C",
"a  c #3A5D4B",
"s  c #31604E",
"d  c #3A614F",
"f  c #3C6652",
"g  c #366A55",
"h  c #3D6955",
"j  c #454545",
"k  c #4C4C4C",
"l  c #505050",
"z  c #5B5C5C",
"x  c #40614E",
"c  c #406957",
"v  c #436F59",
"b  c #52635B",
"n  c #43725C",
"m  c #615F60",
"M  c #457660",
"N  c #467962",
"B  c #4B7A63",
"V  c #646564",
"C  c #6D6C6C",
"Z  c #707B76",
"A  c #7B7C7B",
"S  c #830202",
"D  c #8B0101",
"F  c #9A0202",
"G  c #940808",
"H  c #A30000",
"J  c #AD0000",
"K  c #B30000",
"L  c #BB0000",
"P  c #C20000",
"I  c #CC0000",
"U  c #D30101",
"Y  c #DB0101",
"T  c #E20101",
"R  c #EA0202",
"E  c #F50000",
"W  c #FE0000",
"Q  c #F50E0E",
"!  c #FF0D0D",
"~  c #FF1111",
"^  c #FF1D1D",
"/  c #F62E2E",
"(  c #EC3030",
")  c #F93333",
"_  c #FB4747",
"`  c #FD5353",
"'  c #FE5C5C",
"]  c #FE6666",
"[  c #FD7B7B",
"{  c #4D826A",
"}  c #51836B",
"|  c #52896F",
" . c #508B70",
".. c #549276",
"X. c #579679",
"o. c #59967A",
"O. c #5B9C7E",
"+. c #5C9E80",
"@. c #5DBB95",
"#. c #65AE8C",
"$. c #67B08E",
"%. c #67B290",
"&. c #6AB492",
"*. c #62BD97",
"=. c #6BB896",
"-. c #65BF99",
";. c #6CBF9A",
":. c #74B898",
">. c #67C09A",
",. c #6CC29C",
"<. c #71C59F",
"1. c #6BCBA3",
"2. c #72C6A0",
"3. c #7EC6A6",
"4. c #76C9A4",
"5. c #79CAA6",
"6. c #7CCCA9",
"7. c #76D3AA",
"8. c #7BD5AC",
"9. c #7DD9AF",
"0. c #7CDBB1",
"q. c #8C8E8D",
"w. c #979797",
"e. c #A5A4A4",
"r. c #ADA6A6",
"t. c #B3B3B3",
"y. c #B7B8B8",
"u. c #BCBCBC",
"i. c #FB8686",
"p. c #F7B7B7",
"a. c #82CBAA",
"s. c #86D0AD",
"d. c #82D9B2",
"f. c #85E5BA",
"g. c #8BE9BF",
"h. c #C1C1C1",
"j. c #CBCBCB",
"k. c #D4D4D4",
"l. c #DADADA",
"z. c #E5E2E2",
"x. c #EEEEEE",
"c. c #F4EEEE",
"v. c #F2F1F1",
"b. c #F3F8F8",
"n. c #FEFEFE",
/* pixels */
"3.,.;.<.<.,.;.<.;.:.4.<.;.;.=.,.,.<.;.<.;.:.,.<.:.,.,.,.<.<.:.,.,.;.>.,.;.,.,.:.,.,.2.<.;.<.<.;.<.2.;.<.;.;.;.;.,.;.,.;.;.<.<.:.",
"a.<.2.5.5.5.2.2.2.6.6.a.<.*.>.>.2.2.2.2.2.2.6.4.5.2.2.<.6.6.6.4.-.,.>.2.2.<.2.2.2.6.6.5.2.<.<.5.3.6.5.-.,.-.2.2.2.2.2.2.5.6.4.4.",
"a.<.2.2.2.<.2.2.1.2.2.4.,.,.<.,.2.2.2.2.2.1.2.2.2.<.2.<.2.2.2.2.,.,.2.2.2.2.2.2.2.4.2.2.<.<.2.2.2.2.2.,.<.,.<.2.2.2.2.2.2.2.2.2.",
"a.<.2.2.2.2.2.2.2.<.2.2.2.2.2.2.4.6.6.2.2.2.<.2.2.2.2.2.2.2.2.2.2.2.2.4.5.8.2.<.2.2.2.2.<.2.2.2.2.<.2.2.2.2.2.5.6.4.2.2.2.2.2.2.",
"a.<.2.2.2.2.2.2.2.2.2.2.2.2.2.2.2.2.4.2.2.2.2.2.2.2.<.2.2.2.2.2.2.2.2.2.2.2.2.2.2.2.2.2.2.2.2.2.2.2.2.2.2.2.2.2.2.2.2.2.2.2.2.2.",
"a.<.2.2.2.2.2.2.2.2.2.2.2.2.2.2.<.<.2.2.2.2.2.2.2.2.2.2.2.2.2.2.2.2.2.2.2.2.2.2.2.2.2.2.2.2.2.2.2.4.2.<.2.2.2.2.2.2.2.2.2.2.2.2.",
"a.<.2.2.2.2.2.2.2.2.2.2.2.2.2.2.2.<.2.2.2.2.2.2.2.2.2.2.2.2.2.2.2.2.2.2.2.2.2.2.2.2.2.2.2.2.2.2.2.2.2.2.2.2.2.2.2.2.2.2.2.2.2.2.",
"a.<.2.2.2.2.2.2.2.2.2.<.2.2.2.2.,.@.>.<.2.2.<.<.2.2.2.2.2.2.2.<.2.2.2.,.-.-.,.2.2.2.2.<.2.2.2.2.2.<.<.2.2.2.<.;.-.,.2.2.2.2.2.2.",
"a.<.2.2.<.2.2.<.2.2.2.2.2.2.2.2.,.,.>.<.2.<.2.2.2.2.2.2.2.2.<.2.2.2.2.,.,.,.,.2.2.2.2.<.2.2.2.2.2.2.2.2.2.2.2.,.,.,.2.2.2.,.2.2.",
"a.2.2.2.2.2.2.2.2.2.2.2.2.2.2.4.6.6.2.<.2.2.2.<.2.2.2.2.2.2.2.2.2.2.4.5.4.4.2.2.2.2.2.2.2.2.2.2.2.2.2.2.2.4.5.4.4.2.2.2.2.2.2.2.",
"a.,.,.,.<.2.2.2.2.2.2.2.2.2.2.2.5.5.2.<.,.>.,.<.2.2.2.2.<.2.2.2.2.2.2.4.2.5.2.,.-.,.,.2.<.2.<.2.2.2.2.2.2.2.5.2.4.2.,.-.,.,.2.2.",
"3.-.,.,.2.2.<.<.>.,.,.2.2.2.2.2.<.2.2.<.>.,.>.<.2.2.,.,.,.,.2.2.2.2.2.2.2.2.2.-.-.,.<.2.2.<.<.,.,.,.2.2.2.2.<.2.2.2.,.-.>.,.2.2.",
"a.,.2.2.<.<.2.,.>.>.,.2.2.2.2.2.2.2.2.2.<.<.<.<.,.2.2.>.;.;.2.2.2.2.2.2.2.2.2.2.2.,.<.<.<.<.>.,.>.2.2.2.2.2.2.2.2.<.<.2.2.2.2.2.",
"a.,.<.5.6.5.<.2.1.2.2.2.2.2.2.2.2.2.2.2.<.2.2.6.6.2.<.2.2.2.2.2.2.2.2.2.2.2.2.2.2.4.6.6.<.2.2.2.2.2.2.2.2.<.2.2.2.2.2.<.2.5.a.2.",
"a.<.2.s.a.s.2.2.2.2.2.2.2.2.2.2.2.2.2.2.2.<.a.s.s.6.<.2.2.2.2.2.2.2.2.2.2.2.2.2.<.6.a.a.5.<.2.2.2.2.2.<.2.2.2.2.2.2.2.2.4.a.s.6.",
"a.<.2.<.2.2.<.2.2.2.2.2.2.2.2.2.<.2.2.2.2.2.<.2.2.<.2.2.2.2.2.2.2.2.2.2.2.2.2.2.2.<.<.2.<.<.2.2.2.2.2.2.2.2.2.<.2.2.2.2.2.2.2.2.",
"a.<.2.2.<.2.2.2.2.2.<.<.2.2.2.2.2.<.<.2.2.2.2.<.2.2.<.2.2.2.<.2.<.<.2.2.<.<.2.2.2.2.,.2.2.2.2.2.2.2.2.2.2.2.2.<.<.2.2.2.2.2.2.2.",
"a.,.2.2.2.2.2.2.<.<.5.2.2.<.,.2.2.<.2.2.2.<.2.2.2.<.2.2.<.2.<.<.<.,.<.<.2.2.2.<.2.2.5.2.<.2.<.<.2.4.<.2.,.<.2.2.2.2.2.<.<.2.2.<.",
"a.<.2.5.5.5.<.2.<.5.6.8.2.>.*.>.2.2.2.2.2.2.5.2.3.<.2.<.8.d.d.8.1.7.1.2.2.2.2.2.2.4.s.5.2.2.2.5.6.6.4.>.-.-.<.2.<.2.2.2.2.6.5.4.",
"a.<.2.2.2.2.2.2.<.4.<.4.<.,.,.,.<.2.2.2.2.2.4.2.<.<.<.,.} B B B n N n O.2.<.,.2.,.4.2.2.2.2.2.2.4.4.2.,.<.,.<.2.2.2.2.2.2.4.2.2.",
"a.2.2.2.2.2.2.2.<.<.<.<.<.<.<.<.4.s.a.4.2.2.<.<.5.9.9.4.o             p g.d.d.4.2.<.2.<.2.2.2.2.2.<.2.2.2.2.2.6.5.4.2.2.2.2.2.2.",
"a.2.2.2.2.2.2.2.4.4.<.4.4.<.4.<.2.2.2.2.2.2.<.2.| d h x q 0 9 9 9 9 9 e h f d +.4.2.2.2.2.2.2.2.2.2.2.2.2.2.2.2.2.2.2.4.2.2.2.2.",
"a.<.2.2.2.2.2.2.<.<.<.4.<.<.<.4.2.2.<.<.<.<.4.f.y       E W P L P P U 9       { f.2.2.2.2.2.2.2.2.2.2.2.2.2.2.<.2.2.2.2.2.2.2.2.",
"6.<.2.2.2.2.2.2.<.4.<.<.<.4.4.<.2.,.<.<.<.7.X.s t S 0 S ( ) Y I K J L D 8 9 9 r g $.4.<.2.2.2.2.2.2.2.2.2.2.2.2.2.2.2.2.2.2.2.2.",
"a.<.2.<.<.<.2.2.2.2.<.<.<.<.<.<.,.@.>.>.<.8.a   H W W W ' ] W E K K J L P P I 5   ..5.<.<.<.2.2.<.<.<.2.2.2.,.>.*.,.2.2.2.2.2.2.",
"a.<.2.2.2.<.2.2.2.2.2.<.4.<.4.<.,.,.>.,.<.8.d . F W / _ p.p._ ) T Y R I J K L 5   o.7.<.2.<.2.2.2.2.2.2.2.<.,.,.,.,.2.2.2.2.2.2.",
"a.<.2.2.2.2.2.2.2.2.2.2.<.4.<.<.5.4.2.2.<.8.f   F W ` [ c.b.[ ' W W W T J K L 5   o.7.<.<.2.2.2.2.2.2.2.2.2.2.5.2.2.2.2.2.2.2.2.",
"a.<.,.,.2.2.2.2.<.2.2.2.<.4.<.4.5.6.2.7.{ ; w P T W ! ^ [ i.^ ~ W W W Y K K L F S - > =.2.2.2.2.2.2.2.2.2.2.5.4.5.2.,.-.>.,.2.2.",
"6.>.,.>.2.2.<.<.,.,.<.2.2.2.<.<.<.<.<.8.f   S W W W W W ` ' W E E E W Y J K K L L *   $.4.<.<.,.,.<.2.2.2.2.<.2.2.<.>.>.,.,.2.2.",
"a.,.<.<.<.2.2.,.>.>.>.4.2.2.4.2.2.2.,.8.v   S W W W W W ! Q * @ + 8 P L K L K K L * X $.4.,.>.,.>.<.2.2.2.2.2.2.2.2.<.2.2.<.,.2.",
"a.<.<.<.5.<.<.<.<.<.<.2.2.2.<.2.2.2.<.8.v   0 W E W W W E T # o o = J J K K K J J * X &.4.1.2.<.2.2.2.2.2.2.2.2.2.2.<.<.<.2.6.<.",
"a.,.<.s.s.s.<.<.2.2.2.2.2.2.2.2.2.2.<.8.v   .   F W W W & # z.v.n.r.  8 P K P 6     X :.5.<.2.2.2.2.2.2.2.2.2.2.2.2.2.<.2.a.s.6.",
"a.,.2.2.2.2.<.2.1.2.2.2.2.2.2.2.2.<.,.8.n   O % G W R T + o v.n.n.t.  6 J H J 7 o   X %.4.<.2.2.2.2.2.2.2.2.2.2.2.2.2.2.<.<.2.2.",
"a.2.2.2.2.2.2.2.2.2.2.2.2.2.2.2.2.2.<.8.v   A n.z         . b.n.n.t.          C h.<   %.4.2.2.2.2.2.2.2.2.2.2.<.<.<.2.2.2.2.2.2.",
"a.2.2.2.2.<.2.2.2.<.4.2.2.2.,.2.<.2.<.6.{ $ Z l.C 3 4 4 4 j h.j.k.w., < 1 2 , V w.,   %.2.2.2.<.2.2.2.2.,.<.2.2.2.2.2.2.<.2.2.2.",
"a.,.2.4.5.5.2.2.2.4.6.5.2.>.-.,.<.2.2.2.<.9.c   w.n.n.n.n.x.      3 y.t.t.t.u.j       &.4.2.<.4.6.6.4.,.>.>.,.2.2.<.2.2.2.8.4.4.",
"a.<.2.2.2.2.2.4.2.2.2.4.2.,.,.,.<.4.2.2.<.8.f   q.v.v.n.n.b.z l k C y.t.t.t.y.j   : u =.4.2.2.2.2.2.2.,.<.,.<.2.2.2.2.2.2.2.2.2.",
"a.2.2.2.2.2.2.2.2.2.2.2.2.2.2.2.2.6.6.2.<.8.a   Z j.n.n.n.n.n.n.n.c.t.y.h.h.j.k   O.9.<.2.2.2.2.2.2.2.2.2.2.4.5.6.5.2.2.2.2.2.2.",
"a.<.2.2.2.2.2.2.2.2.2.2.2.2.2.,.4.4.5.2.<.7...i b V A q.k.l.k.l.l.j.y.q.z V V <   X.7.<.2.2.2.2.2.2.2.2.2.<.2.2.4.4.2.2.2.2.2.2.",
"a.2.2.2.2.2.2.2.2.2.2.2.2.2.2.2.2.2.2.2.2.<.4.d.u       e.h.u.u.u.y.k.m           ..5.2.2.2.2.2.2.2.2.2.2.4.2.<.<.2.2.2.2.2.2.2.",
"a.,.2.2.2.2.2.2.2.2.2.2.2.2.2.2.2.2.2.2.2.2.,.2. .d h c z z z z z z z b g h h f f #.4.2.2.2.2.2.2.2.2.2.2.2.2.2.2.2.2.2.2.2.2.2.",
"a.2.2.2.2.2.2.2.2.2.,.2.2.2.2.2.;.@.-.2.2.2.2.2.7.9.0.4.              u 0.1.7.8.8.2.2.2.2.2.2.2.2.<.<.1.2.2.,.>.-.,.2.2.2.2.2.<.",
"a.,.2.2.<.<.2.2.2.2.2.,.2.2.2.2.-.@.*.;.2.2.2.2.<.:.<.,.{ n N n N N M ..>.@.=.<.,.2.2.,.2.2.2.2.<.<.2.2.2.2.,.>.-.-.2.2.2.<.2.<.",
"a.<.2.2.2.2.2.2.2.2.2.2.2.2.2.2.5.5.2.2.2.2.2.2.2.<.2.2.8.8.8.8.8.7.8.8.2.2.2.2.2.2.2.2.2.2.2.2.2.2.2.2.2.2.4.4.2.<.2.2.2.2.2.2.",
"a.,.,.,.2.2.2.2.2.2.2.2.2.2.2.4.5.5.4.,.,.>.2.2.2.2.2.2.<.<.<.2.<.<.<.2.5.5.<.<.-.,.<.2.2.<.2.2.2.2.2.2.2.2.4.2.4.2.,.>.>.,.2.2.",
"6.>.<.>.2.2.2.,.>.,.2.2.2.2.2.2.2.2.2.2.-.>.-.2.2.2.2.,.;.,.2.2.<.2.<.<.2.2.2.-.-.>.<.2.2.<.,.,.,.2.2.2.2.2.2.2.2.2.,.>.,.,.2.2.",
"a.<.2.<.<.2.2.;.-.-.;.2.2.2.2.2.2.2.2.2.2.2.2.,.2.2.,.-.-.-.2.2.2.<.2.2.2.2.2.<.2.2.<.<.2.,.-.,.-.2.2.2.2.2.2.2.2.2.2.2.2.2.2.2.",
"a.,.<.<.5.2.2.2.2.,.2.2.2.2.2.2.2.2.2.2.,.2.2.4.2.2.2.<.<.2.2.2.2.2.2.2.2.2.2.<.<.2.2.5.2.2.<.<.,.2.2.2.2.2.2.2.2.2.<.<.2.2.3.<.",
"a.<.<.a.s.s.2.2.2.2.2.2.2.2.2.2.2.<.2.<.2.<.6.s.a.3.2.2.2.2.2.2.2.2.2.2.2.2.2.2.<.6.6.s.5.2.2.2.2.2.2.2.2.2.2.2.2.<.2.<.2.a.s.a.",
"a.<.2.2.2.2.<.2.2.2.2.2.2.2.2.2.2.<.2.2.2.2.2.2.2.2.2.2.2.2.2.2.2.2.2.2.<.2.2.2.<.<.2.2.2.2.2.2.2.2.2.2.2.2.<.2.2.2.2.2.2.2.2.2.",
"a.<.2.<.<.<.2.2.2.2.2.2.2.2.2.2.2.<.2.2.2.2.2.2.2.2.2.2.2.2.2.2.2.2.<.2.<.<.2.2.<.2.<.<.<.2.2.<.2.2.2.2.2.2.2.<.<.<.2.2.2.2.<.<.",
"a.<.2.<.2.<.2.2.2.<.2.<.2.2.,.2.2.2.2.2.2.2.,.2.<.2.2.2.<.2.<.2.2.<.2.2.2.2.2.2.2.<.2.<.2.2.2.2.2.2.2.2.<.2.<.2.2.<.2.2.<.2.2.<.",
"a.<.2.5.5.4.2.2.2.4.6.6.2.>.>.>.2.2.2.2.2.2.5.2.4.2.2.2.4.6.6.2.>.,.>.,.2.2.2.2.2.4.6.5.2.2.2.4.5.6.4.,.-.-.<.2.2.2.2.2.2.6.5.2.",
"a.,.2.4.2.2.2.4.2.4.4.4.,.,.,.,.2.4.2.,.2.2.4.2.2.2.2.2.4.4.4.2.>.<.,.2.2.2.<.2.<.4.2.2.2.2.2.2.4.4.4.,.,.,.2.2.2.2.2.2.2.5.2.2.",
"a.<.2.<.2.2.2.2.2.2.2.2.2.2.2.2.2.6.5.2.2.2.2.2.2.2.2.2.2.2.2.2.2.2.2.2.5.6.2.2.2.2.2.2.2.2.2.2.2.2.2.2.2.2.2.5.6.2.2.2.2.2.2.2.",
"a.<.2.2.2.2.2.2.2.2.2.2.2.2.2.2.4.4.5.2.2.2.2.2.2.2.2.2.2.2.2.2.2.2.2.2.2.5.2.2.4.2.2.2.2.2.2.2.2.2.2.2.2.2.2.2.4.4.2.2.2.2.2.2.",
"a.<.2.2.2.2.2.2.2.2.2.<.2.2.2.2.,.2.<.2.2.2.2.2.2.2.2.2.<.2.2.2.2.2.2.<.<.<.<.2.2.2.2.2.2.2.2.2.2.2.2.2.2.2.2.2.2.<.2.2.2.2.2.2.",
"a.2.2.2.2.2.2.2.2.2.2.2.2.2.<.2.2.2.2.2.2.2.2.2.2.2.2.2.2.2.2.2.2.2.2.2.2.2.2.2.2.2.2.2.2.2.2.2.2.2.<.2.2.2.2.2.2.2.2.2.2.2.2.2.",
"a.<.2.2.<.2.2.2.2.2.2.2.2.2.2.2.2.*.>.2.2.2.2.2.2.2.2.2.2.2.<.2.2.2.2.,.>.>.<.2.2.2.2.<.2.2.2.2.2.2.2.2.2.2.2.,.-.<.<.2.2.<.2.2.",
"a.<.2.2.<.<.2.2.2.2.,.2.2.2.<.2.>.@.-.,.2.2.2.<.<.2.2.2.2.2.2.<.2.2.2.,.>.>.,.2.<.2.2.2.2.2.2.2.2.<.2.2.2.2.,.>.-.>.2.2.2.2.2.<.",
"a.<.<.2.1.<.<.2.2.2.2.2.2.2.2.2.4.5.2.2.2.2.<.2.2.2.2.2.2.2.2.2.2.2.2.2.2.<.2.2.2.2.2.2.2.2.2.2.2.2.2.2.2.2.2.4.2.<.2.<.2.2.2.2.",
"a.>.,.<.2.2.2.2.2.<.2.2.2.2.2.4.4.6.2.<.<.,.,.<.2.2.2.2.2.2.2.2.2.2.2.5.4.5.<.<.-.,.,.2.2.2.2.2.<.2.2.2.2.2.5.2.5.<.<.;.>.<.2.2.",
"3.*.,.-.2.2.2.2.,.,.2.2.2.2.2.<.<.2.<.<.-.>.*.<.2.2.2.<.,.2.2.2.2.2.<.<.2.<.2.>.*.*.,.2.2.2.,.,.2.,.2.2.2.2.<.2.2.2.>.*.-.>.2.2.",
"a.,.<.<.2.2.2.>.>.>.,.2.2.2.2.2.2.2.2.2.<.<.1.2.2.2.,.>.>.>.2.2.2.2.2.<.2.2.2.,.1.2.2.2.2.2.-.,.>.2.2.2.2.2.2.2.2.<.<.<.<.<.2.2."
};
