/* XPM */
static char *_8ce3d21bfe54b14db780d0d15b4d94f2hKGT9L2RrHrpyxr[] = {
/* columns rows colors chars-per-pixel */
"64 64 217 2 ",
"   c #010100",
".  c #070706",
"X  c #0B0401",
"o  c #040A09",
"O  c #180602",
"+  c #140A02",
"@  c #0A110D",
"#  c #1A1104",
"$  c #000614",
"%  c #071714",
"&  c #0D1A14",
"*  c #141B15",
"=  c #250500",
"-  c #320000",
";  c #2B1805",
":  c #331C06",
">  c #381B06",
",  c #271611",
"<  c #0A211D",
"1  c #13221C",
"2  c #18281F",
"3  c #3A210A",
"4  c #3B3B02",
"5  c #070437",
"6  c #01003F",
"7  c #172921",
"8  c #1E362B",
"9  c #22382D",
"0  c #273F34",
"q  c #4C0201",
"w  c #4F0D03",
"e  c #640000",
"r  c #492506",
"t  c #45260A",
"y  c #4C2A0B",
"u  c #582C06",
"i  c #532D0C",
"p  c #55320F",
"a  c #5B320C",
"s  c #583613",
"d  c #63350D",
"f  c #67390F",
"g  c #6C3A0E",
"h  c #733D0D",
"j  c #6A3B12",
"k  c #723E12",
"l  c #2A4739",
"z  c #314C3B",
"x  c #33523F",
"c  c #564C11",
"v  c #7A400D",
"b  c #68441B",
"n  c #754113",
"m  c #7B4413",
"M  c #704F13",
"N  c #7A4C1B",
"B  c #6F6A04",
"V  c #747502",
"C  c #50492E",
"Z  c #4B5438",
"A  c #6B553E",
"S  c #4E6429",
"D  c #040246",
"F  c #00004B",
"G  c #010053",
"H  c #150B57",
"J  c #231356",
"K  c #000065",
"L  c #653760",
"P  c #2E4F40",
"I  c #2E5141",
"U  c #2E5849",
"Y  c #315342",
"T  c #355B4A",
"R  c #395B48",
"E  c #39614E",
"W  c #3B6652",
"Q  c #3D6954",
"!  c #3E735F",
"~  c #3D7561",
"^  c #4B5E43",
"/  c #545355",
"(  c #72514C",
")  c #44634B",
"_  c #456B58",
"`  c #44735C",
"'  c #4E765D",
"]  c #7C624B",
"[  c #447760",
"{  c #447A63",
"}  c #497C63",
"|  c #6D7377",
" . c #DA0002",
".. c #DF1100",
"X. c #E70301",
"o. c #F30000",
"O. c #FD0100",
"+. c #FE0A02",
"@. c #EF1D07",
"#. c #FB1204",
"$. c #E82200",
"%. c #FF2300",
"&. c #F72308",
"*. c #824612",
"=. c #854913",
"-. c #8C4C14",
";. c #924F13",
":. c #895115",
">. c #945115",
",. c #9C5516",
"<. c #9B581A",
"1. c #B55B0B",
"2. c #A35817",
"3. c #A35917",
"4. c #A35A19",
"5. c #AB5E18",
"6. c #B4620B",
"7. c #AF6019",
"8. c #B66014",
"9. c #B5631A",
"0. c #BA661B",
"q. c #BE681C",
"w. c #B76A2B",
"e. c #C6640D",
"r. c #C36A1C",
"t. c #CA6E1D",
"y. c #CF7110",
"u. c #CD701D",
"i. c #D3731D",
"p. c #D9761F",
"a. c #DD791F",
"s. c #E4730F",
"d. c #E6791C",
"f. c #C76D27",
"g. c #DA7723",
"h. c #DD7920",
"j. c #E57421",
"k. c #E57D21",
"l. c #E97F22",
"z. c #A1585F",
"x. c #9E7046",
"c. c #8E4D66",
"v. c #A35968",
"b. c #867566",
"n. c #4C846A",
"m. c #4B886D",
"M. c #528D72",
"N. c #56967A",
"B. c #868601",
"V. c #959400",
"C. c #AEAF01",
"Z. c #E8831D",
"A. c #FD8A16",
"S. c #E9921B",
"D. c #E48021",
"F. c #ED8122",
"G. c #F28523",
"H. c #F98723",
"J. c #FC8A24",
"K. c #FF9227",
"L. c #DDD801",
"P. c #EEEE00",
"I. c #F7EB01",
"U. c #F9F501",
"Y. c #FFFD00",
"T. c #C5864F",
"R. c #D19865",
"E. c #D6A273",
"W. c #F5B57C",
"Q. c #0000A1",
"!. c #0000B7",
"~. c #2F19BB",
"^. c #4827B2",
"/. c #0000D7",
"(. c #190DDC",
"). c #1E10DF",
"_. c #2B17C9",
"`. c #0402E8",
"'. c #150BE4",
"]. c #1D10E0",
"[. c #0302F6",
"{. c #0905F4",
"}. c #0000FE",
"|. c #5DA283",
" X c #5DBB94",
".X c #61A686",
"XX c #64AA89",
"oX c #64B591",
"OX c #69B592",
"+X c #61BD96",
"@X c #6BB996",
"#X c #66BF99",
"$X c #6DBD99",
"%X c #66C09A",
"&X c #6CC39C",
"*X c #71C59F",
"=X c #6AC8A0",
"-X c #6DCBA2",
";X c #72C6A0",
":X c #75C9A4",
">X c #79CAA6",
",X c #7ACBA8",
"<X c #7CCCA9",
"1X c #7AD2AA",
"2X c #79D5AB",
"3X c #7DD9B0",
"4X c #91969B",
"5X c #A19991",
"6X c #AAADAF",
"7X c #82CCAC",
"8X c #8ED1B3",
"9X c #85DCB4",
"0X c #83E4B8",
"qX c #F3CCA9",
"wX c #90F5C7",
"eX c #FBE4D0",
"rX c white",
/* pixels */
";X;X;X:X:X;X;X;X;X:X>X:X;X&X&X=X;X;X;X;X;X*X;X>X;X;X;X;X;X,X:X;X;X&X&X;X;X;X;X;X;X;X>X:X;X-X*X;X:X,X;X;X&X&X&X;X;X;X*X;X;X:X,X;X",
";X*X>X>X>X;X;X;X:X,X>X>X#X#X#X#X;X*X*X;X;X;X,X:X,X;X;X&X>X,X,X;X X&X#X;X;X&X;X;X*X>X,X>X:X*X*X:X<X,X,X&X%X%X&X;X;X;X;X;X;X,X:X,X",
";X*X;X;X;X;X;X;X;X;X;X;X;X;X;X;X;X:X;X;X;X;X;X*X;X;X;X;X;X;X;X;X&X;X;X;X;X:X;X;X;X;X;X*X*X;X;X*X;X;X;X&X&X;X;X;X:X;X;X;X;X;X;X;X",
";X;X;X;X;X;X;X;X;X;X;X;X;X;X;X;X,X,X,X;X;X;X;X;X;X;X;X;X;X;X;X;X;X;X;X:X,X,X;X;X;X;X;X;X;X;X;X:X;X;X;X:X;X;X;X>X>X,X;X;X;X;X;X;X",
";X;X;X;X;X;X;X;X;X;X;X;X;X;X;X;X;X;X;X;X;X;X;X;X;X;X;X;X;X;X;X;X;X;X;X;X;X;X;X;X;X;X;X;X*X;X*X:X;X;X;X;X;X;X*X;X;X;X;X;X;X;X;X;X",
";X;X;X;X;X;X;X;X;X;X;X;X;X;X;X;X*X;X;X;X;X;X;X;X;X;X;X;X:X;X;X;X;X;X;X;X;X;X;X;X;X;X;X:X;X;X;X;X;X;X;X;X;X;X;X*X;X&X;X;X;X;X:X;X",
";X;X;X;X;X;X;X;X;X;X;X;X;X;X;X;X;X&X;X;X;X;X;X;X;X;X;X;X;X;X;X;X;X;X;X;X&X;X;X;X;X;X;X;X;X;X;X;X;X;X*X;X;X;X;X;X&X;X;X;X;X;X;X;X",
";X;X;X;X;X;X;X;X;X;X;X;X;X;X;X&X%X#X#X&X;X;X;X;X;X;X;X;X;X*X*X*X;X;X;X&X#X X&X;X;X;X*X*X*X;X*X&X;X*X*X*X;X;X*X%X+X#X*X;X;X;X*X;X",
"*X:X*X*X*X:X:X*X;X;X&X;X;X;X;X;X&X&X&X;X;X;X;X;X;X;X;X;X;X;X*X;X;X;X;X;X;X=X&X;X;X;X;X:X:X1X:X>X>X:X:X>X:X;X*X*X;X#X;X;X;X;X;X;X",
":X*X*X*X*X*X*X*X;X;X;X;X;X;X;X:X7X>X:X;X;X*X;X;X;X;X;X;X;X;X;X;X;X;X;X>X:X:X;X*X*X;X@XXXXX|.|.oXXXXXXXXXXX*X:X,X>X:X;X;X;X;X;X;X",
"*X%X%X*X:X*X*X*X;X;X;X;X;X;X;X;X:X>X:X&X&X#X&X;X;X;X;X*X*X*X;X;X;X;X;X;X;X:X;X:X#X-XM.  . . . . . . o   % ;X1X;X>X;X;X#X#X#X*X;X",
"%X*X&X*X*X:X*X%X#X&X;X;X;X*X;X*X*X*X*X*X&X&X&X&X;X;X&X#X#X&X*X;X;X;X;X;X;X;X@XN.N.|.' - - - - - - - - - > N.|.*X;X;X&X#X&X$X;X;X",
"*X*X*X*X*X*X*X&X&X%X*X*X:X:X:X>X:X*X;X*X;X;X;X;X;X>X;X-X&X-X:X*X;X;X;X;X;X2Xn.  o   q O.O.O.O.O.o.O.O.O.X.  % ;X>X:X*X*X;X;X*X;X",
"*X*X1X7X7X>X*X*X*X:X*X*XOX.XXXXX@X;X;X;X*X;X<X7X$X.XXXXXXX.X@X;X;X;X;X;X@XOX' = = O e O.O.#.#.#.#.%.%.%.$.- , .XXX*X*X*X;X,X7X>X",
"*X*X>X7X7X<X*X:X:X*X:X>Xl   o   { 1X*X;X;X;X7X9X_   .   o   E 3X;X:X;X3X}   w O.O.O.O.O.&.D.k.j.S.U.Y.Y.I.O. .X 1 &X:X*X*X7X>X7X",
"*X*X*X*X:X*X*X*X*X:X@XOX0 X X   [ 1X*X;X;X*X@X$XR X + + + X R ;XOXOXOX#X_   q o.X.X.X.O.&.j.d.k.S.U.U.Y.I.#...  & &X:X*X*X*X*X*X",
"*X*X*X*X*X*X*X*X;X;X9   >.F.y   { 1X*X*X*X1XR   n F.g.a.p.D.m   o . o o .     X X   q O.O.O.&.k.D.k.S.Y.Y.Y.L.  % *X>X*X*X*X*X*X",
">X*X*X*X>X*X*X:X;X;X9   <.J.i   } 2X*X;X*X>XY   n F.a.D.k.J.*.  X X       X X   X X q O.o.o.@.a.d.j.Z.I.P.Y.L.+ * @X$X*X*X:X<X*X",
":X*X>X1X1X:X*X*X:X<X9   <.J.y   } 1X*X*X;X1XT   . X n G.k.k.a.g.i.k.m   i g.g.i.i.d.,.X O   q +.+.+.X.# ; Z.Z.p.q.@ 1 *X:X<X<X>X",
"*X*X:X*X*X*X:X*X*X$X9   ,.J.p   } 1X*X;X$X;XR   X   g G.h.k.d.D.k.H.*.  a G.l.l.k.F.3.  X   q o.o.o. .. @ g.k.F.u.  @ $X*X:X*X*X",
">X*X*X*X*X*X>X*X9 @ 4.h.i X ' @X*X<X>X1XR   N F.d   + X d t.q.9.9.r.g   p A.z.'.].{.^.a.f.a.2.O O O , XX.X# ; q.3.  @ &X:X*X*X:X",
"*X*X*X1X*X*X*X*X7   7.J.t   n.2X;X*X$X*XY   =.K.g   .   p r.8.9.9.r.f   a A.c.}.}.}.^.A.l.H.7.X     & *XOXo + 9.3.X & @X*X*X:X*X",
"*X*X*X*X*X*X>X:X7   5.H.y   n.1X*X>XT $ :.h.q.t.d   I :X)   g r.9.9.5.5.k + H }.}.}.[.(.).'.^.i.t.5.>.& %   + 0.9.5.,.* 1 $X:X*X",
"*X>X*X*X*X*X&X&X7   5.G.t   } :X@X*XP   >.J.r.0.s   T 0X`   s r.8.9.9.r.k   G [.[.}.}.}.}.}._.l.g.0.4.X     = 9.9.q.5.    $X:X*X",
"*X*X:X*X:X*X9 @ 7.g.3 + X   @ & & @ :.g.q.r.d   ) @X@X;X@X@X)   j i.g X +   $ $ K }.}.}.}.}.[.].'.'._.,.3.5.>.+ ; 9.7.  o $X*X*X",
">X*X*X*X*X*X1   9.G.3   X           >.H.r.9.y   W 2X*X;X*X3XQ   a u.a     X     F [.[.[.}.}.}.}.}.}.`.w.0.0.2.  + 9.<.X o $X:X*X",
"*X*X*X:X:X*X7   9.F.u.t.5.3.>   m g.0.r.a + +   @ o Q 2X&X2XQ   . + i 4.,.2.g   $ $ K }.}.}.}.}.}.}.[.'.(.'._.3.;.= +   o $X:X*X",
"*X&X&X*X*X&X2   9.F.D.F.t.r.y   >.J.q.0.t           T ,X@X1XQ   X   y u.9.t.*.      F }.[.}.}.}.}.}.}.}.}.}.'.q.3.      o oX:X*X",
"%X&X*X*Xl * <.r.a.D.k.k.a.a.t.9.u.F.g X g 3.>.>.>.3.s < 2 < s <.>.>.3.9.9.r.m   D /.Q.$ K }.}.}.}.}.}.}.}.}.[.(.~.,.-.    oX:X*X",
"*X*X*X*X1   q.H.k.D.k.k.D.k.l.F.k.G.a   n u.9.q.9.u.d       a u.9.q.q.9.9.r.m   F }.!.  D }.}.}.}.}.}.}.}.}.}.}.'.r.7.X o %X*X*X",
"*X*X:X*X7   0.F.k.k.k.l.k.k.k.k.u.r.,.*.3.9.9.9.9.9.3.=.-.=.3.9.t.a.g.p.p.a.f.6.( }.`.!./.}.}.}.[.}.`.D 6 6 6 6 5 ; ;   . @X7X:X",
"*X*X>X7X7   0.F.k.k.k.k.k.k.l.G.t.9.q.r.q.q.q.q.q.9.q.r.r.q.0.9.i.d.l.k.k.l.k.A.v.}.}.}.}.}.}.}.}.}.`.                  . *X1X7X",
";X;X*X*X2   9.F.k.k.k.k.k.l.=.3 -.q.9.0.j : t : n q.9.9.r.p.p.i.a.D.k.k.k.k.k.d.f.v.L G J c.L F F G H k m m m m m m k   o $X:X;X",
";X*X>X:X7   q.G.k.k.k.k.k.J.r   g r.9.r.t       a i.9.8.t.F.k.l.k.k.l.G.l.k.D.F.F.A.7.  > y.;.      + q.t.r.r.r.r.t.9.    @X;X;X",
";X&XT l b h 9.t.h.k.k.l.*.r b.6Xx.e.9.q.y   x M.Z > n q.q.r.i.l.k.F.2.t -.G.0.t m G.,.  : q.4.n k n g 3 y 7.9.9.2.t 3 { } ;X,X;X",
"1X:X%   >.t.9.9.h.l.D.J.t   6XrXE.1.q.t.y   ` wXT   i i.9.7.u.D.k.K.v   r K.,.  : J.3.  > 0.9.r.r.t.5.    8.9.q.3.  % :X3X,X,X:X",
"T z N >.r.i.q.9.r.t.k a ;   5XrXR.5.n t Z { |.1XN.` Z t m 0.9.i.>.r ] 6Xb.u k -.,.f.>.  > q.9.9.9.0.3.  + 9.9.q.4.X & @X;X;X;X;X",
".   t.J.l.k.q.7.9.9.#       6XrXE.e.t   { 0X;X;X1XwX!   i u.9.i.p   | rX4X. t J.d.t.=.  ; r.9.9.9.q.3.  X 9.r.r.5.  o $X;X;X;X;X",
"% X 0.l.k.k.i.i.q.9.*.h h h ( | C r ^ [ |.:X*X1Xm.l C v f y i t k ;.w.W.T.-.3.u.3.t a g =.9.0.9.9.0.5.n g i t y s ! } ;X;X;X;X;X",
"o   t.J.l.d.l.k.r.9.t.i.t.i.:       { 0X:X*X*X2XT   i d.d       h A.s.s.d.J.h.u.*.  ; t.t.9.q.9.0.9.9.t.7.      $ :X2X;X;X;X;X;X",
"{ ` b a 9.t.a.a.q.9.f y y y ) { ' _ |.;X;X;X&X2XW   p r.;.h t   b.qXR.t.f.t.,.y a g =.9.9.9.9.9.9.0.9.0.3.X @ ` n.&X*X;X;X;X;X;X",
"2X1X%   >.f.d.G.u.q.=       n.0X-X=X&X&X;X;X*X2XT   a i.q.p.j   b.rXqX1.q.u.m   : p.r.9.9.9.9.9.0.0.9.0.2.  & -X&X+X*X;X;X;X*X*X",
";X*X} _ c p j j a p ) ` ` Q |.*X#X#X#X;X;X;X;X:XN.Q Z y m q.-.d A | A u a a a g d y n p.i.i.t.9.0.9.0.0.3.X & oX&X%X&X;X*X*X;X-X",
";X*X1X1X%           N.0X2X3X>X:X<X>X;X;X;X;X;X;X1XwX!   i i.r.k.u           ; l.-.  > Z.k.l.k.9.0.9.9.t.7.  o *X:X;X;X;X:X:X*X*X",
"&X$X#X@X{ W _ Q Q Q XX;X$X*X*X>X;X>X;X&X&X&X#X>XM.U C d a a p i M B V B.V B.B a d k ,.k.k.k.a.9.9.0.5.a s E ~ *X>X;X*X%X+X&X*X*X",
"&X&X&X*X1X3X1X-X-X1X;X;X;X;X*X;X;X*X;X*X#X&X#X2XT   a G.g       V U.Y.Y.Y.Y.C.  t J.G.k.k.F.h.9.9.0.3.  o :X3X*X*X*X*X&X&X&X;X*X",
";X;X;X*X*X*X&X+X#XoX;X;X;X;X;X;X;X;X;X;X;X;X&X2XW   3 k 3   .   4 V V B.C.P.V.  y d.h.D.h.u.t.9.0.0.3.  & @X;X;X;X;X:X*X*X*X*X*X",
";X;X;X>X>X;X;X;X;X;X;X;X;X;X;X;X;X;X;X*X;X;X;X9XT                       4 P.V.  y J.G.D.p.9.9.9.0.u.5.  o &X;X;X;X;X*X*X*X:X<X:X",
";X;X:X<X7X>X;X;X;X;X;X;X;X;X;X;X;X;X*X;X;X;X<X9XM.l Y Y I I x I x x x x S B.c   ; >.3.i.t.0.0.9.2.k b z T &X;X;X;X;X;X;X;X<X<X7X",
";X;X*X;X;X;X;X;X;X;X;X;X;X;X;X;X;X*X;X;X;X;X&X;X>X>X1X1X,X,X1X:X-X1X:X0X{           = q.7.1.8.r.>.  % :X,X;X;X;X&X;X;X;X;X&X*X*X",
";X;X;X;X;X&X;X;X;X;X;X;X;X;X;X;X;X*X;X;X;X;X;X;X*X*X&X*X*X*X*X*X*X-X*X:XN.l 9   2 / ] 1.w.R.T.9.,.  & $X;X;X;X;X;X*X;X;X*X*X*X*X",
";X;X*X;X;X;X;X;X;X;X;X;X;X;X&X;X;X;X;X;X*X*X;X;X*X;X;X*X*X:X;X;X*X&X*X*X*X3Xm.  / rXeX1.R.rXeXr.,.  o $X;X&X;X;X;X;X;X;X*X:X:X*X",
";X;X>X>X,X;X;X;X:X<X,X>X#X#X#X&X;X;X;X;X*X;X>X>X>X*X;X;X>X,X,X:X%X&X%X*X;X:XN.8 ) 6X5Xv x.6X5X*.b l I #X&X&X&X;X*X;X:X;X:X<X>X>X",
";X;X:X;X;X;X;X;X;X;X;X;X&X&X;X;X*X:X*X;X;X;X:X*X;X;X;X;X:X;X;X;X&X&X&X*X;X:X;X3Xm.    X         & ;X,X&X&X&X;X;X:X*X*X;X*X:X*X:X",
";X;X;X;X;X;X;X;X;X;X;X;X;X;X;X;X>X>X>X;X;X;X*X:X;X;X;X;X;X;X;X;X;X;X;X:X>X<X;X:X|.z I x z I Y z ) &X;X;X;X;X;X:X<X>X;X*X*X*X*X;X",
";X;X;X;X;X;X;X;X;X;X;X;X;X;X;X;X>X;X:X*X;X;X*X:X;X;X;X;X;X;X;X;X;X;X;X;X;X:X;X;X:X1X1X,X1X1X1X2X,X:X;X;X;X;X;X;X*X:X*X*X:X:X*X:X",
";X;X;X;X:X;X;X;X;X;X;X;X;X;X;X;X*X*X*X*X:X*X:X*X;X;X;X;X;X;X;X:X;X;X;X;X;X*X;X;X:X*X*X*X*X*X*X*X*X:X:X*X*X:X*X*X;X*X;X;X;X*X:X;X",
";X;X;X;X;X;X;X;X;X;X;X;X;X;X;X;X*X*X:X*X*X:X;X*X;X;X;X:X;X;X*X*X;X;X;X;X;X*X;X;X*X*X*X*X*X:X*X:X*X*X*X*X:X*X*X*X*X;X*X*X:X*X;X*X",
";X;X;X*X;X;X;X;X;X;X;X;X;X;X;X&X&X+X&X*X;X*X*X*X*X;X;X;X*X*X*X;X;X;X;X&X#X+X&X;X>X*X*X*X*X*X*X*X:X*X*X*X*X:X*X&X+X&X&X:X;X;X*X*X",
";X;X*X;X;X;X;X;X;X;X;X;X;X;X;X;X+X&X%X*X*X:X:X*X;X;X;X;X;X;X*X;X:X*X;X&X&X&X&X;X*X*X*X*X*X>X*X:X*X*X:X*X*X*X&X&X&X%X*X*X;X;X*X;X",
";X;X;X;X;X;X;X;X;X;X:X;X;X;X;X;X1X>X:X*X*X*X:X*X;X;X:X*X;X;X;X*X:X*X:X>X:X;X;X;X*X*X*X*X*X;X;X*X*X:X*X*X*X*X1X>X>X*X*X&X;X;X*X;X",
"*X$X&X&X;X;X;X;X;X;X;X;X;X;X;X>X:X>X*X*X&X&X&X;X;X;X:X;X;X;X;X:X*X*X:X>X:X:X;X;X+X%X*X>X:X:X;X;X:X*X*X:X*X*X:X:X>X:X*X&X%X&X;X;X",
"+X#X+X%X;X&X*X#X#X&X#X&X;X;X&X&X*X&X&X%X+X%X%X&X&X*X&X%X&X&X&X*X*X&X&X&X&X&X&X+X+X+X%X*X*X&X*X+X&X&X*X*X*X&X*X*X&X&X%X X%X%X&X&X",
"8X8X8X8X8X8X8X7X7X7X8X8X8X8X8X8X8X8X8X8X8X8X8X8X8X8X7X7X7X7X8X8X8X8X8X8X8X8X8X8X8X8X8X8X8X8X7X7X1X8X8X8X8X8X8X8X8X8X8X8X8X8X8X8X"
};
