/* XPM */
static char *_4da1670f8cb452edbf0042e9dbfc5f4SxWosHw5cllDiTA5[] = {
/* columns rows colors chars-per-pixel */
"64 64 48 1 ",
"  c #5CBA94",
". c #5FBC96",
"X c #60BC96",
"o c #62BE98",
"O c #65BE98",
"+ c #67BF9A",
"@ c #6ABE99",
"# c #6DBF9A",
"$ c #66C09A",
"% c #68C19B",
"& c #6AC19B",
"* c #6CC09A",
"= c #6AC29C",
"- c #6FC19C",
"; c #6CC49D",
": c #6DC49E",
"> c #6EC59E",
", c #6FC59F",
"< c #70C19D",
"1 c #70C79F",
"2 c #72C69F",
"3 c #72C3A0",
"4 c #73C6A0",
"5 c #72C7A1",
"6 c #74C7A1",
"7 c #75C4A2",
"8 c #7FC5A5",
"9 c #75C8A2",
"0 c #74C8A3",
"q c #75C8A4",
"w c #75C9A4",
"e c #78CAA5",
"r c #7BCAA5",
"t c #78CAA7",
"y c #7ACBA8",
"u c #7FC8A8",
"i c #7ACCA8",
"p c #7BCCAA",
"a c #7FCDA9",
"s c #7CCCAA",
"d c #7CCDAB",
"f c #80C8A8",
"g c #82C9A9",
"h c #83CBAA",
"j c #81CDAA",
"k c #82CEAB",
"l c #85CFAD",
"z c #86D0AD",
/* pixels */
"8**<3<#<**3<<#O#%<*,##,#<,@#,1#<<#@,#,@#,#1<<#,#,6##o@,<#<,@#3<<",
"h19yqq646sdd,oO@544966ywy446wpy3o4O444464dyy464qyyy+%O<621449sq9",
"h,49622166641%4,444416444,4,45w4%,,44444,q444,44044,:,4466644444",
"h,442665264444440dy0<44444444,44444qqyq,54444444444444wtyq,44444",
"h,4594554555444,5qq44446544555554,,w6q445555544544w4,4445545q494",
"h,62555544554444,4444362554,4554,44464444455545444,44w4,4,54,455",
"h,1644455444455454444426444454444w444454554445454444,4444445w,44",
"h,2244,554,,4544% o,451,4454q4,4,44:$.,4,44,45444,,455,%.,44544,",
"s,44,46254,44544%%$,26261,2654,4444:,%,4444,454w,4444,,,,%623236",
"h,4444414445,q5qsp9262623661445444wtqw44,444444,4w,446tw6116166<",
"h%%,44164444544qwdw,<,%666164,45544www,,o%,44426444444ywy,,O%466",
"hO,%446<%%,4544,,44,X%O244,:%,454,44444%O%,44<1%,,4444,464%O%%54",
"h,<1444%%o%5445544441422,6,O$$44,55444,4642,22O<$,444w44441449,4",
"h,66pq44446954454454<29sy6444444444w4w444quy6232,444445,44414qj4",
"h,6kkz5444554,44,4<666szkp,45444444,,415,ksk9,6644444,4,4,54qjzd",
"h<6244455455554544626144444445545554444541126612w,w,444444449444",
"h,6266646212<6661<4444444444544,,144,,4541,4444445446644,444,444",
"h4262<4426t64,%666,44,,w444,:w444,44445444w4,54,,q,4%444,444,q5,",
"h,1qpt,41qsd,%oO4,4444wwp144wspqO%o,44444wdt444wssq:O$,444445ptq",
"h,1644449q5q,%<,,q4444w45,545594%4,455,44w4w444565q%,%41444,6q55",
"j44444554,444544qdpw,444445444,4544qdp5,4,4,455461,144wpyw446444",
"h,5541445555545,5,w444545545555564445w4444555445444454454w454455",
"d,5555554455544556,5544555,4454544544,,,44w,545445w4454,4,454555",
"h454444554444554444445,44454544445454454w44445454444544444455444",
"h,41,444444,4544% X%2626<,44554,,45%$X,162#<66454,,455,X.,4454,4",
"u,954,4,4444454,%,@1613144445,44455,,%#116664445444,56*,%%4454,4",
"h,16442644454544tq642244,4544544544qq4q46644445,444461qq54444445",
"h;<<4461,4,45545tp9,,%,454444445545qqe,,O%,44444446616qwq94o%,45",
"uX<%264,%:444,44224,o%O4554,%,,45444444OO@,444,%,,4454,426,X%%45",
"h,22124%%%%544552644,6,445<O$O444,44444442114,O,+,44455462156146",
"h,11664444,4w44566444449q61264444,5544,415qq,444,4414554262<12t1",
"h<1jkl44,445,4,521444,yljt166444444544,42tsjq4,4w,444446<2229kzu",
"k,4445,5555554444,445,4444454544545444454,,44455555556644454,445",
"h,4444444444454,44,,544444,454444544,,4544444,444454<14,,,455444",
"h4444,454,4444,1,4444444,5544411,,44444444444,44454416624444,4,5",
"h,45py454qdp,$o@44,w44wwy4445ppq%:.,44,54wpd54,wpsw%@X,6444,5ppq",
"h,1644454w5w,%6,,04444w45,555994%1,,,4:14w4444444w5,,*5165445544",
"h,44445454,44544wdd,,4,44454,44446<qddw4444,4554,44544qqpq454444",
"k,4455454445545,wwy44595544545556444q644555554455554544w9q,59555",
"h,4455544455544444,4444595454q54444441,w4454w,544544454,44444555",
"h,55444554444554444545444,54544,4444445445444545,44462914,26444,",
"h,44,4455,4,45,4%.o<444,4,54544,4,w%Oo,4,44,454544,421,$o,624444",
"h,94,44454,44544O..%544444545444445%%oO4,44,44644,,4q6:XoO16q4,4",
"h*44445,44444545qp44444,4454544,444wq4444444444254,96<qq566244,4",
"h%,<454416<,544wqyq,,%%954444445445qqq4,o%251666444544qqq64o$444",
"fX,%451:$,64544,444,o%O644,%%,454511465O$%<511%<,,54544446%O%%44",
"h<26,44$oO%5449444,4<26,44,oOO444554454164,26<o%o,544554544411,4",
"k,61t4444,,454445446661tq4,44,454,55444464qq61,4,4454455544<54d4",
"h1<kzz44445454445,4,5,szkt16,54544,w44446tdjw,5444444444444,qszk",
"y12655,454555w54444454q5912644555544,4,5611q54555955554,5,544419",
"h161,4454444444,4,4455,,612644,444544,4461,,4444,454444444456222",
"g1214,444,5,,4,44,444444<262,4444,,444446<w4444,4444,,444,54121,",
"g16qyq,45qpd4$o%4,4444t0q654qpdw$:o,11q42qyy544wppq:%$,444w42yqq",
"g16666446wwq,%,,4q4,44w4q45469w4%,,469<666664445qqq%,*,4,,447e66",
"h66644444,44441<4dt0,444445444444414qs54w464455454,5262qd4444466",
"g#624q4444554444qqq440444445455544444ww4,444544544546264ww444442",
"j,5455454444,454,4,3664455544,54444,4,,45444,5544544651641454,w4",
"h,54444554444544441264,444545444444444441454455454454<6644454444",
"h,54,4445,4,455,4o%61444,45454,4,54,%%44446<45454,4,55,%.444144,",
"h,54,4,444,44545$.X%66,4,454544,544%Oo%444424545444495<$$@4,4,44",
"h,<4,44454444544qp64444444555444444qqw5466664544,4454,q94,494044",
"u,*,444q4,44554qqy6,,%,,55544455449qqq4,O%,154444555,qp1t4,O%,44",
"sX%O6461,,94544,<61,o%.4544,%4,w54,4264OXX,55,6,444444,444oo.%44",
"h,45261%$X%54455622,,9,444,$$%44,466<21,,6145,o%o,54444444,,4,4w"
};
