/* XPM */
static char *_6675aa939e042e6c0bc3e2bdafb6ce75YzOGDVdxPf2PZFa[] = {
/* columns rows colors chars-per-pixel */
"64 64 175 2 ",
"   c #010101",
".  c #030A04",
"X  c #0A0A06",
"o  c #05050A",
"O  c #08070C",
"+  c #07080B",
"@  c #09090D",
"#  c #07110A",
"$  c #0A120C",
"%  c #060511",
"&  c #090713",
"*  c #0C0B13",
"=  c #0F0E19",
"-  c #110F1A",
";  c #0D1612",
":  c #0D1D14",
">  c #151512",
",  c #141A17",
"<  c #13111D",
"1  c #1B1B1A",
"2  c #13261D",
"3  c #120F22",
"4  c #161423",
"5  c #181625",
"6  c #1A1827",
"7  c #151228",
"8  c #19162B",
"9  c #1D1B2C",
"0  c #1F1C31",
"q  c #201D2F",
"w  c #211E32",
"e  c #221E3E",
"r  c #162920",
"t  c #1A2C23",
"y  c #1E332A",
"u  c #1B372A",
"i  c #242423",
"p  c #2A2B26",
"a  c #2C2C2A",
"s  c #213A2E",
"d  c #242136",
"f  c #25233A",
"g  c #29263E",
"h  c #2A283F",
"j  c #233D32",
"k  c #333332",
"l  c #393A37",
"z  c #2C4B3D",
"x  c #2A2642",
"c  c #2C2943",
"v  c #2F2C4A",
"b  c #312D4B",
"n  c #3F3F40",
"m  c #33304E",
"M  c #353252",
"N  c #393556",
"B  c #3A3659",
"V  c #3E3A5D",
"C  c #3D3A61",
"Z  c #423D64",
"A  c #433F6A",
"S  c #2E5543",
"D  c #305343",
"F  c #355B4A",
"G  c #3B5F51",
"H  c #3C6151",
"J  c #3F6D59",
"K  c #454543",
"L  c #4C4C4B",
"P  c #51524F",
"I  c #555554",
"U  c #595957",
"Y  c #5C5C5C",
"T  c #42715C",
"R  c #444067",
"E  c #46416B",
"W  c #49446E",
"Q  c #4A4672",
"!  c #4E4975",
"~  c #4E497B",
"^  c #524D7C",
"/  c #55507F",
"(  c #457A63",
")  c #487B65",
"_  c #646463",
"`  c #6B6B67",
"'  c #6C6D6C",
"]  c #747474",
"[  c #787977",
"{  c #4C846A",
"}  c #50866F",
"|  c #4D8B70",
" . c #548F75",
".. c #559579",
"X. c #5A9B7E",
"o. c #534E82",
"O. c #565184",
"+. c #595386",
"@. c #575289",
"#. c #5B558A",
"$. c #5E588E",
"%. c #5E5994",
"&. c #60598E",
"*. c #635C95",
"=. c #655E99",
"-. c #67609A",
";. c #69629E",
":. c #6660A0",
">. c #6C65A3",
",. c #6F68A7",
"<. c #6C66A9",
"1. c #6F69AE",
"2. c #746CAE",
"3. c #766EB2",
"4. c #786FB4",
"5. c #766FB9",
"6. c #7770B3",
"7. c #7971B6",
"8. c #7770BA",
"9. c #7C74BB",
"0. c #7D76C4",
"q. c #7F78C7",
"w. c #8077BE",
"e. c #8077C0",
"r. c #827AC4",
"t. c #847CCA",
"y. c #887ECA",
"u. c #857DD1",
"i. c #5B9C80",
"p. c #63A78A",
"a. c #61AA8A",
"s. c #6EAB8F",
"d. c #65B693",
"f. c #69B493",
"g. c #68BA97",
"h. c #66BF98",
"j. c #6CBE9A",
"k. c #72BF9D",
"l. c #6DC29C",
"z. c #6CC89F",
"x. c #71C49E",
"c. c #6FC9A1",
"v. c #73C6A0",
"b. c #74CBA4",
"n. c #79CBA7",
"m. c #7ACFA9",
"M. c #77D0A8",
"N. c #79D2AA",
"B. c #7EDAB1",
"V. c #848584",
"C. c #8E8E8D",
"Z. c #969898",
"A. c #9D9D9D",
"S. c #A3A3A2",
"D. c #A0ABA6",
"F. c #ADADAE",
"G. c #B6B6B7",
"H. c #BBBBBB",
"J. c #81D7B1",
"K. c #83D9B3",
"L. c #BFBFC0",
"P. c #C4C4C4",
"I. c #CCCCCB",
"U. c #C4DBD1",
"Y. c #D3D3D4",
"T. c #DADADA",
"R. c #CEEADD",
"E. c #D0EFE1",
"W. c #D4F4E6",
"Q. c #D6F8E9",
"!. c #E3E3E4",
"~. c #EBEBEB",
"^. c #F4F4F4",
"/. c #F7F7F8",
"(. c #FEFEFE",
/* pixels */
"v.x.b.n.t   >.6.2.6.3.6.3.3.3.3.3.;.5     > X.B.m.j.a. .) T D s r , ; $ $ @ $ : r s F T { i.f.b.J.K.n.x.h.l.l.v.v.x.v.x.b.J.g.F ",
"v.x.v.N.z   &.9.2.3.3.3.3.6.3.3.3.7.,.q     o F z ,                       o o               . s G } k.z.b.x.l.l.x.l.b.M.f.H .   ",
"v.v.x.N.T   ! w.2.6.3.6.3.3.3.3.3.2.6.3.c           o < f B ! +.*.-.;.>.>.>.;.-.*.+.! V c 6 @       X j { f.N.M.N.J.s.F .   4 ! ",
"v.v.v.m. .  B 9.6.3.2.3.3.3.3.3.3.3.3.7.N     + h R -.2.7.9.9.9.7.7.7.7.7.7.7.7.7.7.w.w.9.3.2.#.Z c *     . D p.f.G .   < ! 3.9.",
"v.v.v.b.p.  f 7.3.3.3.3.3.3.3.3.3.3.6.=.  @ Z ;.7.9.7.6.3.2.2.3.3.3.3.3.3.3.3.2.3.3.2.2.3.3.3.7.9.9.,.#.V 4     .   < Q 3.9.3.2.",
"v.v.v.v.j.# - 2.3.3.3.2.3.2.2.3.3.3.3.2.! ;.9.7.3.3.2.3.3.3.3.3.3.3.2.3.2.6.2.6.3.3.3.3.3.3.3.3.2.2.3.9.w.6.-.M q ! 6.w.3.2.3.6.",
"v.v.v.v.b.u o 2.3.3.3.3.3.7.9.4.3.7.w.9.9.6.2.3.3.3.3.3.3.2.3.3.3.2.3.3.3.2.6.3.3.3.3.3.3.3.3.3.6.3.3.3.2.3.7.9.7.9.3.2.3.3.3.3.",
"v.v.v.l.M.F   *.9.2.3.3.4.&.x 1 < d B #.3.9.3.2.6.2.3.3.3.3.3.3.3.3.3.3.6.3.3.6.3.3.3.3.3.3.3.6.3.3.2.3.3.3.3.2.3.2.3.2.3.7.7.7.",
"v.x.x.x.N.T   R w.2.3.3.2.*   f M q     4 ^ 9.7.2.3.3.3.3.3.3.3.3.3.2.7.,.2.3.3.3.3.3.3.3.3.3.3.3.3.3.3.3.3.3.3.2.3.9.w.7.2.=.#.",
"v.z.x.l.m.X.  M w.2.3.3.2.o V r.9.9.;.V @   w =.w.3.3.3.3.3.3.3.3.2.w.=.< -.7.3.3.3.3.3.3.3.3.3.3.3.3.3.2.3.3.7.e.6.&.V 6 * @ o ",
"z.j.l.l.b.k.. d 7.3.3.3.3.#.2.2.2.2.7.9.2.B     W 7.3.3.3.3.3.3.2.w.&.  w 7.3.3.3.3.3.3.2.3.3.3.3.2.2.6.9.w.7.#.M 6 - h V +.>.=.",
"f.M.x.x.x.x.2 * 2.3.3.3.3.7.3.9.e.7.3.3.9.y.;.w   b 3.3.3.3.2.3.6.Q   w 3.3.3.3.3.3.3.3.3.3.3.2.2.7.w.6.#.m < < h ^ ,.9.r.7.7.7.",
"; J f.N.n.n.z   =.7.3.3.3.9.2./ N 9 % & f Q 7.r.Z   d 9.2.>.7.w.>.  c 9.3.3.6.3.3.3.3.3.3.2.3.w.w.-.V < o q W 2.w.w.4.2.3.3.3.2.",
"    ; H s.K.T   ^ 9.2.3.7.W &     i L P p   & +.y.+.  w 4 c ;.^ 9.9 V 9.2.3.2.3.2.w.9.2.3.w.2.Q 6   - B =.w.w.3.2.2.3.3.3.3.3.3.",
"/ d       s j   Z w.2.9.B   1 Z.~.(.(.(.(.Y.K   Z r.*.    *.g M y.O.@ 2.3.9.V +.w./ +.e.,.B @   q / 9.r.w.7.3.2.2.3.3.2.3.3.3.3.",
"9.7.*.N *       c 7.7.^   I (.^.~./.(.(.(.(.(.[   R r.*.&.9.-.3.2.7.V ;.3.w.f B y.B   c - o N >.Z.w.-.^ W &.2.w.4.3.3.3.3.3.3.3.",
"2.2.9.9.,./ m X = 2.7.& k (.V.Y K i C.(.(./.(.(.]   =.9.9.2.*.,.4.2.4.2.2.w.#.&.7.6.N < R 3.y.=.v %           c -.9.3.3.3.3.3.3.",
"3.6.3.2.6.9.r.^ * 3.#.  P.H.F.(.!.    _ (.(.(.(.(.p c w.>.4 4 >.4.3.3.w.,.Z Z 3.7.2.9.7.r.;.0   V C.F.I.Y.H.V.>   ! 7.2.3.3.3.3.",
"3.3.2.6.3.2.3.2.*.w.m > (.U F.(.A.      T.(.(./.(.C.& 7.;.m 2.9.2.3.,.=.4.2.e X $.7.2.9.^   a Y.(.(.(.(.(.(.(.~.a   Q w.2.3.3.3.",
"3.3.6.2.3.3.3.3.4.w.x p (.l   k       o Y.(.(.(.(.S.o 2.6.9.7.V >.y.! ~ >.#.e.6 O 2.7.+.  L (.S.L k Y Y.(././.(.!.,   =.7.3.3.3.",
"3.3.3.3.3.3.3.3.2.w.x a (.U           1 ^.(.(./.(.P 3 7.2.7.B N 2.N 6 ;.,.q >.2.Q 2.9.4 a (.Z.` I.'   > T.(.(./.(.F.  M w.2.3.3.",
"2.3.3.3.3.3.3.3.2.w.A > (.H.  . o o   ] (././.(.G.  Z w.6.=.c w.w.^ *.w.r.^ c w.9.7.=.  H.(.a /.(.V.    ' (.(.(.(.(.k O 2.3.3.3.",
"2.3.3.3.3.3.3.3.3.3.2.& [ (.[       i !.(.(.(.I.X & 2.3.2.2.7.+.c 6 - f / w.! >.2.w.E $ /.P.  l K       p /.(.(./.(.C.  ,.6.2.3.",
"B 9.2.3.3.6.3.2.3.3.7.$.o ` ^.F._ ] ~.(.(./.Z.  o *.7.2.7.,.h     q c O   v 9.3.2.e.Z X (.F.            1 ~.(.(.(.(.A.  2.3.3.3.",
"X ;.7.2.6.6.3.2.3.3.2.9.-.4 1 ] S.I.P.A.[ p   < =.9.2.9.*.*   d >.^ V 2.B   g 7.2.w.W   L.^.X   X   o   K (.(.(./.(.' 7 w.3.3.3.",
"  b 9.3.2.6.3.3.6.3.6.2.4.w.+.e = < =       N 2.9.2.9.#.    V e.^ q < c r.Z   Z w.3.-.  k (.A.          A.(././.(.P.  W 9.2.3.3.",
"F   $.>.7.2.6.3.3.3.3.3.2.3.w.w.9.=.9 o b =.9.3.2.7.=.o   ^ 9.7.+.2.2.  +.r.f   -.7.7.g   I (.I.' L L S.(.(.(.(.L.. 8 3.3.3.3.3.",
"f.# 6 6 Q 9.2.6.3.3.3.3.3.2.2.2.9.^ M ;.w.4.7.7.3.2.-   #.9.2.2.9.2.9.c q w.>.  g 7.6.=.O   n T.(.(.(.(.(.^.I.Y   9 2.3.3.3.2.3.",
"M.(       ^ 9.2.3.3.3.3.3.3.3.3.2.6.w.7.2.7.#.#.r.c   +.w.2.3.3.3.2.7.&.O ;.e.V   *.7.9.^       i U _ U l $   o V 7.4.3.3.3.3.3.",
"v.v.s     o =.7.3.3.3.3.2.3.3.3.3.3.2.3.2.w.Z X M   W 9.2.3.3.3.3.3.3.3.O.,.4.,.  v 9.2.7.^ o   4 8 o & 9 m ^ 2.r.3.3.3.3.3.3.3.",
"z.M. .  m O 0 9.2.3.3.3.3.4.3.3.3.3.3.2.3.3.2.<   c w.2.3.3.3.3.3.3.3.3.9.3.2.w.v o 2.6.2.9.=.4 @ $.q.7.7.w.w.2./ 3.3.3.3.3.3.3.",
"x.m.{   %.C   +.9.2.3.3.3.3.3.3.3.3.3.3.3.3.9.!   Z w.2.3.3.2.3.3.3.3.3.2.3.2.9.#.  W 9.6.7.7.2.Z * M 2.3.2.3.3.- b 7.2.3.3.3.3.",
"x.N.J   :.1.  c w.2.3.3.3.3.3.3.2.6.6.4.3.3.3.7.q @ ,.4.2.2.2.3.3.3.3.3.3.3.3.3.3.- w e.=.&.3.3.w.,.B b =.4.4.2.*   N 9.2.3.2.3.",
"M.B.S   1.0.f o ,.4.2.3.4.3.4.4.6.3.4.2.3.4.2.7.;.  V w.2.2.w.3.3.3.3.4.3.3.3.2.w.b o ;.* g w.2.2.3.w.2.2.3.4.>.O     ^ 9.2.6.3.",
"{ ..: 8 8.q.A   &.7.2.3.2.4.3.3.6.6.4.4.4.2.4.2.w.Z > 4.3.3.2.3.3.3.3.3.3.3.3.2.w.+.  @ O ;.4.3.3.3.2.3.3.2.4.=.  C 6 * 2.3.3.3.",
"o o   V 0.0.%.  W w.2.4.2.4.4.3.3.4.2.4.3.4.3.3.3.3./ 2.3.3.2.2.3.3.4.3.3.3.3.3.3.2.-   ! w.3.3.3.3.3.3.3.3.w.+.  +.@.  W w.2.2.",
"2.E   ^ 0.5.:.  X =.7.2.3.3.3.3.3.3.6.3.4.3.3.4.3.3.7.3.2.2.3.w.4.4.4.3.3.3.3.2.7.*.  m w.2.w.6.3.3.3.3.3.3.9.A   %.8.= 6 7.2.3.",
"r.b   <.5.0.1.o O 6 ,.6.3.3.3.3.6.3.6.3.3.3.3.2.3.3.3.4.2.w.6.3.2.4.2.4.3.3.3.3.7.1 5 4.2.2.2.2.3.3.3.3.3.2.9.v   <.t.m   >.4.3.",
"=.* 9 0.5.5.2.  M Z ^ 9.3.3.3.3.3.6.3.3.3.3.3.3.3.3.3.3.6.2.2.2.4.4.3.3.3.3.3.3.3.! ;.w.2.3.3.3.3.3.3.3.3.3.3.1 4 5.0.~   ! 9.2.",
"o   E 0.3.5.1.  b r.2.3.3.3.3.3.w.3.3.6.4.3.3.3.3.3.3.3.6.6.2.w.2.4.4.3.3.3.3.3.2.w.3.2.3.3.3.3.3.3.3.3.3.3.2.  v 0.5.<.  V w.3.",
"2   Q 0.5.8.<.  B w.2.3.3.2.3.3.2.2.3.3.3.3.3.w.6.2.w.6.2.w.2.2.6.4.3.3.w.2.2.6.6.2.2.2.2.2.2.3.3.3.3.3.3.9.^   Q 0.5.3.o m 9.3.",
"p.  M 0.5.5.1.o g 4.3.3.3.3.3.2.2.3.3.3.3.3.2.2.2.2.2.2.2.2.2.w.6.6.3.6.2.2.2.3.2.w.3.2.w.2.3.6.3.3.3.3.3.9.b   1.8.5.5.o x 9.3.",
"b.$ c 0.5.5.0.f @ 2.6.3.3.3.w.w.3.2.2.3.2.w.3.3.2.w.w.2.w.2.w.2.3.3.3.6.w.2.2.w.3.3.3.w.2.3.2.2.3.3.3.2.6.2.@ 9 0.5.5.5.* f 9.2.",
"f.$ x 0.5.5.0.B . 7.6.2.7.2.Q A ,.w.2.3.2.2.3.3.6.2.2.6.2.2.2.2.6.6.3.3.2.6.2.2.3.3.2.2.2.w.2.w.3.6.3.2.9.+.  Q 0.5.5.5.O g 9.3.",
"o   c 0.5.5.0.E   B 2.0.=.4     1 2.w.3.2.3.w.2.6.2.w.3.3.3.2.w.3.3.w.2.2.2.2.6.6.3.w.2.2.6.6.3.3.3.3.3.7.=.  A 0.3.5.5.o b 9.2.",
"g   v q.5.1.q.E     4 V     o.A   R w.2.6.3.2.2.3.2.2.2.3.3.2.3.3.6.3.6.2.w.2.w.2.w.2.2.w.2.6.2.6.3.3.3.6.>.  c 0.5.5.5.< 4 7.6.",
"1.  C q.5.5.q.C o %.&   4 =.r.5.X w 3.2.2.2.6.3.w.2.w.2.6.3.6.3.3.2.3.3.2.2.2.2.2.2.2.2.2.2.w.2.3.3.2.2.3.5.= 0 5.5.5.0.b   ,.3.",
"#.o :.0.5.5.q.E   0   c 3.0.3.0.M   -.w.2.w.2.3.2.2.2.2.2.w.3.3.w.2.3.3.2.w.3.6.2.w.2.w.2.6.2.2.3.3.6.w.9.=.o 0 5.5.5.0.E   >.9.",
"O.C 0.5.5.3.q.C     A 0.5.5.3.0.#.  A 9.2.3.2.3.3.6.3.3.3.3.6.6.w.3.3.2.3.3.w.2.3.3.3.6.3.3.6.3.3.7.-.E 6     w 8.5.5.0.~   9 $.",
"1.8.5.5.5.5.0.M o %.0.5.5.5.0.5.5.= 4 9.2.3.3.3.3.3.3.6.6.3.3.3.2.3.3.2.3.2.2.2.6.6.3.3.3.3.3.3.3.B     = C   x 0.5.5.0.o.  * o ",
"8.5.5.8.5.5.0.0 b u.1.5.0.0.@.1.q.M   =.7.3.3.3.3.3.3.6.6.3.3.4.2.3.2.w.6.3.w.2.3.w.6.3.3.3.3.2.9.c   @.8.5.  A 0.5.5.0.^   @.4 ",
"5.8.8.5.5.5.0.~ %.0.5.0.<.0 B 0.8.*.  B 9.3.3.3.6.6.3.3.3.3.6.3.3.3.2.2.w.3.2.2.2.2.3.3.3.3.3.2.w.V o 4.0.%.o :.8.8.5.0.~   *   ",
"5.5.5.5.5.8.5.0.0.1.0.%.% o %.1.5.5.4 < 3.6.3.3.3.3.3.3.4.3.6.4.3.w.2.2.2.w.2.2.3.3.3.w.6.4.3.3.w.Z   <.0.%.Q 0.5.5.5.0.Q   * o.",
"5.8.8.8.5.5.8.5.5.5.0.=.  & m Q 0.0.v   +.9.2.2.3.6.4.3.4.3.6.2.3.3.3.3.6.2.2.w.3.3.2.2.6.2.2.2.w.V   1.5.5.0.5.5.5.5.q.M o <.0.",
"5.5.8.5.5.8.5.8.5.5.5.0.C   @.u.2.x   4 -.7.3.3.4.3.4.4.3.3.3.4.w.3.3.3.w.2.3.6.2.w.2.w.6.4.4.2.9.b o 3.8.5.5.5.5.5.1.q.x v t.3.",
"5.8.5.8.5.5.8.8.5.5.5.5.5.% = @.-   b 2.7.3.3.3.3.6.3.3.3.4.4.3.,.,.w.3.2.6.3.3.2.2.2.2.2.4.2.4.4.4 < 5.5.5.5.8.5.5.5.0.%.:.5.5.",
"8.5.5.5.8.8.5.8.5.5.5.5.0.~       9 7.3.2.3.3.6.,.w.3.2.3.3.3.3.3.3.,.2.w.3.3.w.3.3.4.4.2.4.3.6.>.  M 0.5.5.5.5.5.5.5.5.0.5.5.5.",
"1.8.5.5.5.5.5.5.5.5.5.5.5.8.0 c M   -.9.2.3.2.3.3.2.3.2.w.,.w.,.,.w.w.3.2.2.2.,.4.3.3.3.2.6.2.w.~   o.0.5.5.5.5.5.5.5.5.5.5.5.5.",
"7 >.0.5.8.8.5.5.5.5.5.5.8.8.<.0.o.  9 ,.9.2.3.3.3.2.2.w.,.3.3.w.3.,.3.,.3.,.w.2.4.3.3.4.4.3.2.6.4 o 1.0.5.5.5.5.5.5.0.5.5.5.5.5.",
"  + %.0.5.5.8.6.5.5.5.5.8.8.0.u.A     < -.9.3.2.,.w.3.,.w.2.3.3.3.w.3.w.3.w.3.2.3.4.3.3.2.6.6.6.c   c 5.8.5.5.5.5.5.5.5.8.5.8.5.",
"i.#   o.0.8.5.5.8.9.q.0.0.>.! B   y (   o ! 6.9.3.,.2.3.3.3.3.3.w.3.2.w.w.w.2.2.3.4.3.3.3.3.3.3.7.N   9 1.0.5.5.5.5.8.5.8.8.8.8.",
"b.a.2   Z 0.0.0.8.<.! b 3       t a.N.X.2   - ! w.w.2.2.3.3.3.3.,.3.2.2.,.2.w.3.6.3.3.4.3.3.3.3.3.9.Q   * =.0.3.8.8.5.8.5.8.8.8.",
"h.c.h.u   v ~ M &       t S | d.z.v.l.c.h.( :   1 / w.3.,.3.w.3.2.w.w.,.w.2.,.3.6.3.3.3.3.3.2.6.3.2.9.#.    o.0.5.5.8.5.8.8.8.8.",
"R.R.E.Q.'       l V.D.U.W.Q.Q.E.R.R.R.R.R.W.R.Z.1   i / w.2.,.2.2.2.3.2.2.,.w.3.3.3.6.6.3.3.3.3.3.3.2.9.=.=   E 0.5.5.5.5.8.8.8."
};
