/* XPM */
static char *_aa4cd0b27ab49aaef1f3487dbe7cd57KccbCtTm3NBzU4Y5[] = {
/* columns rows colors chars-per-pixel */
"64 64 196 2 ",
"   c #010101",
".  c #040B06",
"X  c #06050A",
"o  c #08070D",
"O  c #060B09",
"+  c #0A0A0D",
"@  c #071209",
"#  c #0B0412",
"$  c #0C0B14",
"%  c #0E0E18",
"&  c #100E1A",
"*  c #0C1511",
"=  c #0E1C14",
"-  c #151514",
";  c #12111C",
":  c #121D1A",
">  c #1B1B1B",
",  c #112217",
"<  c #13221B",
"1  c #152C1E",
"2  c #150E20",
"3  c #161422",
"4  c #191426",
"5  c #1A172A",
"6  c #1A1829",
"7  c #1C1A2B",
"8  c #1A1731",
"9  c #1F1C31",
"0  c #211D34",
"q  c #241D3A",
"w  c #172620",
"e  c #192F23",
"r  c #173021",
"t  c #1A3324",
"y  c #1F352C",
"u  c #1E3B2A",
"i  c #252527",
"p  c #2D2D2C",
"a  c #213D2D",
"s  c #232134",
"d  c #2C2C31",
"f  c #25223A",
"g  c #29253E",
"h  c #2B283F",
"j  c #293F34",
"k  c #383835",
"l  c #21422E",
"z  c #244432",
"x  c #2B4D3B",
"c  c #2B533C",
"v  c #2B2643",
"b  c #292546",
"n  c #2D2A44",
"m  c #2E2A4A",
"M  c #302A49",
"N  c #312D4C",
"B  c #333144",
"V  c #34314E",
"C  c #342E52",
"Z  c #363252",
"A  c #393556",
"S  c #3A355B",
"D  c #3D395D",
"F  c #3C3661",
"G  c #3E3A62",
"H  c #403B5F",
"J  c #413D63",
"K  c #443E6A",
"L  c #2E5442",
"P  c #335B47",
"I  c #36604C",
"U  c #3E6B55",
"Y  c #3C6C55",
"T  c #3F765A",
"R  c #434343",
"E  c #4B4B4A",
"W  c #525350",
"Q  c #59595A",
"!  c #44775E",
"~  c #62625D",
"^  c #454067",
"/  c #46416B",
"(  c #49446E",
")  c #474270",
"_  c #4B4673",
"`  c #4E4976",
"'  c #4D4879",
"]  c #51497A",
"[  c #524C7C",
"{  c #54507E",
"}  c #457B62",
"|  c #497A65",
" . c #497E66",
".. c #6A6B68",
"X. c #73736E",
"o. c #787877",
"O. c #4C846A",
"+. c #4E8A6D",
"@. c #4C8E70",
"#. c #528E72",
"$. c #539175",
"%. c #569579",
"&. c #58977A",
"*. c #599B7D",
"=. c #544E82",
"-. c #565084",
";. c #595385",
":. c #575288",
">. c #5B558A",
",. c #5F588E",
"<. c #5C5691",
"1. c #5E5994",
"2. c #625B93",
"3. c #655E99",
"4. c #67609B",
"5. c #69629E",
"6. c #6761A1",
"7. c #6C65A4",
"8. c #6F68A7",
"9. c #6E66AB",
"0. c #6E68AD",
"q. c #7068A7",
"w. c #746CAE",
"e. c #766EB2",
"r. c #786FB4",
"t. c #766FB9",
"y. c #7971B5",
"u. c #7770BA",
"i. c #7C75BA",
"p. c #7C74BC",
"a. c #7C75C3",
"s. c #7F78C7",
"d. c #7F78C8",
"f. c #8077BE",
"g. c #8077C0",
"h. c #8279C2",
"j. c #827ACA",
"k. c #867FD2",
"l. c #5B9E80",
"z. c #5DA282",
"x. c #5BAB88",
"c. c #62AB8A",
"v. c #66B18F",
"b. c #67B491",
"n. c #69B593",
"m. c #63BE97",
"M. c #6BBA96",
"N. c #65BE98",
"B. c #6DBE9A",
"V. c #66C199",
"C. c #6CC39C",
"Z. c #71C49F",
"A. c #6DC9A2",
"S. c #73C6A0",
"D. c #7AC7A4",
"F. c #74C9A3",
"G. c #77C9A5",
"H. c #75CAA4",
"J. c #76CBA5",
"K. c #77CDA6",
"L. c #78CAA6",
"P. c #79CBA6",
"I. c #77CFA8",
"U. c #7ACDA9",
"Y. c #75D0A7",
"T. c #79D1A9",
"R. c #7AD3AB",
"E. c #7BD5AD",
"W. c #7FD5B0",
"Q. c #858582",
"!. c #8D8D8D",
"~. c #8D928D",
"^. c #9A9B97",
"/. c #9D9D9B",
"(. c #A5A5A3",
"). c #ACACAC",
"_. c #B1B1AF",
"`. c #B1B1B2",
"'. c #BABBBA",
"]. c #83D3AE",
"[. c #80DDB4",
"{. c #8A81CE",
"}. c #8A83D9",
"|. c #C5C5C5",
" X c #C9C9C9",
".X c #D3D3D2",
"XX c #DAD9DB",
"oX c #C8E7DA",
"OX c #CEEBDE",
"+X c #D0ECDF",
"@X c #E0E1DF",
"#X c #D4F3E6",
"$X c #E4E4E4",
"%X c #EBEBEB",
"&X c #F5F5F5",
"*X c #FEFEFE",
/* pixels */
"S.S.F.G.K.S.S.C.W.U   w.r.w.y.A   < c.R.Z.Z.G.G.G.S.S.S.F.U.L.S.N.C.N.Z.S.S.S.Z.Z.F.U.L.Z.F.S.S.L.U.F.Z.V.C.C.S.S.S.Z.Z.R.F.O.@ ",
"S.Z.G.G.S.S.S.Z.R. .  7.y.w.r.i.J   O $.R.Z.L.S.S.S.S.Z.K.G.L.S.m.S.C.S.Z.S.Z.S.Z.L.F.F.F.Z.S.S.U.L.L.C.C.C.C.Z.Z.Z.R.L.O.<   N ",
"S.S.Z.Z.Z.S.S.Z.Y.#.  2.y.w.w.w.i._     ! U.S.Z.S.S.S.S.Z.Z.Z.Z.Z.C.C.S.S.G.S.Z.Z.Z.Z.Z.Z.S.S.S.Z.S.Z.F.S.S.Z.Z.E.U.#.1   v 5.f.",
"S.S.F.S.S.S.S.Z.K.c.  [ p.w.r.r.w.p.;.X   L F.G.C.Z.S.S.G.G.G.R.R.E.U.E.E.E.U.F.F.Z.Z.Z.S.S.S.S.S.S.S.Z.Z.Z.R.U.%.e   q 3.f.y.w.",
"S.S.S.S.S.S.S.S.F.B.. H p.e.e.e.y.w.i.2.$   a b.E.E.G.C.n.c.*.#.O.} }  .+.*.c.n.Z.U.E.R.F.Z.Z.Z.S.S.C.S.R.G.$.e   f 2.f.y.w.w.y.",
"S.S.S.S.S.S.S.S.Z.G.r v p.e.e.e.w.y.q.i.4.;   :  .U a @   X                     O z Y %.B.T.T.F.Z.S.U.K.%.t   0 2.i.y.w.r.r.r.w.",
"S.S.S.S.Z.S.S.S.Z.E.x 3 y.w.e.e.r.w.r.w.y.q.7       X 0 D ( [ ,.3.5.5.5.2.-.` J M & X   @ z +.Z.E.G.$.t   q ,.i.y.e.e.e.w.e.e.e.",
"S.S.S.Z.Z.S.S.S.Z.E.I # y.y.w.e.r.w.r.w.y.5.X $ V >.8.y.f.i.i.i.y.y.y.y.y.i.i.h.i.r.q.;.A 4   = U t   0 ,.i.i.w.w.y.e.w.y.e.e.e.",
"S.S.S.S.S.S.S.S.Z.R.+.X 7.y.w.e.e.e.y.y.y.5.H 5.p.i.y.w.w.w.r.w.r.r.w.w.w.w.e.w.w.y.y.y.f.y.5.K & f 2.f.y.w.w.r.e.e.y.w.e.e.e.e.",
"S.C.C.S.S.S.S.S.S.S.M.. [ i.y.w.y.e.3.3.q.f.h.e.w.e.w.r.e.r.w.w.r.w.e.e.r.w.r.r.w.r.r.w.w.e.y.f.y.y.y.w.e.y.r.r.e.e.w.y.y.e.y.e.",
"C.C.A.K.K.Z.Z.Z.C.S.Z.* J p.w.y.2.& o $ ; f { f.y.w.e.e.r.w.r.r.w.y.e.e.r.e.r.w.r.w.w.y.e.e.e.w.e.e.y.f.r.q.q.y.y.w.y.w.y.e.e.e.",
"S.M.L I b.T.S.m.N.N.G.t M f.w.i.J & 7.q.;.f   0 5.p.w.r.e.e.r.w.h.[ K i.w.e.e.e.w.y.w.w.e.w.y.y.f.r.>.H f 4 $ B w.w.w.y.e.e.e.e.",
"G.%.    . U S.K.S.N.E.P 4 y.r.r.7.7.i.f.j.{.5.f   ` f.w.w.w.w.i.` X >.i.w.r.e.r.y.w.r.w.y.f.y.>.Z f B J { 5.{   [ f.e.e.e.e.e.e.",
"S.C.* + 6   @ ! B.E.E.O.X q.y.w.r.f.7.[ J F ;.h.-.X A h.y.r.h.` + >.i.w.r.w.w.e.w.y.f.y.,.A 0 h ^ 4.y.f.f.r.h.( ;.y.e.e.e.e.e.e.",
"S.R.L   4.>.4   @ P M.z.X 2.y.r.q.g X O k E > & 2.q.; s n ,.3.( n f.w.r.r.r.i.y.i.q.J 7 ; D 2.y.i.y.r.w.e.w.e.e.y.e.r.e.e.e.e.e.",
"Z.K.l.  J h.y.>.g     ,   ` f.q.% i |.*X*X*X&X^.+ _ y.; D ` ] i.f 4.f.( >.4.D 5.Z & s >.f.h.f.f.y.w.w.r.e.e.e.e.e.e.e.e.e.e.r.e.",
"S.Z.U.a $ r.w.i.i.5.D 7   Z h.b k XX!.X.).*X*X*X XO >.f.i.w.w.y.4.7.f.[ ;.r.5 $ Z 6.9.S f 7 9 v 2.i.r.e.y.w.y.w.y.w.y.w.y.w.y.w.",
"F.Z.R.%.  -.i.w.w.y.p.p.( N r.3 |.).%XX.  Q.*X&X*X^.5 g._ 0 q.r.r.i.>.K 7.p.w.w.i.M d X./.).(...+ A y.w.w.y.w.y.w.y.w.y.w.y.w.r.",
"S.Z.G.U.e 0 i.w.e.e.w.e.e.y.[ k |.W .XR   O %X*X*X&Xd w.;.3.q.y.q.5.r.( $ 2.f.3.o ..XX X&X*X*X*X X  Z f.r.w.w.w.y.y.w.w.w.r.y.3.",
"S.S.Z.K.#.  2.y.w.e.e.e.w.f./ R .X        i &X*X*X@X7 q.h.,.J q.V 3.( 5.K _ h.& X.XXo...o ~.*X&X*X(.  2.y.w.y.y.w.y.y.w.y.w.i.D ",
"S.S.Z.S.U.t g p.e.e.e.e.e.y.2.p *XR       o.*X*X*XW 7 i.q.^ r.2.( i.7.Z i.i.,.d &XQ %X X  X $X*X*X*Xk C h.r.w.y.e.y.e.e.w.r.y.3 ",
"S.S.S.Z.R.*.X 2.y.e.e.e.e.e.p.v X.$XR . E &X*X*XX.  3.y.y.5.n $ 7 & ` q.q.f.S W &X- > o     _.*X&X*XQ.b h.w.w.y.e.w.y.w.w.i.>.  ",
"S.S.S.S.Z.E.l 0 p.w.e.e.e.e.e.e.b E /.'.%XXX^.p   ,.y.i.{   ; ^ J J   H i.i.G k *X>         '.*X&X*Xo.N h.w.w.y.e.e.w.y.w.f.M $ ",
"S.S.S.Z.Z.K.c.O >.h.w.e.e.e.e.e.i.=.V B s     0 7.y.i.`   n r.^ f ( 3.  ] h.2.  ).`.X     p &X*X*X.X- 2.y.y.y.w.y.e.e.e.y.w.$ K ",
"S.S.S.Z.S.B.E.P 4 -.8.y.e.e.e.e.w.i.f.w.n g 2.f.y.y.;.  K i.w.q.w.; w.` + q.f.f   '.%X^./.*X*X*X_.- H f.e.e.e.e.e.e.e.w.f.;.X 7.",
"S.S.S.S.S.S.S.B.:   s r.e.e.e.e.r.w.r.w.5.i.i.5.q.q.X J i.w.r.w.f.D A j.; Z f.7.$   Q !.^.Q.~ k $ ( y.e.e.e.e.e.y.w.e.w.i.n M f.",
"S.Z.Z.S.S.S.S.U.O.    V i.e.e.e.w.r.r.w.y.w.y.,.7 7 M f.w.e.e.e.y.7.>.f.` & w.y.3.;   5 q 8 b / e.f.w.e.e.e.e.r.e.e.e.y.q.$ ,.y.",
"B.C.N.C.S.S.S.G.B.= S + >.y.e.e.r.w.r.r.e.e.w.i.s   w.e.e.e.e.e.w.y.y.e.r.; _ i.i.w.Z g 3.h.f.h.>.` f.w.e.e.e.e.e.e.w.y.q.^ y.y.",
"C.S.S.K.S.K.S.N.x.$ 0.b g i.w.e.r.r.e.e.e.e.e.y.4.+ ,.i.w.e.e.e.e.e.e.w.f.Z f h.,.w.p.>.V ` w.p.`   ` f.e.e.e.r.e.e.e.e.y.y.e.y.",
"S.S.v.*.n.n.B.I.$.% a.-.o 8.e.e.w.r.e.y.e.e.y.w.f.D 6 y.w.r.e.e.e.e.e.e.y.>.& H 3 w.w.i.y.5.w.i.(   X 2.y.w.e.e.e.e.e.y.e.w.e.e.",
"S.S.Z.j   : w x 1 8 a.6.X 1.y.w.r.r.e.e.e.e.e.e.r.r.S q.y.w.r.e.e.e.y.w.y.w.4   ;.i.w.e.r.y.w.i.V C M s y.e.e.e.e.e.e.e.e.e.e.e.",
"S.C.L.D.t M 3.] o Z s.e.% f i.r.w.w.e.e.e.e.e.e.r.w.y.e.r.r.w.e.e.e.w.w.y.w.; A h.w.e.e.r.w.r.i.6 J q.  4.y.e.e.e.e.e.e.w.e.e.e.",
"S.S.Z.S.C.t ^ i.$ :.a.u.s + _ y.w.e.e.e.e.e.e.e.e.w.e.e.e.e.e.e.y.e.e.w.f.( f y.e.e.e.e.e.e.y.w.$ ( j.3 ^ i.w.w.y.e.e.e.e.e.e.e.",
"S.S.S.Z.G.n.w 3 ; e.u.u.7 H 5.e.e.e.e.w.e.e.e.e.e.e.e.e.e.e.e.e.e.e.e.e.e.q.e.y.e.e.e.e.w.e.y.7.+ 1.j.m f i.w.y.e.e.e.e.y.e.e.e.",
"F.Z.S.G.S.U.v.. 9 a.u.u.3 ( h.w.e.e.w.w.e.e.e.e.e.e.w.e.e.e.e.e.e.y.e.e.e.e.e.e.e.e.e.w.e.w.p.( % e.d.D 3 y.e.e.w.e.e.e.e.y.y.e.",
"S.S.L.F.L.C.R.O.o 0.u.a.s Z i.e.e.e.f.e.e.e.e.e.e.e.e.w.f.e.e.w.e.e.e.e.e.e.e.e.e.e.e.r.e.w.p.g f a.a.K ; e.e.e.y.e.y.e.e.e.e.e.",
"S.S.S.S.Z.F.[.&.o 0.t.d.Z f s.w.f.q.2.f.w.w.w.e.f.e.e.e.e.e.e.f.r.e.e.e.e.e.e.e.e.e.e.e.r.y.7.$ :.a.a.G 3 t.e.e.e.e.e.e.r.e.e.e.",
"S.S.S.S.G.c.P , o 9.t.d.G X >.i.` @   H f.w.e.e.q.e.f.e.y.e.e.e.e.e.e.r.e.e.e.e.w.e.e.e.w.y.5.+ 1.u.d.F ; e.e.e.e.w.e.e.e.e.r.r.",
"S.S.Z.F.x X 8 q $ 0.t.s.) X 8 5   ) `   q.f.e.w.f.e.w.w.e.e.e.y.e.e.e.e.e.r.e.e.e.r.r.r.r.w.y.4 ) d.a.=.% w.e.e.e.f.y.e.e.e.e.e.",
"S.S.S.K.e m }.) b a.e.d.G 4 6 o 2.j.r.& ^ f.w.w.w.e.e.e.e.e.e.e.e.y.e.r.e.r.r.r.r.e.w.r.y.p.y.3 G d.u.9.% 8.i.y.w.( 4.y.e.e.e.e.",
"S.Z.Z.R.l m k.' <.a.t.s.K   9 e.a.e.a.b 0 p.r.r.e.e.e.r.e.y.e.e.e.e.e.e.e.e.f.e.w.e.e.w.2.Z %   G s.t.t.% 9 8.2.- X % 5.y.e.e.e.",
"S.S.Z.I.u M d.t.t.t.t.d.m f d.t.t.t.a.1.o 5.r.r.e.r.e.e.e.e.e.e.e.e.e.y.e.e.w.w.e.w.f.Q   8 ' ; =.a.t.e.3 v %   N i.4 Z a.w.e.e.",
"F.S.S.F.< F j.e.t.t.t.a.) 1.a.a.6.S t.t.$ ^ p.w.e.e.e.e.e.e.e.e.y.e.e.e.w.e.e.e.e.e.p.-.$ a.u.4 9.a.u.e.6 9 o ' a.j.G ; y.y.e.e.",
"S.C.F.n.* 1.a.t.t.t.t.t.u.u.u.3.o m 0.d.G 6 t.r.e.e.e.e.y.e.y.e.e.e.e.e.w.f.e.e.e.e.i.>.$ e.9.[ u.t.u.t.$ % 6.a.t.u.7.X >.y.e.w.",
"C.N.A.T 2 t.t.t.t.t.t.t.t.t.u.6.O b 6.a.n   7.y.e.e.e.e.y.w.y.y.e.e.f.w.e.e.e.e.e.w.i.-.; e.t.u.t.t.a.1.% 0.a.u.t.7.a.7 V p.w.y.",
"S.C.E.x # e.a.t.t.t.t.a.t.u.t.s.^ % 6.6 $ >.y.w.e.e.e.e.e.y.w.w.f.e.e.e.e.e.e.e.y.w.f.D 5 a.t.t.t.t.a.9.=.u.u.0.Z :.k.) + r.y.w.",
"S.C.S.M.y # 6.a.e.t.t.t.t.t.t.t.u.4     >.h.w.e.e.e.e.e.e.e.w.y.w.e.e.e.e.e.f.e.w.w.f.s b d.t.t.t.u.t.t.a.t.u.6 # :.e.t.$ [ h.[ ",
"S.S.S.].].x   :.d.t.t.t.t.i.t.t.a.:.' g s h.e.w.e.e.e.e.e.e.y.y.e.e.e.e.e.e.w.w.e.y.7.+ -.a.t.t.t.t.t.t.t.u.a.F X <.u._   J f.7 ",
"S.S.S.D.].E.U   / d.t.t.t.t.t.t.u.j.}.b   n e.i.w.r.r.w.w.y.w.w.r.e.r.e.e.e.e.e.r.y.>.  D a.t.t.u.t.u.t.t.t.t.t.% S N   ( i.3.+ ",
"S.S.S.S.C.C.U.#.  C a.a.u.j.a.t.3.G q + | = & >.i.y.r.w.y.r.w.y.e.e.r.e.y.e.e.e.r.r.y.>.  b i.u.t.t.t.t.t.t.t.a.=.    g p.f.S r ",
"S.S.S.S.S.S.Z.E.z.@ q 9.3.G q & * , c $.E.B.L X 9 >.i.y.r.w.r.w.e.e.e.e.e.e.e.e.w.e.w.i.5.$ 7 w.a.t.u.t.t.t.t.t.0.:.:.% 7.h.M c ",
"S.S.S.S.S.S.S.C.R.n.1   + 1 c } n.Z.E.R.C.S.E.b.x X 0 2.p.y.w.r.e.e.e.e.e.e.e.e.w.r.e.r.y.w.7 $ 1.a.t.t.t.t.t.a.s.k.' % w.f.n ! ",
"S.S.G.G.G.S.S.S.Z.W.Z.@.x.A.G.A.G.S.C.Z.S.S.G.U.].c.x O q 2.f.r.w.r.e.e.e.e.e.e.r.e.e.e.w.y.y.h X :.s.a.d.a.8.<.S 7   D i.y.n #.",
"S.S.S.S.S.S.S.S.S.S.S.T.G.A.S.S.S.G.S.S.S.S.Z.C.Z.K.R.c.z X n 5.f.r.w.w.e.e.e.e.e.w.e.e.e.e.e.f.G   / >.S 9 X + 7 N -.r.r.y.h +.",
"S.S.S.S.S.S.S.S.S.S.S.C.S.S.S.S.G.L.U.S.Z.S.S.S.Z.Z.Z.K.R.z.l + N 7.f.y.e.e.e.e.e.e.e.e.e.e.e.w.p.` o + 6 A -.7.i.f.i.w.r.i.n +.",
"S.S.S.S.S.S.S.S.S.S.S.S.S.S.S.S.S.Z.S.Z.S.S.S.S.S.S.S.Z.C.R.R.z.a O V 8.p.y.e.e.e.e.e.e.e.e.e.w.e.i.8.w.i.a.i.r.y.w.w.r.w.p.n T ",
"F.S.Z.F.F.Z.F.Z.S.S.S.S.S.S.S.S.S.S.S.S.S.S.S.S.S.S.F.Z.S.Z.Z.R.R.*.l + A w.i.e.e.y.e.e.y.e.e.e.e.e.e.y.e.w.w.e.w.r.w.r.w.h.N c ",
"Z.Z.F.Z.Z.Z.F.Z.S.S.Z.Z.S.S.S.Z.S.C.S.C.S.S.S.S.Z.Z.S.S.Z.Z.Z.Z.C.R.R.&.t % J w.p.w.w.e.e.e.e.e.e.e.e.w.e.e.e.e.r.w.y.e.w.i.-.t ",
"F.Z.Z.Z.Z.Z.Z.F.S.S.S.Z.S.S.S.S.m.m.m.Z.S.S.S.S.Z.S.F.Z.S.Z.Z.Z.Z.Z.Z.G.A.@.r $ ] i.y.e.e.e.e.e.e.e.e.e.e.e.e.e.w.w.y.w.r.r.w.; ",
"Z.F.F.Z.Z.F.F.Z.S.S.S.S.S.S.S.C.S.Z.C.Z.S.S.S.S.S.Z.S.S.F.S.S.Z.Z.Z.Z.Z.C.K.G.} . f 7.p.w.e.e.e.e.e.e.e.e.e.e.e.e.y.w.y.w.r.i.N ",
"F.Z.Z.Z.Z.F.Z.Z.S.S.S.S.S.S.S.G.R.L.F.Z.Z.C.Z.F.F.F.S.Z.F.F.Z.S.S.S.S.L.G.S.S.E.x.r X _ f.y.q.e.e.e.e.e.e.e.e.e.w.r.r.w.r.r.r.4.",
"C.C.V.C.F.F.F.F.S.S.S.S.S.S.S.G.Z.F.Z.Z.C.C.C.Z.S.S.F.F.Z.C.S.F.F.S.S.F.S.G.S.V.V.C.U   0 8.f.w.e.e.e.e.y.e.e.e.e.r.w.r.7.r.i.w.",
"m.C.V.C.C.C.C.N.m.N.C.C.C.C.C.C.C.C.C.C.V.C.V.C.Z.C.C.m.V.C.C.C.Z.C.C.C.C.C.C.m.N.V.Y.c.t   ( f.y.e.e.e.>.w.y.w.y.w.r.y.2.n ,.y.",
"OX+XOXOXOXOXOXoXOXoXOX+X+XOXOX+XOXOXOXOXOXOXOXOXOXOXoXoXoXoX+XOXOX+XOXOX+X+X+XOX+XOXoX#X#X~.@ g 5.e.w.y.4.M 5.y.w.y.y.w.f.H   n "
};
