/* XPM */
static char *a6f54de1a8344c82cd268a776eccce23xc5A5xCTDMRdKIcZ[] = {
/* columns rows colors chars-per-pixel */
"64 64 186 2 ",
"   c #010102",
".  c #050908",
"X  c #0C0C11",
"o  c #110F1C",
"O  c #0F1118",
"+  c #121919",
"@  c #13251B",
"#  c #151921",
"$  c #1B1A2B",
"%  c #201D32",
"&  c #251F38",
"*  c #172A20",
"=  c #1C262A",
"-  c #1E322B",
";  c #1F2330",
":  c #223C2F",
">  c #232334",
",  c #26243B",
"<  c #29263E",
"1  c #272C39",
"2  c #262D39",
"3  c #243635",
"4  c #263438",
"5  c #29323D",
"6  c #263938",
"7  c #2A3B3C",
"8  c #363635",
"9  c #274437",
"0  c #2A443C",
"q  c #2D2645",
"w  c #2C2A44",
"e  c #2E2C4A",
"r  c #302C47",
"t  c #312E4B",
"y  c #2D3644",
"u  c #2D3D43",
"i  c #33344C",
"p  c #332E50",
"a  c #353252",
"s  c #393556",
"d  c #373954",
"f  c #393C55",
"g  c #3A365A",
"h  c #3E3A5E",
"j  c #3E3B62",
"k  c #403B5F",
"l  c #423C64",
"z  c #453E6B",
"x  c #2E4243",
"c  c #2E4D42",
"v  c #2F434A",
"b  c #314D46",
"n  c #33454C",
"m  c #344B4B",
"M  c #2E5343",
"N  c #33534A",
"B  c #345748",
"V  c #345D4A",
"C  c #364550",
"Z  c #374952",
"A  c #3C465A",
"S  c #3D5559",
"D  c #37644E",
"F  c #3C6455",
"G  c #3C6B54",
"H  c #4C4C4D",
"J  c #4F4F50",
"K  c #415F5D",
"L  c #575759",
"P  c #416D5E",
"I  c #41745C",
"U  c #43795D",
"Y  c #434264",
"T  c #4C4963",
"R  c #46416B",
"E  c #49446D",
"W  c #514F65",
"Q  c #505865",
"!  c #4B4573",
"~  c #4A4575",
"^  c #4E4875",
"/  c #4F4A7A",
"(  c #524A77",
")  c #524C7C",
"_  c #4C5271",
"`  c #56577B",
"'  c #447B61",
"]  c #4A7C65",
"[  c #6A6A69",
"{  c #6B6977",
"}  c #737374",
"|  c #7D7C7E",
" . c #478167",
".. c #498266",
"X. c #4B8469",
"o. c #4D8B6D",
"O. c #4F8C71",
"+. c #518C72",
"@. c #529373",
"#. c #559976",
"$. c #569B7A",
"%. c #599C7C",
"&. c #59A07D",
"*. c #544E82",
"=. c #594F87",
"-. c #565082",
";. c #595385",
":. c #5C548B",
">. c #5F588E",
",. c #5D5692",
"<. c #5E5A93",
"1. c #625B94",
"2. c #645C9A",
"3. c #695E9E",
"4. c #7E7E84",
"5. c #67609B",
"6. c #69619E",
"7. c #665FA1",
"8. c #6C64A4",
"9. c #6B65A8",
"0. c #6C65AB",
"q. c #7167AA",
"w. c #736BAD",
"e. c #766EB1",
"r. c #786FB4",
"t. c #766FB9",
"y. c #786FBC",
"u. c #7770B3",
"i. c #7971B6",
"p. c #7770BB",
"a. c #7B73BA",
"s. c #7F78BF",
"d. c #7B74C2",
"f. c #7F77C8",
"g. c #8077C0",
"h. c #8179C2",
"j. c #8179CA",
"k. c #5CA381",
"l. c #5FA985",
"z. c #5BB18B",
"x. c #60A785",
"c. c #60AB86",
"v. c #62AD89",
"b. c #64B38D",
"n. c #68B493",
"m. c #62BD97",
"M. c #6ABB94",
"N. c #65BE99",
"B. c #6CBE99",
"V. c #72BD9A",
"C. c #67C09A",
"Z. c #6CC39C",
"A. c #6CC89F",
"S. c #71C59F",
"D. c #6FC6A0",
"F. c #6FC9A2",
"G. c #72C6A0",
"H. c #76CAA4",
"J. c #79CAA6",
"K. c #77CFA8",
"L. c #7ACDA8",
"P. c #7BCDA8",
"I. c #7DCCA9",
"U. c #77D1A9",
"Y. c #79D1AA",
"T. c #7BD2AB",
"R. c #838381",
"E. c #8B8B8A",
"W. c #939394",
"Q. c #9D9D9D",
"!. c #A5A5A2",
"~. c #A7A8A3",
"^. c #B0B1AB",
"/. c #AFAFB0",
"(. c gray73",
"). c #82CEAB",
"_. c #85D1AE",
"`. c #C1C1BD",
"'. c #C9C9C9",
"]. c #D3D3CF",
"[. c #C7E7DA",
"{. c #C8E7DA",
"}. c #CEEBDE",
"|. c #D0ECDF",
" X c #ECECED",
".X c #FFFFFF",
/* pixels */
"G.G.G.J.J.G.G.S.G.J.I.J.Z.N.Z.Z.G.G.G.G.S.G.J.J.G.G.G.G.G.I.J.G.N.B.N.G.G.G.G.G.G.G.L.J.G.G.G.G.J.I.H.G.N.Z.Z.G.G.S.G.G.S.J.J.H.",
"G.S.H.H.G.G.G.G.G.J.G.K.C.Z.Z.Z.S.G.S.G.G.G.J.G.G.G.G.G.J.H.J.G.N.G.N.G.G.G.S.G.G.H.H.G.G.G.G.G.I.H.J.N.Z.B.D.G.S.S.S.G.G.J.G.H.",
"G.G.S.S.G.G.G.G.G.G.G.G.G.G.G.G.H.J.H.G.G.G.S.S.S.G.G.G.G.G.G.G.G.G.G.G.J.J.G.G.G.G.G.G.G.G.G.G.G.G.G.G.G.G.G.H.J.H.G.G.G.G.G.S.",
"G.G.G.G.G.G.G.G.G.G.G.G.G.G.G.G.J.H.J.G.G.G.G.G.G.G.G.G.G.G.G.G.G.G.D.H.H.J.G.G.G.G.G.G.G.G.G.G.G.G.G.G.S.G.G.H.H.J.G.G.G.G.G.G.",
"G.G.G.G.G.G.G.G.G.G.G.G.G.G.G.G.G.Z.G.G.G.G.G.G.G.G.G.S.G.G.G.G.G.G.G.F.G.G.S.G.G.G.G.G.G.G.G.G.G.G.G.G.G.G.G.G.Z.G.G.G.G.G.G.G.",
"G.G.G.G.G.G.G.G.G.G.G.G.G.G.G.G.G.G.G.G.G.G.G.G.G.G.G.G.G.G.S.G.G.G.G.G.G.G.S.G.G.G.G.G.G.G.G.G.G.G.S.G.G.G.G.G.G.G.G.G.G.G.G.G.",
"G.G.G.G.G.G.G.G.G.G.S.S.G.S.S.S.Z.Z.Z.G.G.G.G.G.S.G.G.G.G.G.S.G.G.G.G.G.Z.N.S.G.G.G.S.G.G.G.G.G.G.G.S.G.G.G.G.Z.N.G.D.G.G.G.G.G.",
"G.G.G.G.S.G.G.G.G.G.S.S.S.G.K.G.m.C.m.S.G.G.S.S.G.G.G.G.G.S.S.S.S.G.G.Z.N.N.B.G.G.G.G.A.G.G.G.G.G.S.G.G.G.G.D.N.B.N.G.G.G.G.V.G.",
"G.S.G.S.G.G.G.G.G.G.G.S.H.l.] H.L.G.G.G.G.G.G.G.G.G.G.S.G.G.G.G.G.G.G.G.G.G.G.G.G.G.G.S.G.G.G.G.S.J.Z.S.G.G.G.G.G.G.G.G.G.G.G.G.",
"G.S.S.S.G.G.S.S.G.G.G.S.L.%.. M G._.G.G.G.Z.S.G.G.S.G.S.G.G.G.G.G.G.H.J.J.J.S.G.Z.S.S.G.G.G.S.J.T.X.P G.G.S.I.J.H.H.D.G.N.G.G.G.",
"C.Z.C.S.G.G.S.S.Z.G.G.S.J.k.1 q : n.K.Z.B.Z.C.G.G.G.S.S.A.S.G.G.G.G.G.G.G.G.G.B.m.B.S.S.Z.H.T.&.B > X.L.G.G.G.S.G.G.D.B.N.B.G.G.",
"S.S.S.S.S.G.S.N.C.N.A.G.K.v.5 q.h @ k.U.Z.S.S.A.G.G.Z.N.N.Z.S.S.G.G.G.G.G.S.G.A.F.S.S.G.T.b.D 5 ) _ v.H.S.G.G.G.G.G.G.N.G.S.S.G.",
"G.S.S.G.J.S.S.S.S.Z.S.G.G.Z.3 3.d.E + o.L.D.G.H.G.S.S.S.Z.S.S.S.G.G.G.G.G.G.G.S.S.S._.V.G 3 E w.q.S G.G.G.G.G.G.G.G.G.G.G.G.G.G.",
"G.S.I._.).I.S.S.G.G.G.G.G.G.0 >.i.a.( X I I.)._._.T.K.J.T.J.J.H.G.S.S.S.G.G.S.G.L.S.] 7 l 8.a.a.) X.K.G.G.S.G.G.G.G.G.G.G.I.).).",
"G.S.G.I.I.J.G.G.G.G.G.G.S.J.B ) a.w.a.:.X 0 I.I.V.c.&.@.@.#.k.v.B.L.T.K.S.G.T.Z.U 7 g 6.i.u.w.e.Y c.K.S.G.G.G.G.G.G.G.G.S.J.J.I.",
"G.S.S.S.A.S.G.G.G.G.G.G.S.T.I l a.e.w.i.3.+ @ : # = y i i i w = - c U v.K.B.U 3 g 3.a.i.w.e.a.3.S S.G.G.G.S.G.G.G.G.G.S.S.S.S.S.",
"G.G.S.S.S.G.G.G.G.G.G.G.G.L.o.d p.e.i.i.d.i > ) 8.q.u.a.i.a.e.w.3./ g 5 b 6 a 3.a.u.e.e.u.w.a.( ..L.S.S.S.S.S.G.G.G.G.G.G.G.S.S.",
"G.G.S.J.J.G.G.G.G.J.T.H.B.F.$.y e.u.8.:.1.q.h.a.u.u.w.u.i.w.u.u.r.a.g.w.:.6.h.h.a.e.e.u.e.u.u.f l.T.G.S.Z.A.Z.G.G.S.G.G.S.H.I.J.",
"G.G.J.J.J.G.G.S.J.V.+.J.K.Z.b.u 8.u.a h k r ) a.w.e.i.q.>.e.e.e.e.w.u.a.a.8.;.k E w.u.e.e.a.2.m H.H.J.A.C.C.Z.S.G.S.G.G.G.J.G.J.",
"G.G.S.S.S.S.G.S.L.@.  *  .G.T.N ,.r.w.e.2.*.t l u.a.w.s ) i.u.e.a.a.6.( Y E ) 1.a >.i.u.w.a.E U J.S.S.S.J.J.S.J.J.H.S.G.G.G.S.S.",
"G.G.G.G.G.G.G.G.S.M.- l & - ..B ) i.T k [ Q E l i ) *.h a.8.q.w.>.l l ;.w.i.i.a.e.w.e.e.e.r.i &.H.G.T.H.%.c @.T.G.H.G.G.G.G.G.G.",
"G.G.G.G.G.G.G.G.S.T.V E h.;.i O l ( [ Q.'..X^.T ;.) 8.5.6.:.-.s l l T R -.e.e.e.e.e.e.e.i.>.b T.L.b.G @   @ B.S.S.S.G.G.G.G.G.G.",
"G.G.G.S.G.G.G.G.S.J.l.1 q.a.s.8.=.W ~.Q.O (..XW.;.-.8.u.1.E 8.:.W | `.].} g u.u.e.e.e.w.a.R G #.9 + % ! q ..T.S.G.G.G.G.G.G.G.G.",
"G.G.G.G.S.G.G.G.S.S.U.V ( i.w.a.8.{ [     /..XE.) 8.;.) 1.^ 1.T ~.W.J  X.XL ( a.w.e.e.u.u.> + , l 3.s.8.7 Z.S.Z.B.S.G.G.G.G.G.G.",
"H.G.G.S.S.H.S.S.H.S.J.c.y w.e.u.e.` E.8 [ .X~.i r.;.t a k w.1.4.} 8   W..X(.T i.e.e.e.a.>., 3.i.h.u.a.a X.T.Z.N.N.m.G.G.G.G.S.S.",
"S.G.G.S.S.G.H.S.S.S.S.T.G ~ d.w.e.w.;.{ } H r w.-.& l k t E 2.L R.  X '..XE.*.a.e.e.w.a.k E a.e.w.a.>.0 S.G.S.G.G.G.G.G.G.G.G.G.",
"S.S.S.G.S.S.S.S.G.S.S.G.M.4 Y i.e.e.i.9.z ! i.1., 6.g.) ( a 1.s L Q.!.].| l w.e.e.e.u.q.i 6.i.e.w.a.s O.J.S.H.H.H.G.G.G.B.G.G.G.",
"Z.Z.C.A.H.S.S.S.S.S.S.S.K. .. ~ r.e.e.r.a.h.R > 6.i.e.w.5.;.k i.q > ( E / e.r.e.e.e.a.>.E r.e.e.a.;.B G.G.S.G.G.H.G.Z.N.N.N.S.G.",
"Z.S.Z.S.S.S.S.N.C.C.G.U.T.&.g t 6.i.e.e.w.i.>.r w.e.e.e.i.e.a 1.w.;.) s.;.t w.u.e.e.e.w.w.e.e.e.e.i %.H.S.G.G.G.G.G.G.V.G.Z.G.G.",
"G.S.S.S.S.S.S.S.S.S.o.B ] M *.j ) a.e.e.e.e.i.( >.i.e.e.e.a.R $ 2.a.0.i.^ o ( i.e.e.e.e.e.e.w.h.( F T.K.L.G.S.G.G.G.G.G.G.D.G.S.",
"S.S.H.)._.J.S.S.S.G.n.x z , 8./ < w.e.e.e.e.e.u.e.e.e.e.e.i.R E a.w.e.i.l ~ a q.e.e.e.e.e.e.i.8.3 %.l.k.k.B.G.G.G.G.S.S.S.J.).I.",
"G.S.G.I.I.H.S.S.G.S.J.M.m q t.*.a w.e.e.e.e.e.e.e.e.e.e.e.w.3.e.u.u.r.e.i 6.g 1.i.e.e.e.e.e.e.g = u y , 0 B.G.G.G.G.G.G.S.G.S.).",
"G.G.G.S.G.G.G.G.G.G.G.T.z.y d.*.E a.i.r.e.e.e.e.e.e.e.e.e.e.i.e.w.u.i.5.i t.j ;.a.w.u.e.e.i.>.( w.w.3.S n.H.G.G.G.S.G.G.G.G.G.Z.",
"G.S.G.G.S.G.G.G.G.G.G.M.o.w 0.,.t w.E k w.u.e.e.e.e.u.e.e.e.e.e.u.w.a.( l g.g ;.i.u.u.e.u.e.w.e.a.8.Z v.H.G.G.G.G.G.G.G.G.S.G.G.",
"G.G.G.H.K.G.G.G.G.H.G.v i e t.7.% % k t ( a.e.e.e.e.u.e.e.e.e.e.e.e.g.:.j f.l *.g.8.q.e.e.e.e.i.7.u x.J.N.D.N.G.G.G.G.G.G.G.J.H.",
"G.G.H.H.H.G.G.G.H.L.Z.C 7.:.d.<.$ ! j.>.s i.w.e.e.u.u.e.u.e.e.e.u.w.) , p j.~ t *.w s e.e.e.i.6.y %.T.B.Z.B.D.G.G.Z.G.G.G.J.H.H.",
"G.G.G.G.G.G.G.G.G.G.M.C 0.p.d.<.*.d.:.9.a 3.u.e.e.u.e.e.u.e.e.e.p.:.e j ~ f.*.X , 7.a ;.i.i.8.> o.L.Z.G.G.G.G.G.J.H.D.G.G.G.G.V.",
"G.G.G.G.G.G.G.G.G.K.#.h p.t.t.t.d.,.$ 9.s ( a.e.e.e.e.u.e.u.e.e.a.:.j t.9.f.R a y.f./ j i.w.5 U L.G.G.G.G.G.G.H.H.J.G.G.G.G.G.G.",
"G.G.G.G.G.G.G.G.G.K.X.e t.p.t.t.p.0.w w r 5.e.e.e.e.e.u.w.u.e.e.a.-.j d.t.p.<.t.<.~ 9.t w.! D J.G.G.G.G.G.G.G.G.G.G.G.G.G.G.G.G.",
"G.G.G.G.G.G.G.Z.G.G.G.' i 8.d.t.t.d.9.e a i.i.e.e.e.e.e.u.e.e.w.i.d *.d.t.t.y.d.~ w 2.< :.Z n.H.G.G.G.G.G.G.G.G.G.G.G.G.H.G.G.G.",
"G.G.S.G.S.G.G.G.G.G.G.H.o.y 2.d.y.9.,.j - d 3.i.e.e.e.e.e.e.e.e.i.~ t 9.d.t.t.t.w.p # *.:.G K.S.G.G.S.G.G.G.G.Z.N.G.G.G.G.G.G.G.",
"G.G.G.G.S.G.G.S.G.G.S.S.T.%.u l f v M ] N.O.x z 6.i.i.e.e.u.e.e.e.i.( w 2.d.t.d.d.0.e :.) o.K.S.G.S.S.G.G.G.Z.m.m.m.D.G.G.G.G.G.",
"G.G.G.G.S.G.G.G.G.G.G.S.S.L.b.X.k.B.D.K.G.K.B.X.n Y 8.a.u.e.e.e.w.u.a.,.w *.w.>.~ g a 9.^ #.J.S.G.S.G.G.G.G.G.G.G.B.G.G.G.G.G.S.",
"G.G.G.S.G.G.G.G.G.G.G.G.G.S.G.T.T.L.G.D.S.Z.G.K.M. .n E 8.i.i.e.u.u.w.a.3.t a s ! ;.8.s.E #.T.S.G.G.G.G.G.G.J.J.H.G.G.G.Z.V.D.G.",
"N.Z.B.Z.G.G.G.S.Z.G.G.G.G.G.S.G.S.G.S.S.C.Z.N.S.G.T.M.' n ^ q.y.u.w.e.e.r.q.8.e.i.a.e.a.) O.J.A.S.G.G.G.G.G.G.G.G.G.S.N.N.N.G.G.",
"G.Z.D.S.G.G.S.m.N.N.A.G.G.G.G.G.G.G.S.S.A.S.S.S.S.S.Z.C.z.' Z ( e.i.w.e.e.e.u.e.e.e.w.a.>.P A.N.N.Z.G.G.G.G.G.G.G.G.S.Z.G.D.G.G.",
"G.G.G.S.G.G.G.B.S.B.S.G.G.G.G.G.G.G.G.G.G.G.S.G.S.S.G.N.Z.F.n.G i 2.i.e.e.u.e.e.e.u.e.u.q.Z z.G.N.S.G.G.G.G.G.G.G.G.G.G.S.S.G.G.",
"G.G.G.).).H.G.G.G.G.G.G.G.G.G.G.G.G.G.G.S.S.I.).).G.G.G.G.G.H.H.@.0 ! e.a.w.w.u.u.w.u.q.i.;.] L.G.G.G.G.G.G.G.G.G.G.S.S.G.J.).I.",
"G.G.G.L.I.J.S.G.G.G.G.G.G.G.G.G.G.S.G.S.G.S.I.J.I.G.S.G.G.G.G.G.J.M.G i 1.a.q.;.w.u.u.6.s ;.A c.J.G.G.G.G.G.H.G.G.G.G.G.Z.J.G.).",
"G.G.S.G.Z.S.G.G.G.G.G.G.G.G.G.G.G.G.G.G.G.G.S.S.S.S.G.G.G.G.G.G.S.G.K.#.x E i.) t 8.i.i.R 3 n 0 B.G.G.G.G.G.G.G.S.S.G.G.G.G.S.Z.",
"G.G.G.G.S.G.G.G.G.S.S.S.G.G.G.G.S.S.G.G.G.G.G.G.G.G.G.G.G.S.G.G.G.S.S.J.M.G d 3.s = ,.i.i.A @.+.k.H.G.G.G.G.G.G.S.G.G.G.G.G.S.S.",
"G.G.G.G.H.G.G.G.G.J.J.G.G.Z.Z.Z.G.S.G.G.G.G.G.H.G.G.G.G.G.J.H.G.Z.A.A.S.G.K.%.m z > F ` w.8.Z V.H.H.G.G.Z.B.S.G.G.G.G.G.S.G.I.G.",
"G.G.H.J.H.G.G.S.H.J.J.J.B.N.Z.Z.G.S.S.G.G.G.J.G.J.G.G.G.J.J.L.G.N.Z.B.F.S.S.H.B.' > 9 %.K 7.=.V J.J.J.B.Z.Z.N.G.S.S.G.G.G.J.J.J.",
"G.G.G.G.G.G.G.G.G.G.G.G.G.F.G.G.G.J.G.G.G.G.G.G.S.G.G.G.G.G.G.G.S.S.G.S.H.J.S.G.J.&.: I M.S >.l X.J.Z.D.G.G.G.G.J.G.G.G.G.G.S.S.",
"G.G.G.G.G.G.G.G.G.G.G.G.G.G.G.S.J.J.J.G.G.G.G.G.G.G.G.G.G.G.G.G.G.G.S.G.H.J.G.G.G.J.B.X.n.S.] l > k.J.G.G.G.G.H.H.J.G.G.G.G.G.G.",
"G.G.G.G.G.G.G.G.G.G.G.G.G.G.G.S.G.G.G.G.G.G.G.G.G.G.G.G.G.G.G.G.G.G.G.G.S.G.G.G.G.G.G.H.S.G.G.%.* V K.G.G.G.G.F.G.G.G.G.G.G.G.G.",
"S.S.S.S.S.S.S.H.G.G.G.G.S.G.G.G.G.G.G.G.G.G.G.G.G.G.G.G.G.G.S.G.G.G.G.G.G.G.G.G.G.G.G.G.G.G.G.H.V.B.G.G.G.G.G.G.G.G.G.G.G.G.G.G.",
"S.H.S.H.S.S.H.S.G.G.S.S.G.G.G.G.S.Z.G.S.G.G.S.G.S.G.G.S.S.G.S.G.G.G.G.G.Z.Z.G.G.G.G.G.S.S.G.G.G.G.G.A.G.G.G.S.G.Z.S.G.G.G.G.G.D.",
"H.S.S.S.S.S.S.S.G.G.F.S.G.G.G.S.N.m.N.Z.G.G.G.S.S.G.H.S.G.S.S.S.G.G.G.C.N.m.Z.G.G.G.G.A.S.S.G.G.G.G.S.G.G.G.S.B.m.m.G.G.S.G.S.S.",
"H.S.S.S.S.H.H.G.G.G.S.G.G.G.G.S.Z.S.Z.S.G.G.G.G.G.G.G.G.G.G.G.S.G.G.G.S.G.Z.S.G.G.G.G.G.G.G.G.G.G.G.G.G.G.G.S.S.G.Z.G.G.G.G.S.G.",
"S.S.S.S.S.S.G.S.G.G.G.G.G.G.G.J.T.L.J.S.S.S.G.S.G.G.H.S.G.G.G.G.G.G.G.J.H.J.G.G.Z.G.G.G.G.G.G.G.S.G.G.G.G.G.H.J.H.G.S.G.Z.G.G.G.",
"S.S.C.Z.H.S.H.S.S.G.G.S.G.G.G.G.G.G.S.S.Z.Z.C.S.G.G.J.G.G.G.G.H.G.G.G.G.G.G.G.Z.m.N.Z.G.G.G.G.G.G.G.G.G.G.G.G.G.H.G.D.B.N.N.G.G.",
"C.C.C.Z.Z.Z.Z.N.N.C.C.S.Z.Z.D.S.Z.Z.S.C.N.C.C.Z.S.A.M.C.m.C.Z.A.S.S.Z.Z.Z.Z.S.N.N.B.Z.Z.A.Z.C.m.B.C.S.A.F.Z.Z.Z.Z.Z.Z.m.Z.N.Z.Z.",
"|.}.|.}.}.}.}.[.}.{.}.|.|.}.}.}.}.|.}.|.|.|.}.}.}.|.{.[.{.{.|.}.}.}.}.}.|.|.}.|.}.|.|.}.|.|.[.{.[.}.|.}.}.}.|.}.|.|.}.|.}.|.}.|."
};
