/* XPM */
static char *_3a431bd7e25436df6c3c35397f899b1LOsnQ10BKkMk0NtR[] = {
/* columns rows colors chars-per-pixel */
"64 64 223 2 ",
"   c #000000",
".  c #0B0401",
"X  c #040907",
"o  c #0D0A02",
"O  c #02050B",
"+  c #030B0A",
"@  c #090E0B",
"#  c #110201",
"$  c #120B01",
"%  c #190D00",
"&  c #110F0C",
"*  c #0B110C",
"=  c #1C1102",
"-  c #191707",
";  c #080B11",
":  c #0A1515",
">  c #171917",
",  c #281700",
"<  c #22130F",
"1  c #321E03",
"2  c #3A1E00",
"3  c #1F2704",
"4  c #14231B",
"5  c #25240C",
"6  c #3C2302",
"7  c #3F280A",
"8  c #1A1F26",
"9  c #172D26",
"0  c #192E25",
"q  c #282625",
"w  c #302A23",
"e  c #273529",
"r  c #253E33",
"t  c #353739",
"y  c #670000",
"u  c #730807",
"i  c #492801",
"p  c #493509",
"a  c #593302",
"s  c #643901",
"d  c #6C3D00",
"f  c #733D00",
"g  c #284637",
"h  c #2C4B3C",
"j  c #32493B",
"k  c #764502",
"l  c #7A4500",
"z  c #7E4902",
"x  c #6E4D11",
"c  c #797601",
"v  c #544F2F",
"b  c #676430",
"n  c #373C45",
"m  c #2F4F40",
"M  c #2E5444",
"N  c #365743",
"B  c #39614C",
"V  c #2E6455",
"C  c #3A6652",
"Z  c #3B6956",
"A  c #4C4A4A",
"S  c #51514F",
"D  c #625F5D",
"F  c #416C57",
"G  c #44745D",
"H  c #7B7158",
"J  c #516F62",
"K  c #487B64",
"L  c #696968",
"P  c #6C7371",
"I  c #7A7977",
"U  c #8F0101",
"Y  c #960303",
"T  c #CC0000",
"R  c #E30100",
"E  c #EB0000",
"W  c #F20000",
"Q  c #FE0000",
"!  c #834A01",
"~  c #824906",
"^  c #8A4D00",
"/  c #8B5103",
"(  c #935300",
")  c #995700",
"_  c #9D5900",
"`  c #945A0A",
"'  c #855414",
"]  c #A45E01",
"[  c #A66707",
"{  c #AD6200",
"}  c #B46903",
"|  c #BC6B01",
" . c #A87701",
".. c #815D2E",
"X. c #C26E00",
"o. c #C47101",
"O. c #CB7300",
"+. c #CF7801",
"@. c #D17600",
"#. c #D47901",
"$. c #DD7E00",
"%. c #F27E00",
"&. c #8C704C",
"*. c #817E7E",
"=. c #7D8314",
"-. c #4C846B",
";. c #4D8C72",
":. c #558E73",
">. c #569578",
",. c #878802",
"<. c #A29E00",
"1. c #B09000",
"2. c #9FA007",
"3. c #A9A800",
"4. c #B2B000",
"5. c #C89900",
"6. c #E38100",
"7. c #EC8600",
"8. c #EF8800",
"9. c #F88704",
"0. c #F48A00",
"q. c #FC8E00",
"w. c #FE9100",
"e. c #FF9A00",
"r. c #FE950B",
"t. c #C9AA00",
"y. c #FFA300",
"u. c #FDB307",
"i. c #D5CF00",
"p. c #EFD100",
"a. c #FFD400",
"s. c #E9E200",
"d. c #FFE900",
"f. c #FDF400",
"g. c #FFFE00",
"h. c #80807F",
"j. c #928776",
"k. c #BB9868",
"l. c #CB944D",
"z. c #F3AC4E",
"x. c #D2A76F",
"c. c #F6BA6D",
"v. c #FDC378",
"b. c #757880",
"n. c #7E8283",
"m. c #5EA383",
"M. c #56B98D",
"N. c #5EBB95",
"B. c #63AC8B",
"V. c #67B391",
"C. c #6EB192",
"Z. c #69B592",
"A. c #62BD96",
"S. c #6BBA96",
"D. c #65BF99",
"F. c #6CBE99",
"G. c #67C299",
"H. c #66C19A",
"J. c #6CC29C",
"K. c #71C59F",
"L. c #6DCBA1",
"P. c #72C6A0",
"I. c #7BC5A4",
"U. c #75C9A4",
"Y. c #79CAA6",
"T. c #7CCCA9",
"R. c #7AD3AB",
"E. c #78D5AC",
"W. c #7FD8B1",
"Q. c #848483",
"!. c #8C8C8B",
"~. c #979593",
"^. c #94A39C",
"/. c #A3A09F",
"(. c #9C9FA5",
"). c #9BB4A8",
"_. c #A7A7A5",
"`. c #AEB1AA",
"'. c #B6B5B5",
"]. c #CFBFA7",
"[. c #82CBAA",
"{. c #88CBAD",
"}. c #90C9AF",
"|. c #8BD3B3",
" X c #91D2B5",
".X c #9BD5BB",
"XX c #A6D0BC",
"oX c #83E2B6",
"OX c #86E8BC",
"+X c #FECF8B",
"@X c #FFEAB2",
"#X c #9EDAC0",
"$X c #BDC0C4",
"%X c #ACDBC6",
"&X c #B5D7C7",
"*X c #B5DECB",
"=X c #B5E1CD",
"-X c #BAE2CF",
";X c #BBE1D0",
":X c #BEE9D6",
">X c #C3C3C2",
",X c #CACBCC",
"<X c #CFD1CF",
"1X c #C7D1D0",
"2X c #D3D3D3",
"3X c #D8D8D9",
"4X c #E0DDDD",
"5X c #C5E9D9",
"6X c #D7E4DE",
"7X c #D1EADF",
"8X c #FFE7C1",
"9X c #DDDEE1",
"0X c #D6ECE2",
"qX c #D8F2E6",
"wX c #E5E6E4",
"eX c #EDECEC",
"rX c #E7F2ED",
"tX c #F3F1EC",
"yX c #E9F9F5",
"uX c #F2F2F3",
"iX c #F7F9F6",
"pX c #FEFFFF",
"aX c #FFFFFF",
/* pixels */
"I.J.F.K.K.K.F.K.F.F.U.K.F.F.D.F.K.F.J.K.F.F.J.F.K.F.F.K.J.K.K.K.F.F.F.J.F.J.F.J.J.J.P.K.F.F.F.F.P.P.F.F.F.F.D.J.F.K.F.F.F.P.K.F.",
"[.P.P.Y.Y.U.K.P.P.T.T.[.P.A.D.F.P.P.P.P.P.P.T.U.T.P.P.K.Y.T.T.P.D.J.D.P.P.U.P.P.P.T.T.Y.U.P.P.U.T.T.Y.J.J.D.P.P.P.P.P.P.Y.T.I.U.",
"[.K.P.U.U.K.K.K.K.P.P.U.P.J.P.J.P.P.P.K.P.K.P.P.P.P.P.K.P.P.P.K.J.K.J.P.P.P.P.P.J.U.P.P.P.P.P.P.U.P.U.J.K.F.P.P.P.P.P.P.P.P.P.P.",
"[.K.P.K.P.P.P.U.P.P.P.P.P.P.P.P.U.T.T.P.P.P.P.P.P.P.P.P.K.K.U.K.P.P.P.U.T.T.P.K.P.K.P.P.P.P.P.P.P.P.P.P.P.P.U.Y.T.U.P.P.P.P.P.P.",
"[.K.P.P.P.P.P.P.P.P.P.P.P.P.P.P.P.P.Y.K.K.U.P.P.P.P.P.P.P.P.K.U.P.P.P.P.P.P.P.P.P.P.K.P.P.P.P.P.P.P.P.P.P.P.P.P.P.P.P.P.P.P.P.P.",
"[.K.P.P.P.P.P.P.P.P.P.P.P.P.P.P.K.K.K.U.K.U.P.P.P.P.P.P.P.P.U.K.P.P.P.P.P.P.P.P.P.U.U.U.J.L.P.P.P.P.P.K.P.P.P.P.P.P.P.P.P.P.P.P.",
"[.J.P.P.P.P.P.P.P.P.P.P.P.P.P.P.U.J.P.P.K.P.K.K.P.P.P.P.P.K.K.U.P.P.P.P.P.P.P.P.P.V.m.S.{.{.{.{.U.P.P.P.P.P.P.P.P.P.P.P.P.P.P.P.",
"[.K.P.P.P.P.P.P.P.P.P.P.P.P.P.J.J.N.H.J.K.U.J.U.P.U.P.U.Y.U.J.K.P.P.P.J.D.A.K.P.R.m   P pXpXpXiX XJ.P.P.P.P.J.D.D.J.P.P.P.P.P.P.",
"[.J.P.P.K.K.K.P.P.P.P.P.P.P.P.P.P.D.D.P.P.P.K.F.S.S.S.F.S.F.U.I.P.P.P.J.P.D.J.S.J.j   L pXeXpXpX XJ.P.P.P.P.J.J.J.D.P.P.P.P.P.P.",
"[.P.P.P.P.K.U.P.P.P.P.P.P.P.P.U.T.Y.U.P.P.P.S.> @ @ @ * X e eXyX|.J.P.Y.U.U.S.> + Y Q Y + q tXpX XJ.P.P.P.U.T.I.U.P.P.P.P.P.P.P.",
"[.J.J.P.P.U.K.K.P.P.P.P.P.P.P.P.Y.Y.U.L.J.L.D.O           8 pXpX{.H.P.Y.U.W.J.+ . Y Q U   > eXpX XJ.P.P.P.P.Y.P.Y.P.J.D.H.J.K.P.",
"T.D.J.H.K.K.U.J.H.J.J.P.P.P.P.P.J.J.P.U.;.g h ` _ _ _ _ _ ` D L &X0X.XP.m.h j Y Y T Q Y   > eXpX|.U.P.P.P.P.P.P.P.P.J.D.J.J.P.P.",
"[.J.P.P.P.K.U.J.H.H.J.P.P.P.P.P.E.E.T.W.-.  . q.e.e.e.w.e.6.    2XpX=XL.:.  . Q Q Q Q U   : pXpX[.A.J.P.P.P.P.P.P.K.K.P.P.P.P.P.",
"[.J.P.P.T.Y.K.K.P.K.P.P.P.P.P.J.K F Z K g   $ 7.w.q.w.q.w.#.o @ <XpX*XL.:.  # E Q Q Q T y u !.!.XX=X XJ.P.P.P.U.P.P.P.K.P.Y.[.P.",
"[.P.P.{.[.{.P.P.P.P.P.P.P.P.Y.J.+           o 8.w.w.w.w.e.$.    ,XpX*XL.:.  # E Q Q Q Q Q W X   >XpX-XG.P.P.P.P.P.P.P.P.U.[.[.T.",
"[.K.P.P.P.P.P.P.P.P.P.P.P.J.B.B.5 , o   o = , 8.w.q.q.7.6.o.8 q 2XpX*XL.:.  # E Q Q Q Q Q R . O >XpX=XG.P.P.P.P.K.P.P.P.P.P.P.U.",
"[.J.P.P.K.P.P.P.U.K.K.K.R.>.X o #.w.d   a w.0.q.q.q.e.^   w eXuXpXpX-XL.:.  # E Q Q Q Q Q E .   >XpX=XG.P.P.P.P.K.P.P.P.K.P.P.P.",
"[.K.P.P.P.P.P.P.K.K.Y.J.U.>.  # $.y.k   s w.w.w.w.0.e.z   q uXpXpXpX*XL.:.  # E Q Q Q Q Q R # X >XpX=XG.K.P.P.P.P.P.P.P.K.P.P.K.",
"[.K.U.U.Y.Y.K.P.K.U.|.G : 7 5.#.0.w.6.O.6.q.q.w.w.d , =   q uXpXiXpX%XL.>.  # R Q 9.d. .% 2 >X<XeXpX-XA.J.D.K.P.P.P.P.P.U.Y.Y.U.",
"[.K.K.P.P.P.K.U.K.U.W.C   6 q.r.w.w.w.e.w.w.q.w.w.6       8 pXpXpXpX%XH.;.  . Q Q e.g.,.O : pXpXpXpX:XM.G.J.K.P.P.K.P.P.U.U.P.P.",
"[.K.K.K.P.P.P.U.J.J.R.C   6 q.w.w.w.w.q.w.w.q.q.w.{ ! ^ ^ ' I I wXpX0X5X}.F F u u 5.g.t.~ ~ I I I P ).5XXXP.U.Y.Y.U.P.P.P.P.P.P.",
"[.J.U.K.P.P.P.K.U.U.oXC   1 q.w.q.q.w.q.w.w.w.e.w.e.e.e.y.6.    2XpXpXpXrXW.P.    3.g.a.e.0.        b.pXyXJ.J.P.U.P.P.P.P.P.P.P.",
"[.K.K.U.U.K.K.P.U.>.;.v i l q.w.w.w.w.w.w.w.0.{ ] 6.q.q.w.$.a a ~._.2XpX0XD.S.m r =.3.5.q.7.a a =   S '.`..X.XP.P.P.P.P.P.P.P.P.",
"[.K.U.K.K.U.K.U.Y.0   z y.w.w.q.w.q.w.q.w.w.8..   { e.q.w.w.w.w.,   I pX7XP.P.Y.E.g   s e.q.e.w.2       t pXpXT.D.P.P.P.P.P.P.P.",
"[.K.U.K.K.U.K.S.S.e   / e.q.q.w.w.w.q.w.9.8.$.< * | w.w.w.w.w.0.6   h.pX7XN.J.K.Y.N   x 0.7.q.q.i   % . t eXeXI.F.U.K.P.P.U.K.K.",
"[.J.U.K.P.P.Z.: X } 0.0.w.q.w.q.q.w.q.e.{   > 4XuXz.q.w.q.w.w.0.1   h.pX7XD.J.P.K.F.J.G   , 0.w.8.7.8.0.X.@ > 9XpX%XJ.P.P.P.K.K.",
"[.K.K.K.K.Y.V.X   | e.w.w.w.w.w.w.w.q.e.]   ; uXpXz.q.w.w.q.w.0.1   Q.pX0XK.K.K.J.K.E.G   % 8.w.q.w.w.e.O.  X wXpX%XF.K.P.P.P.P.",
"[.J.J.K.F.P.Z.@   | w.w.w.q.w.w.q.w.( i 1   & eXpX&., ] e.w.w.0.,   q A P 0X7X7X7X7XqX1X'.`.i i #.w.q.q.8.| } A n ^.yX.XH.K.P.P.",
"T.H.J.J.F.U.V.    O.y.w.w.w.w.q.q.e.a       ; yXpXA   l e.q.e.w.=       n pXpXpXpXpXpXpXpXeXO   o.e.w.w.w.e.q.$   !.pX-XN.K.P.P.",
"[.J.P.P.F.J.F.C C x k | w.q.w.w.w.w.} k ! l ~ c.+Xv   ! e.6.! z ! z z ! ..*.*.h.I <XpXpXpXwX&   o.w.q.w.q.w.8.=   !.pX-XG.K.K.K.",
"[.K.K.P.F.K.K.R.E.9   k y.w.e.w.w.q.w.e.e.y.e.q.9.i   l y.O.    $.e.e.y.|         (.pXpXpXeXO   X.e.q.w.w.w.8.=   !.pX-XG.U.T.K.",
"[.J.K.[.I.[.K.K.J.N 4 x @.o.o.o.0.w.w.w.6.| o.o.O.s , ) e.6.i 6 $.w.0.w.o.6 6 6 2 j.<X>X,X'.7 2 @.w.q.w.w.w.8.=   !.pX-XK.[.{.T.",
"[.K.P.P.F.K.K.K.P.P.W.C         6.w.w.e.]         { w.q.w.w.q.q.w.w.w.w.w.q.q.q.w.a       % 8.w.q.w.w.w.w.w.0.=   !.pX;XH.P.P.Y.",
"[.K.P.P.S.J.U.U.P.S.P.B   $ o % +.0.7.q._         { e.w.q.w.w.w.w.q.0.7.0.w.w.w.w.s   o   % 0.w.w.q.w.q.0.8.6.=   !.pX;XH.P.P.P.",
"[.K.K.P.K.K.U.J.P.r O z w.7.0.6., o $ $ o         { w.w.w.w.q.w.0.e.^   a w.q.w.w.8.q./   = 8.w.w.w.q.w.O.$ $ X   !.pX;XG.P.K.P.",
"[.K.P.Y.Y.Y.K.Y.Y.0   l e.q.w.0.%                 { w.9.q.q.q.q.q.e.z   i w.q.w.w.w.e.(   $ 8.w.w.q.w.e.X.        !.pX;XJ.T.Y.Y.",
"[.K.P.P.P.U.S.M h n.(.l.q.r.q.8.,   g -.K K G X   1.a.a.a.p.q.q.q.w.z O i w.q.w.w.q.w.#.( ] 0.q.q.w.q.w.o.  @ !./.).%X[.J.P.P.P.",
"[.J.P.P.P.U.V.    ,XpX+X%.0.e.w.%   K oXY.R.J.*   4.g.g.g.d.q.9.w.y.l   i q.q.w.w.w.w.w.e.e.e.e.w.q.w.y.O.    iXpX=XA.B.F.P.P.P.",
"[.J.P.P.P.U.Z.@   k.+Xv.v.z./ / A M >.Y.J.P.S.@   3.g.d.f.d.u.u.[ ^ ..b.&.w.w.q.w.q.w.w.q.0.( ^ 6.e.o.^ ' P P &X5X XP.B.K.U.P.P.",
"[.U.P.P.P.U.V.O   X.q.v.pX,X    A.R.P.P.K.U.S.X   4.g.g.f.g.g.g.3   Q.pX8Xq.w.w.q.w.w.w.w.$.    X.y.k   t pXpXI.H.J.P.B.F.P.P.P.",
"[.K.P.P.U.U.S.4 : [ 7.x.uX`.> 4 V.K.K.K.P.U.F.4 * 2.s.s.g.d.s.i.p . j.iX+Xq.r.w.q.w.q.w.w.7.o   { 0.' : S rXrX[.K.K.P.Z.K.K.P.K.",
"[.K.P.P.K.K.K.F.J.e   o O e F.F.J.N.H.J.K.P.K.J.J.g   ,.g.i.$ o O.0.9.e.r.q.q.q.w.w.q.w.w.6.o   .   I pX6XY.J.D.H.K.K.P.K.K.P.K.",
"[.J.P.K.K.K.K.P.U.0   +   0 U.P.H.A.N.J.U.K.K.K.K.g   c g.i.    $.w.w.q.q.q.w.q.w.w.w.q.w.6.o   X   n.pXqXK.G.D.D.H.K.P.P.P.P.K.",
"[.K.P.P.P.P.K.P.P.B.m.m.m.B.P.P.U.U.K.K.K.K.S.0 4 *   c g.i.o X ].tXc.q.r.w.q.w.q.w.w.q.q.$.o   _.4XXX{.{.P.Y.Y.K.K.K.P.P.P.K.P.",
"[.H.J.J.P.P.P.P.K.U.Y.U.Y.U.P.P.Y.Y.U.J.K.E.H.        =.g.i.    3XpX+Xq.r.w.w.w.w.w.w.w.e.0.$   ,XpX-XA.P.P.Y.P.Y.P.K.H.J.J.P.P.",
"[.H.K.J.K.P.K.K.H.J.P.P.P.P.P.P.P.P.P.U.>.N M Z Z Z Z b c c ,.c H b.b f _ w.q.w.w.q.w.X.k k X O $XpX=XG.U.P.K.K.P.K.G.H.F.J.P.P.",
"[.J.P.P.K.P.P.H.H.D.H.P.P.P.P.P.P.P.P.R.G   X Y.oX|.OXV   - g.g.3       1 w.q.q.q.q.e./         >XpX=XG.Y.P.P.P.P.P.P.P.P.K.P.P.",
"[.K.K.K.Y.P.P.P.P.J.P.P.P.P.P.P.P.P.L.U.>.g h -.-.K ;.g   3 <.3.3   1 a ! q.w.w.w.q.e.(   o S S 2XpX=XG.P.P.P.P.P.K.K.K.P.P.T.K.",
"[.K.P.[.{.{.U.K.U.K.K.K.P.K.K.K.P.P.P.P.P.Y.K.X                     ! y.w.w.w.w.q.w.e.)   > iXpXpXpX=XH.U.P.P.P.P.P.P.K.P.[.{.[.",
"[.J.K.U.P.P.K.K.U.K.U.K.U.U.K.U.P.P.P.P.P.P.F.: @ @ @ @ + @ * * * O z q.7.7.7.w.w.8.q.^   > eXpXiXpX=XG.P.P.P.P.K.P.P.P.K.P.P.P.",
"[.J.P.K.K.K.K.K.K.U.K.K.K.K.K.U.P.P.F.P.P.P.J.S.S.S.S.S.S.S.S.S.S.P.B . o o = 7.w.s . o   > eXpX.XU.U.U.P.P.P.P.K.K.P.P.K.K.K.U.",
"[.K.P.K.K.K.U.U.K.K.U.K.K.U.J.K.P.P.P.P.P.P.P.U.L.U.U.U.P.U.U.U.P.E.B       X 7.e.a       > uXpX|.G.K.K.J.P.P.P.P.P.P.P.K.U.K.K.",
"[.K.P.Y.T.U.K.K.P.Y.T.Y.U.G.H.H.P.P.P.P.P.P.U.U.U.P.P.P.U.Y.Y.I.;XyXP   t '.`.r.q.x.$XL   > }.#X[.T.Y.G.G.F.J.P.P.P.P.P.P.T.Y.Y.",
"[.K.P.P.P.U.K.U.P.Y.U.Y.J.G.J.J.P.U.P.P.P.P.U.P.P.P.P.P.U.U.U.P.uXpXh.  A pXpXr.w.@XpX(.  @ A.J.P.U.U.J.J.J.P.P.P.K.P.K.P.P.K.U.",
"[.U.K.K.K.P.P.K.P.K.P.P.P.P.K.P.P.T.Y.P.P.P.P.P.P.P.P.P.P.P.P.P.%X5XC.N J n.I ~ z H Q.P B Z K.P.P.P.K.P.P.P.P.U.T.P.U.K.K.U.P.K.",
"[.J.U.K.P.P.U.P.P.P.P.P.P.P.P.P.U.U.Y.P.P.P.P.P.P.P.P.P.P.P.P.P.H.H.L.|.>.            r oXR.P.K.P.P.P.P.P.P.P.U.P.Y.K.P.P.P.P.P.",
"[.K.P.P.P.U.J.U.P.P.P.P.K.P.P.P.P.J.P.P.P.P.P.P.U.P.P.P.P.P.P.P.U.U.K.P.m.M j h h m g -.K.J.U.K.P.P.P.P.P.P.P.P.P.K.P.P.P.P.P.P.",
"[.J.U.K.P.P.P.P.P.P.P.P.P.P.P.P.P.P.P.P.P.P.P.P.J.P.P.P.P.P.P.P.K.L.P.P.P.Y.Y.R.Y.Y.E.Y.K.U.P.K.P.P.P.P.P.P.P.P.P.P.P.P.P.P.P.P.",
"[.K.U.K.J.U.P.P.P.P.K.K.P.P.K.P.P.D.J.P.P.P.P.P.P.P.P.P.U.P.J.P.U.U.K.K.F.D.K.K.J.P.P.J.K.P.U.K.P.P.P.P.P.P.P.D.D.K.P.P.P.P.P.P.",
"[.J.P.P.P.J.P.P.P.P.K.K.P.P.P.P.H.N.N.J.P.P.P.J.K.P.P.P.U.J.P.P.K.K.K.H.H.H.G.K.P.P.P.P.K.P.K.U.P.K.P.P.P.P.P.D.D.G.P.P.P.K.P.K.",
"[.K.P.P.P.P.P.P.P.P.P.P.K.U.K.P.U.Y.P.P.P.P.P.P.P.K.P.P.P.P.P.P.P.P.P.P.K.P.P.P.P.P.P.P.P.P.P.P.K.P.P.P.P.P.P.U.P.K.P.P.P.P.P.P.",
"[.J.J.J.P.P.P.P.P.K.P.P.P.P.P.P.Y.Y.U.J.P.J.J.P.P.U.P.P.P.P.P.P.P.P.P.Y.U.Y.K.K.D.J.P.P.P.P.P.P.P.P.P.P.P.P.Y.P.Y.K.K.D.G.K.P.P.",
"T.H.J.H.P.P.P.K.J.J.P.P.P.P.P.P.K.P.U.J.D.H.D.J.P.U.P.J.J.K.P.P.P.P.K.K.P.P.P.H.N.N.J.P.P.P.K.J.K.K.P.P.P.P.K.K.P.P.D.D.D.F.P.P.",
"[.J.K.K.P.P.P.H.H.H.J.P.P.P.P.P.P.P.P.P.J.K.J.U.J.U.J.H.D.J.P.P.P.P.K.P.P.P.P.J.P.P.P.P.P.P.D.J.D.K.P.P.P.P.P.P.P.P.P.J.K.K.P.P."
};
