/* XPM */
static char *_455f706d61540fe9bbaf17cba6ec53d88fbqazJLZCn1Qep[] = {
/* columns rows colors chars-per-pixel */
"64 64 232 2 ",
"   c #010101",
".  c #070808",
"X  c #020B0C",
"o  c #190907",
"O  c #0A120E",
"+  c #000E13",
"@  c #001115",
"#  c #0D1211",
"$  c #00131C",
"%  c #011A1E",
"&  c #141717",
"*  c #250D09",
"=  c #3A1C1D",
"-  c #13271E",
";  c #011A24",
":  c #03222E",
">  c #1A2E25",
",  c #1D352B",
"<  c #052633",
"1  c #002B34",
"2  c #152E37",
"3  c #00353F",
"4  c #0F333B",
"5  c #163338",
"6  c #312A2C",
"7  c #21372C",
"8  c #293633",
"9  c #343434",
"0  c #393939",
"q  c #671C1C",
"w  c #54201F",
"e  c #74231D",
"r  c #5E2525",
"t  c #592929",
"y  c #4F302D",
"u  c #652526",
"i  c #692224",
"p  c #682826",
"a  c #642728",
"s  c #652929",
"d  c #692929",
"f  c #762621",
"g  c #792621",
"h  c #7B2B27",
"j  c #6A3739",
"k  c #733032",
"l  c #793637",
"z  c #743C3D",
"x  c #783C3D",
"c  c #264638",
"v  c #2B4A3C",
"b  c #685F2E",
"n  c #664436",
"m  c #79443F",
"M  c #716134",
"N  c #06224C",
"B  c #003640",
"V  c #013944",
"C  c #083941",
"Z  c #002456",
"A  c #2F344C",
"S  c #002E6F",
"D  c #433152",
"F  c #733E40",
"G  c #1C494A",
"H  c #2F4C49",
"J  c #39624F",
"K  c #3C6955",
"L  c #1A4A78",
"P  c #2A5070",
"I  c #3F7569",
"U  c #4A4E4C",
"Y  c #7A4141",
"T  c #784345",
"R  c #71574C",
"E  c #42755E",
"W  c #726459",
"Q  c #535172",
"!  c #477B64",
"~  c #756F66",
"^  c #6C7A66",
"/  c #6D7B67",
"(  c #991E09",
")  c #AE1B03",
"_  c #B41C01",
"`  c #9A230E",
"'  c #85241A",
"]  c #9D2513",
"[  c #AB230C",
"{  c #B32207",
"}  c #B5250B",
"|  c #BA260B",
" . c #B8280E",
".. c #B82A13",
"X. c #B5301C",
"o. c #95352E",
"O. c #823A35",
"+. c #AB382D",
"@. c #C4301A",
"#. c #CF3C29",
"$. c #85433D",
"%. c #A2403D",
"&. c #BC4432",
"*. c #DF4A3C",
"=. c #834544",
"-. c #8B5650",
";. c #B3504A",
":. c #B4534C",
">. c #916F5C",
",. c #A86958",
"<. c #B9745C",
"1. c #917271",
"2. c #A97862",
"3. c #B67A64",
"4. c #EC574C",
"5. c #F25B52",
"6. c #FF5D55",
"7. c #C3795E",
"8. c #E9675F",
"9. c #F96057",
"0. c #FE655E",
"q. c #C46B61",
"w. c #C57963",
"e. c #FF6761",
"r. c #FF6962",
"t. c #F97B77",
"y. c #4C8B72",
"u. c #56977A",
"i. c #599A7D",
"p. c #708B74",
"a. c #6D957B",
"s. c #9D826C",
"d. c #B98268",
"f. c #CE8D6E",
"g. c #D48D6E",
"h. c #D88F6F",
"j. c #D69573",
"k. c #DB9371",
"l. c #EE8977",
"z. c #E59774",
"x. c #E49976",
"c. c #E5A47D",
"v. c #EFD26A",
"b. c #FFEF77",
"n. c #003A8E",
"m. c #0B579A",
"M. c #244A90",
"N. c #0046AB",
"B. c #004AB5",
"V. c #0151BC",
"C. c #0176AC",
"Z. c #0876AB",
"A. c #2A63B8",
"S. c #3069BF",
"D. c #6F7E8B",
"F. c #75798C",
"G. c #0155C5",
"H. c #2E69C1",
"J. c #997E8E",
"K. c #B07D8A",
"L. c #1385BD",
"P. c #5C9F80",
"I. c #709786",
"U. c #5EA485",
"Y. c #5EB892",
"T. c #67A788",
"R. c #71A587",
"E. c #67B08F",
"W. c #62BD97",
"Q. c #69B895",
"!. c #65BF99",
"~. c #6DBE99",
"^. c #71BB98",
"/. c #66C09A",
"(. c #6CC29C",
"). c #71C59F",
"_. c #6CC9A2",
"`. c #72C6A0",
"'. c #7AC7A5",
"]. c #75CAA4",
"[. c #7CC9A6",
"{. c #7CCCA9",
"}. c #73D1A9",
"|. c #7AD3AC",
" X c #7FD9B1",
".X c #0087C7",
"XX c #008BCC",
"oX c #008ED0",
"OX c #0091D5",
"+X c #0096DA",
"@X c #2F93CD",
"#X c #22A5EB",
"$X c #3AB5FB",
"%X c #44A1DC",
"&X c #51AEE7",
"*X c #38C1FF",
"=X c #AA838C",
"-X c #9293AE",
";X c #9494AD",
":X c #AF98AF",
">X c #B5ABB7",
",X c #D6908D",
"<X c #F69394",
"1X c #EBAC83",
"2X c #F4BA8C",
"3X c #D7A8A7",
"4X c #82CDAB",
"5X c #86D0AD",
"6X c #FDC694",
"7X c #EDDB9B",
"8X c #AFA9C7",
"9X c #AEADCD",
"0X c #B5B2CB",
"qX c #ABACD1",
"wX c #AFB5D8",
"eX c #B3B5D5",
"rX c #B9BAD9",
"tX c #BFBEE1",
"yX c #EDBCC4",
"uX c #AFD0EC",
"iX c #C4C2C9",
"pX c #C4C4D1",
"aX c #DBCED2",
"sX c #EACAD3",
"dX c #DDDBEA",
"fX c #E3DEED",
"gX c #E5E4EC",
"hX c #E9E6F5",
"jX c #EDEEFE",
"kX c #F2ECF7",
"lX c #E9F3FF",
"zX c #F5F4FD",
/* pixels */
"'.~.~.~.).~.).~.).~.`.~.`.~.!.~.(.(.~.~.~.~.(.~.~.~.~.~.~.`.~.~.~.Q./.~.~.~.~.~.~.~.`.^.~.~.~.`.`.`.~.~.Q.~.~.`.~.~.~.~.~.`.(.`.",
"4X).].{.[.[.).`.`.{.{.4X`.W./.~.`.`.`.].].}.|.].|.}.}.}.|.}. X{./._./.].}.}.}.}.].|.|.|.}.'.`.`.'.{.'.~.`.!.`.`._.`.`.`.{.{.'.4X",
"4X(.`.`.`.).).).).`.`.`.`.!.`.`.`.`.`._.a.^ ^ ^ / / / / ^ ^ ^ ^ ^ ^ ^ ^ ^ ^ ^ ^ ^ / / / / `.`.`.`.`.`.`.`.(._.`.`.`.`.`.`.`.`.'.",
"[.`.`.`.`.).`.].`.`.`.`.`.`.`.`.].{.{.].R q i i q i i i q i i i r u i i i i i i i i i u s ^.`.`.`.`.`.`.`.`.`.'.{.`.`.`.`.`.`.'.",
"4X).`.'.).`.).).`.`.`.`.`.`.`.`.(.].}.}.W u r r u r r r r r r r r r r r r t w t w t t a j `.}.'.`.`.`.`.`.`.`.`.`.`.`.`.`.`.`.{.",
"[.).`.`.).].].).`.`.`.`.`.`.`.`.(.T.p.a.m ' ' o.;.+.%.%.%.%.;.o.%.%.%.%.+.;.;.o.:.+.' ' ' p.a.a.~.`.`.`.`.`.`.`.`.`.`.`.`.`.`.{.",
"4X).).`.).`.).).`.`.`.`.`.].(.(._.W i s ]  ._ 4.r.e.e.e.e.e.e.e.0.e.e.e.0.e.0.0.e.6.} }  .f a u R.].`.`.`.`.`.`.`.`.`.`.`.`.`.'.",
"'.).`.).).`.`.].`.`.(.`.`.`.].]._.W i r ` _ ) *.r.8.0.0.e.0.e.0.0.0.0.0.0.0.0.0.e.5.{ [ _ f a d R._.`.`.`.`.(.W.W.`.`.`.`.`.`.`.",
"[.).`.`.).`.`.`.`.`.`.).`.).I.a.a.m ' g ;.w.q.8.0.0.0.0.0.0.0.0.0.0.0.0.0.0.0.0.0.6.#.#.#.h a a R.].).).].).(.(.(.(.`.`.`.`.`.].",
"4X`.`.`.`.`.`.`.`.`.`.).).).n q s ] | { 3XzXhX<X6.r.0.0.0.0.0.0.0.0.0.0.0.0.0.0.0.0.e.e.6.O.a u R.].).`.).`.{.].].`.`.`.`.`.`.{.",
"[.(.(.(.`.`.`.`.`.`.`._.}.].R i a ] | _ 3XjXjX<X6.r.0.0.0.0.e.0.0.0.0.0.e.0.0.e.0.0.e.0.e.O.t a R.}.].`.).].].].{.(.`.W.(.(.`.{.",
"'.!.(./.`.`.`.(./.(.`.R.a.a.n i a ] | ) k.sXyX<X9.0.0.0.e.0.0.0.e.e.0.0.0.0.0.0.0.0.0.0.e.o.g ' p.a.a.^.`.).).`.`.`.~.!.!.(.`.'.",
"4X(.).).`.(.`.(.!.W.Y.R i a u u u ] | { 4.e.6.0.e.0.0.0.0.0.e.e.0.0.e.0.e.0.0.0.0.e.e.e.e.@._  .e u u R.].).`.`.`.).).`.`.`.(.[.",
"[.).).'.[.[.`.`.].]._.T q r u u u ] | { *.e.9.e.0.0.0.e.0.0.0.0.0.e.0.0.e.0.0.0.0.0.e.e.e.@.} } e u a R.].).`.`.`.`.`.).`.{.[.[.",
"4X).`.5X4X4X`.`.E.U.T.W =.T k u a ] } ) 4.t.t.r.0.0.0.0.0.0.0.0.0.0.0.0.0.0.0.0.0.0.4.5.4.@.) } g a a R.}.).).`.`.`.`.`.{.4X4X5X",
"4X).).).`.`.`.`.,   & iXjXdXT i s ]  .) 3XjXgX<X6.0.0.0.0.0.0.0.0.0.0.0.0.0.0.0.0.5...) ..)  .} f u p R.].).`.`.`.`.`.).`.`.`.[.",
"'.).`.).).).`.).>   # pXjXfXT a s ] | _ 3XlXjX<X6.e.e.e.e.e.e.e.e.e.e.e.e.e.e.e.r.5.| { } } | { g a d R.}.).).).).).).).).).).[.",
"4X).).).].).].).>   # pXjXfX=.e f o.+.X.,XfXaXl.4.5.5.5.5.5.5.5.5.5.5.5.5.5.5.5.5.4.} } } } } } g a u R._.(.).).).].].).).'.).{.",
"4X).).'.{.[.).).>   # pXjXfX&._ { K.9X9X:...X... . . . . . .}  .}  . . .}  . . . . .} } } } } } f a a a.)./.).).).).).).).|.{.[.",
"'.~.`.'.`.`.).).>   o pXjXfX&._ _ =XtXwX:._ } _ } } } } } } } } } } } } } } } } } } } } } }  .| g s d R.}.).).).].).).].'.).).{.",
"4X).).).).).`.).>   # pXkXfX;.X.X.K.8X:X;._ .._ } } | } }  .}  .} } } } } } } } } }  .} } [ [ [ i r r p.U.U.^.{.{.'.).).).].).'.",
"4X).`.`.`.`.].).>   # pXkXfX0X8X9X;...X.} } } ..} } } } } } } } } }  .} } } } } } } } } } g i i o   . # # X ! |.).).].).).).).[.",
"4X).`.].`.`.`.).>   # pXjXhXrX9XwX;._  .) } } } } } }  .} } } } } } } } } } } } } } } } } f a d o           ! ].).).).].).].).[.",
"'.).`.`.`.).`.).7   & rXhXfXeXqXqX;.) ....} ..} } } } } } } } } } } } } } } } } } } } { } f a a o           y.}.).).).].).).).[.",
"4X).).).).).].).E.T.U.H 6 8 -XeXqX:X:X:X:X:X:X;._ } } } } } } } } } } } } } [ f f f f f f 8 4 2 1 1 1 1 1 1 , c , y.|.).).).).'.",
"'.).).).).).).].].].).-     -XeX9XwXwXeXwXeXwX:._ } } } } } } } } } } } } | [ a a a a a a 4 B B B B 3 B B V @     E |.).).).).'.",
"4X).).).).).'.).).].).7 . # -XwX9XeX9X9X9X8XwX:._  .} } } } } } } } } } } } [ a a p s p u 2 B B 3 3 3 3 3 B ; .   ! }.).).).).[.",
"'.).).).).].).).).).).T.U.T.~ -.-.M.A.A.Q T T h e f f f f g e f g f f f g g p 5 5 5 5 5 2 C B B B 3 B @ X X K E.T.Q.`./.(.).).[.",
"'.Q.(./.).`.).).(.(.).].{.].R O.x M.N.B.D q p p s a a a a a p a a u d u a u t B 3 3 3 3 B 3 3 B 3 3 B X     !  X).).(./.(.).).{.",
"4X(.).).).).).(././.).).).).W F x M.B.B.D i d p a p p u u p p p u d u i u p t 3 3 3 3 3 3 B B 3 3 3 3 +     ! |.).).).).).).).].",
"'.).).).'.].).).).).).).).).W F x 1.s.K.3.<.7.y o o j 7.<.<.<.w.R 5 4 H j.j.f.2.2.>.C 3 B 3 B B 3 3 3 1 1 1 , c c u.].).).).].'.",
"4X).).4X4X4X).).).].).).).).R O.z <.z.z.k.k.x.y     n x.j.k.k.x.>.C V H 6X6X2Xk.z.f.C 3 3 3 3 3 3 3 3 B B V @     E |.).].4X4X4X",
"4X).).`.`.`.).`.`.`.`.`.).).W T T 3.k.g.g.g.k.y     n x.g.g.g.z.W 3 4 H 2X2X1Xf.h.f.3 3 3 3 B 3 3 3 B B 3 V % .   ! |.).).).).[.",
"[.).`.`.`.`.`.`.'.`.).).).).^.R.E.>.-.-.f.2X2X-.y w ,.2X1Xc.g.h.f.>.1.2.2X6X2Xj.k.d.O + + 1 B 3 $ + @ y.E.Y.U.U.i.Q.).].).).).[.",
"4X).`.`.`.`.`.).).).`.`.).).`.].].~ l j f.6X6X,.x z 3.6X6Xc.g.h.h.z.k.x.2X6X2Xg.h.7.      1 3 B X     i.}.).].].}.].).).).].).[.",
"[.).`.].{.[.).`.`.[.{.[.).(.!.!.).~ l l j.7X6X>.j j 2.6X6X1Xg.h.g.g.g.k.6X6X2Xk.z.f.      1 V V X     i.|._.`.`.).).).).`.{.].4X",
"4X).`.'.`.`.`.].).].`.].(.(.`.(.).R.p.p.s.3.3.,.,.,.f.c.c.z.g.h.g.g.k.g.3.3.2.,.,.-.; ; ; $ ; ; ; : ; H J J i.[.).).`.).`.`.`.[.",
"'.~.).).`.`.`.`.`.).`.).`.`.`.`.].5X4X|.~ k j <.z.h.g.f.g.g.g.g.g.g.k.w.j j j j F j B V V X     1 3 B X     ! |.[.].`.`.`.`.(.[.",
"4X).`.`.`.`.`.`.].`.`.`.`.`.`.).].].[.`.~ $.=.3.k.g.h.z.z.z.x.x.x.x.x.g.Y F F $.T F 3 B B X     1 V 3       E |.`.`.).].`.`.`.[.",
"4X).`.`.`.`.`.`.).`.`.`.`.`.`.`.).).(.].U = = $.,.,.,.,.,.-.n n n n n n F F F j n y 1 1 1 $ + + % % % J K J U.].).`.`.`.`.`.).{.",
"[.).].).).`.`.`.`.`.`.`.`.`.`.`.].).(.].c     y F F F F F =           . z x j 8 9 8 ; : : : : < X     U.5X|.].).`.`.`.`.`.`.`.[.",
"4X).).).).).).].`.).).).`.`.`.).(.W./.].v     w $.O.O.=.=.w   .       o =.=.T 0 0 9 $ ; $ $ $ $       i.}.).(./.!.).`.`.`.`.(.[.",
"'.).).'.).`.).).`.`.).).`.`.`.`.!.W.Y.`.H     A Q P A = = 2 Z N Z Z Z N = = = 0 9 y D.D.F.I.F.I.>     i.].)././.!.!.`.`.`.`.).[.",
"4X~.).).`.`.`.`.`.`.`.`.`.`.`.`.].'.(.].v     S G.G.Z     Z G.G.V.V.G.n.    . 9 8 U jXjXjXzXjXzX0     i.].).'.].`.`.`.`.`.`.(.[.",
"'.(.(.).).).).'.`.`.`.`.`.`.`.`.].[.`.].c     S B.B.Z     N B.N.N.N.B.n.    . 9 9 U gXkXhXkXkXzX0     i.].).].'.[.).)./.(.(.`.{.",
"'.!.(./.`.].).(./.(.).`.`.`.`.`.).`.).].c     L S.S.P o o A S.A.A.S.H.M.    . 0 6 U uXuXuXuXuXuX8     i.].(.).).).)././.(.(.).[.",
"4X).).].).].)./.!./.(.`.`.`.`.`.`.`.).].v     F.rXwXJ.z z 1.wXwX0X0XrX;X    . 0 9 A .XXX.X.X.XXX:   X i.|.).].).].).].).).).(.{.",
"4X(.).).'.).).).`.(.`.`.`.`.`.`.`.`.`.].v     F.tXrXJ.l k J.wXwX9X9XeX-X    . 9 9 A .XXXXXOXOX+X;     u.{.).).).].).).).).].].'.",
"'.).).4X4X5X).).).`.].).`.`.`.`.).).).'.v     Q ;X-X~ t t 1.iX3XiX0XpX;X    X H H P .XXXXXC.C.C.G 7 , U.`.`.`.`.`.`.`.`.`.4X4X4X",
"4X).).).`.'.).].).].`.`.`.`.`.`.).).).|.v       . .   .   b b.v.7XgXkX>X.   ; .X.XXXXXXXoX;     P.}.`.`.`.`.`.`.`.`.`.`.`.`.`.{.",
"4X).).).).).).).`.`.`.`.`.`.`.`.).).).|.c                 M b.v.7XgXkXiX    ; XXOXOXOXOX+X;     u.{.`.`.`.`.`.(.`.(.`.`.`.).`.'.",
"4X).).).`.).`.).).).`.).`.).).`.).).).].K > 7 #     . = & M v.v.7XaXaX:X* o & Z.C.C.C.C.C.G 7 7 U.`.).`.`.`.`.`.`.`.`.`.).`.`.'.",
"4X~.).[.{.].).].).[.{.{.(./.~./.).).'.).).).|.v     n x.j.,.z Y n m m l { | (           # /.].].{.{.'./.(.!._.`.`.`.`.`.`.{.{.{.",
"4X).).'.`.).).`.).].].[.)./.(.(.).).).).).).{.v     n x.z.,.j m l m m O.{ | (           . Q.].).`.`.`.`.`.(.`.`.`.(.`.`.`.`.`.{.",
"'.).).).`.).`.`.).).).).).`.].).).|.].'.).).].v     n k.j.,.m Y m m z l { { ` O O O # . & /.`.`.`.`.`.`.`.`.`.'.{.`.`.`.`.`.`.'.",
"4X).).).`.].`.`.`.`.).].`.).].).'.].{.).].).].v     P &X&X%X%X%X@XL.L.m.o o 9 ~.~.Q.~.~.~.`.`.`.`.`.`.`.`.`.`.`.`.].`.`.`.`.`.[.",
"[.).`.`.`.`.`.`.`.`.`.).`.`.`.`.).).).].).).].v     L *X$X$X$X$X#XXXOXC.    , ].`.].].`.].`.`.`.`.`.`.`.`.`.).`.`.`.`.`.`.`.`.[.",
"{.`.`.`.`.`.`.`.`.`.`.`.`.`.).`.).).).).).).|.v X O m.&X$X$X$X&X#X.XOXZ.# . c ).).`.`.`.`.`.`.`.`.`.).`.`.`.`.`.`.`.`.`.`.`.`.[.",
"[.).`.`.(.`.`.`.`.`.`.).`.`.`.`.).W./.).).).).(.Q.).I ; < < < < : : ; G Y.Y.!.).`.`.`.).`.`.`.`.`.`.`.`.`.`.(.(.!.`.`.`.`.`.(.[.",
"4X).`.`.`.`.`.`.`.`.).).`.`.`.`./.W.W.(.'.).).'.). XK                 > /./.(.).).`.`.).`.`.`.`.`.).).`.`.`.(.(.!.(.`.`.`.`.).].",
"[.).).).`.`.).`.`.).`.`.`.`.`.`.].].).).).).).).(.|.K   .     .   X   , '.).).).).`.`.).`.`.`.].`.`.`.`.`.`.].`.`.).`.).`.`.`.[.",
"[.).(.(.`.`.`.`.`.`.`.`.`.`.`.].{.}.].).).(.).).).].E.i.i.i.i.i.i.i.i.T.].'.).)./.(.).`.`.`.).`.).`.`.`.`.`.].`.[.).)./.(.(.(.[.",
"`./.~.W.).`.`.).(.`.`.).`.`.`.).).).).)./././.).).).).].].].].{.].}.{.].).].).!.W.W.(.`.`.`.`.(.).`.`.`.`.).).`.`.)./.W.!./.`.[.",
"4X(.`.).`.`.`./.W./.(.`.`.`.`.`.].).).).).).).).).).(./.W./.).).).).).).).).).(.).).`.`.].(.W.(.!.`.`.`.`.`.`.).`.`.).).).`.).{."
};
