/* XPM */
static char *_17d9ac5ccf14d34f91ae9cff523ce37T8Ea2HPZb8vQvSbr[] = {
/* columns rows colors chars-per-pixel */
"64 64 244 2 ",
"   c #000000",
".  c #050809",
"X  c #180D0A",
"o  c #17120D",
"O  c #040D12",
"+  c #091717",
"@  c #181616",
"#  c #270804",
"$  c #28180F",
"%  c #221511",
"&  c #281914",
"*  c #13241D",
"=  c #372718",
"-  c #000E24",
";  c #04242A",
":  c #182B23",
">  c #1A352B",
",  c #012B36",
"<  c #043137",
"1  c #00333D",
"2  c #193839",
"3  c #28272A",
"4  c #362D29",
"5  c #29332F",
"6  c #283434",
"7  c #373636",
"8  c #471716",
"9  c #7E1907",
"0  c #671712",
"q  c #502814",
"w  c #682701",
"e  c #792C0F",
"r  c #641E21",
"t  c #462C24",
"y  c #5A2729",
"u  c #4A342B",
"i  c #583636",
"p  c #652123",
"a  c #672726",
"s  c #6B2A29",
"d  c #742E26",
"f  c #6A3536",
"g  c #743C3D",
"h  c #78393A",
"j  c #284638",
"k  c #3C403F",
"l  c #724737",
"z  c #023942",
"x  c #11354A",
"c  c #3B3B47",
"v  c #003175",
"b  c #00357D",
"n  c #733F41",
"m  c #165151",
"M  c #335448",
"N  c #386551",
"B  c #396755",
"V  c #0F5071",
"C  c #34556E",
"Z  c #357569",
"A  c #504548",
"S  c #545458",
"D  c #6B4C45",
"F  c #7C4342",
"G  c #784748",
"H  c #6A5147",
"J  c #69554A",
"K  c #72544E",
"L  c #755C54",
"P  c #4B6F59",
"I  c #6D6354",
"U  c #5D5D6A",
"Y  c #645D68",
"T  c #5E636B",
"R  c #477B64",
"E  c #6F6C6A",
"W  c #6C7764",
"Q  c #841C0B",
"!  c #B20E00",
"~  c #AD1901",
"^  c #B51501",
"/  c #B41C01",
"(  c #992413",
")  c #912E11",
"_  c #B32106",
"`  c #B4240A",
"'  c #BB250A",
"]  c #BA270C",
"[  c #A82611",
"{  c #B62911",
"}  c #89342C",
"|  c #B43625",
" . c #C01E04",
".. c #C32A10",
"X. c #CA3723",
"o. c #D53E2C",
"O. c #9B4731",
"+. c #936537",
"@. c #A66D3D",
"#. c #D4402F",
"$. c #D84535",
"%. c #854A47",
"&. c #865749",
"*. c #94574D",
"=. c #8A5450",
"-. c #B3514C",
";. c #B35450",
":. c #8F6750",
">. c #AF7449",
",. c #A56A55",
"<. c #B6765D",
"1. c #987561",
"2. c #B47868",
"3. c #CB5248",
"4. c #C45E53",
"5. c #ED5348",
"6. c #E95D56",
"7. c #EA5E58",
"8. c #F25B52",
"9. c #FE5E55",
"0. c #C46E59",
"q. c #EC605B",
"w. c #FF6057",
"e. c #FE655E",
"r. c #C67F6F",
"t. c #FE6761",
"y. c #FF6963",
"u. c #FE6D68",
"i. c #F17975",
"p. c #4A836A",
"a. c #4E8C73",
"s. c #58987A",
"d. c #729079",
"f. c #B9814E",
"g. c #B58970",
"h. c #CA8667",
"j. c #CB8669",
"k. c #D68966",
"l. c #D58C6D",
"z. c #D98F6E",
"x. c #DA906E",
"c. c #D09073",
"v. c #DA9271",
"b. c #DB9674",
"n. c #E8926B",
"m. c #E59976",
"M. c #D7A478",
"N. c #E2A774",
"B. c #D7C662",
"V. c #FEE772",
"C. c #0B3E84",
"Z. c #0B5489",
"A. c #01439B",
"S. c #296E9A",
"D. c #094AA2",
"F. c #0046AC",
"G. c #004AAE",
"H. c #1754A9",
"J. c #004BB3",
"K. c #004AB7",
"L. c #0151BA",
"P. c #215BAC",
"I. c #3C5EA1",
"U. c #336BAE",
"Y. c #536891",
"T. c #72738E",
"R. c #817E90",
"E. c #749C82",
"W. c #759094",
"Q. c #5BA487",
"!. c #66A889",
"~. c #72A587",
"^. c #68B995",
"/. c #64BF99",
"(. c #6CBE9A",
"). c #71BB98",
"_. c #66C19B",
"`. c #6DC29C",
"'. c #71C59F",
"]. c #6DCBA3",
"[. c #72C6A0",
"{. c #75CAA4",
"}. c #7AC8A5",
"|. c #7CCAA6",
" X c #7CCCA9",
".X c #75D3AA",
"XX c #79D2AA",
"oX c #018FD3",
"OX c #309AD6",
"+X c #0E9FE6",
"@X c #2FB4FF",
"#X c #3AB8FF",
"$X c #7B90C5",
"%X c #7C94C8",
"&X c #75B2D0",
"*X c #40B6FF",
"=X c #40C6FF",
"-X c #95859B",
";X c #9EA394",
":X c #9597B3",
">X c #A99AB3",
",X c #CC8F8E",
"<X c #F48D8D",
"1X c #F4989A",
"2X c #DEAF8F",
"3X c #ECB48A",
"4X c #F5BC8D",
"5X c #FBBF8C",
"6X c #E6B794",
"7X c #F39EA1",
"8X c #D8ACAC",
"9X c #F2A4A8",
"0X c #F2AEB4",
"qX c #EFB3BB",
"wX c #82CDAB",
"eX c #84D7B1",
"rX c #81E0B5",
"tX c #FBC18E",
"yX c #FCC695",
"uX c #F2E08B",
"iX c #859DCC",
"pX c #95AFDB",
"aX c #ACAAC9",
"sX c #B5AFCB",
"dX c #A9B3D7",
"fX c #B6B7D6",
"gX c #86B3E2",
"hX c #9EB6E0",
"jX c #A1B8E2",
"kX c #ACBFE4",
"lX c #BCBEE2",
"zX c #C1BBD5",
"xX c #EDBEC6",
"cX c #B0C2E6",
"vX c #E8D0DC",
"bX c #CAD0E9",
"nX c #CFDAEA",
"mX c #E9D6E3",
"MX c #E5EBFC",
"NX c #EAEAFA",
"BX c #F2EEFA",
"VX c #E5F4FF",
"CX c #ECF7FF",
"ZX c #F9F7FA",
/* pixels */
"}.(.(.(.'.(.`.'.(.(.}.(.`.`.(.(.`.'.(.(.'.(.`.'.).`.`.(.`.'.'.).`.(.(.(.'.'.(.(.'.(.'.).`.`.'.(.'.'.(.'.(.`.(.`.`.(.(.`.(.[.(.}.",
"wX'.{. X X}.'.[.[. X XwX`././._.[.'.[.[.[.[.}.{. X[.{.'.}. X|.[./.`._.[.'.'.[.[.'. X X|.[.[.'.}.}. X{.(.`./.'.[.[.[.[.[.{. X}.wX",
"|.'.[.[.'.[.'.'.'.{.[.[.`.`.[.`.'.{.'.].'.'.{.[.[.[.'.'.'.[.{.'.`.`.`.[.[.{.'.{.'.{.{.'.[.'.'.[.[.[.[.`.[.`.[.[.[.[.[.[.[.[.`.}.",
"wX[.[.[.[.[.[.{.[.[.[.'.[.[.[.[.{. X X{.W D H H H H H H H H H H H H J H H H H H H H H D J '.{.'.[.[.[.[.[.[.{.{. X{.[.[.[.[.'. X",
"|.'.[.{.[.[.'.[.[.[.[.[.[.[.[.[.{.[.{.{.J r p p p r p p p p p p r p p p p r p p p p p r s ).[.[.[.[.[.[.[.[.[.[.{.[.[.[.[.[.[.}.",
"wX'.[.[.[.[.[.'.[.[.[.[.[.[.[.[.'.'.`.{.I p s s s s s s s s s s s s s s s s s s a a a a f (.].[.[.[.[.[.[.[.[.[.[.[.[.[.[.{.[.|.",
"|.'.[.[.[.[.'.{.[.[.[.[.[.[.[.[.{.W D J } ` [ $.q.6.6.6.6.6.6.6.6.6.6.7.6.6.6.6.6.6.[ ` [ G J H ~.{.[.[.[.[.[.[.'.[.[.[.[.[.'.}.",
"wX).[.[.'.[.[.[.[.[.[.`.[.[.[.[.'.J r p ( ' _ $.y.e.y.e.e.e.e.y.e.e.e.e.e.y.e.e.y.9.' _ _ d p p ~.{.'.[.[.[.`._._.`.[.[.[.[.'.}.",
"|.[.[.[.'.'.[.[.[.[.[.'.[.[.[.[.].I r a ( ] / 5.y.e.e.e.e.t.e.e.y.e.e.t.e.e.e.e.t.6.` ` / d p s ~.{.'.'.{.'.`.`.`.`.[.[.'.[.'.}.",
"wX`.[.[.[.[.[.[.[.[.[.[.[.[.'.{..XI r y -.9.6.9.t.e.e.y.w.<XmXvXvXvXmXxXt.e.t.e.e.e.8.8.8.h p s ~. X'.'.'.'.XX}.{.[.'.'.[.[.'. X",
"|.`.`.`.[.[.[.[.[.[.[.[.[.[.'.[..XI p a 3.y.t.t.e.e.t.y.w.7XMXMXMXNXMXmXt.t.t.t.e.e.e.t.y.} a s d.].'.'.'.{. X'. X'.'._.`.`.'. X",
"}./.`.`.[.[.[.`._.`.'.[.[.[..X{..XI r y 3.t.9.y.e.t.w.w.5.1XVXNXMXMXVXmX9.9.9.t.e.e.e.e.9.h y y !..X.X{.'.'.'.'.`.[.`._.`.`.'.|.",
"|.'.'.'.[.'.[.`.`./.`.[.[.[.d.I W } ( ( 3.y.t.e.y.9.<XqXqX9X1X1X1X1X1X1XqXqX9Xt.e.t.t.e.e.| ( ( I W W ^.{.'.'.'.'.'.'.'.'.'.'.|.",
"wX`.'.}.|.|.[.[.[.`.[.[.[.[.l r r ( .._ 5.y.e.e.y.9.9XVXVX0X9.9.9.9.9.i.NXVXmXt.e.t.e.e.t.{ _ ' e r r E..X'.'.{.{.{.'.'.[. XwX{.",
"wX'.[.wX XwX{.[.[.[.[.[.[.[.D a s [ ` _ 5.e.y.e.y.9.9XVXVXqX9.t.t.y.w.i.NXVXmXt.e.t.t.u.y.X.~ ` d s s ~.{.'.'.'.'.'.{.'.|.wXwXwX",
"wX'.'.{.[.[.'.[.[.[.[.[.[.[.7 # $ Q ' _ X.#.#.5.y.w.i.7X1X<Xe.t.e.t.e.u.7X7X1Xe.e.9.o.o.o.{ ` ] 8 % $ E.{.'.{.'.{.'.'.'.'.'.'. X",
"}.'.[.[.'.'.[.[.[.[.'.'.'.`.:     9 .._ _ / ~ $.t.e.w.9.9.e.e.e.e.w.e.w.w.w.w.q.e.6.` ~ / ` ` ' #     s.{.[.[.[.[.[.[.[.[.`.'. X",
"wX'.'.'.{.'.[.[.[.[.{. XXX{.>     9 ' ` ` ] ` 5.y.t.e.9.9.e.y.y.u.y.u.y.9.w.w.y.u.w.{ ] ] ` ` ' #     Q..X.X[.[.[.[.[.[.[.}.[.}.",
"wX'.'.}. X}.'.[.'.{.XXa.Z Z +     9 ' ` ` { ` X.$.o.i.0X0Xi.o.$.$.$.#.3.9X0X1X#.$.o.` ` ` ` ` ' #     N Z Z Q.{.`.[.[.[.}. X{. X",
"}.).[.{.[.[.[.[.'.}.].m , , .     9 ' ` { ` ` ` [ ! r.VXVX,X~ [ _ _ _ | MXVXvX` / _ ` { ` ` ` ] #     ; z , a.{.[.`.[.[.[.[.[. X",
"wX'.'.'.[.'.'.{.{.XXXXm z 1 .     9  .' _ ^ / ' { ^ c.CXCX,X! / / / ^ X.MXCXvX{ ` ` / / ! ` `  .#   . < z 1 Q.XXXX.X'.[.[.[.'.}.",
"wX'.[.[.[.{.'.'.s.p.p.2 ; ; = = = e [ ( O.-.-.| ] / 4.8X8Xc.-.-.-.-.-.<.8X8X,X{ _ { -.-.-.| ( ( q = = * ; ; N a.p.!.{.[.[.[.[.}.",
"|.'.[.{.{.[.{.'.:         . +.f.>.l p p -XfXdX;./ { ` ` ! ;.cXfXdXsXjX>X/ / / ] _ | aXdXdXn y a @.f.@.$ .         R XX'.[.[.'. X",
"wX'.[.'.'.'.'.'.*           +.@.@.} s s -XzXfX-.! ~ ~ ` ^ ;.dXaXaXaXsX>X/ / / / ^ { sXfXfX%.r s +.@.@.= .         R XX'.[.[.'.}.",
"}.'.'.'.'.'.[.[.N 6 j .   . +.f.f.l 8 8 Y.iX$X2.3.4.4.4.3.,XcXfXlXzXlXzX3.4.4.4.4.<.iX$XiXi 8 8 :.f.>.$     * j > a. X'.'.[.'. X",
"wX'.'.'.'.[.[.[.[.{.'.>   . <.b.b.4     v K.F.pXBXNXMXNXMXMXNXNXNXNXNXNXMXMXMXMXNXnXF.F.K.-     >.m.b.=     R .X`.`.[.'.[.[.`.}.",
"wX'.'.'.[.[.[.[.'.{.{.:   . <.m.m.t     C.K.F.pXBXBXNXNXBXBXBXBXBXBXBXBXBXBXBXBXZXnXJ.K.K.-     <.m.m.=     R eX{.'.'.'.'.'.'. X",
"}.`.'.'.[.[.[.'.!.Q.Q.> . + &.,.,.t X % C I.I.iXlXkXkXkXkXkXkXkXkXkXkXkXkXkXkXkXkXdXI.I.I.3 X % &.,.,.3 O . B ^.!.^.[._.`.'.'.|.",
"}.^.'.(.'.[.[.`.> . . < z 1 .     y %.h <.m.n.Y.K.F.J.J.F.F.J.G.G.G.G.J.G.J.G.G.F.H.c.z.z.=.h F X     , z z ;     p.'./.`.`.'.XX",
"|.'.'.'.'.[.[.`.*     ; 1 1 .     u n f <.z.z.I.K.K.K.K.J.J.J.J.J.J.J.L.J.J.J.J.K.H.j.z.z.%.h n %     ; 1 1 O     R XX`.'.'.`.|.",
"wX'.'.'.[.[.[.'.j @ * m m m O .   i %.%.<.v.z.T.H.P.H.A.A.D.P.P.P.P.P.H.A.A.A.P.P.I.c.z.z.*.F %.@ . . 2 m m > * + p.XX'.'.'.|.}.",
"|.'.'.wXwXwX[.[.`.`.`.`.(.(.m , 1 1.k.j.l.z.z.2X2X4XL .   J 6X6X6X2XyXg.O   3 2X6X2Xl.z.l.l.j.j.M , 1 Q.`.(.(.(.'.'.'.'.|. XwXwX",
"|.'.[.[.[.[.'.[.{.{.[.{.{.{.m 1 1 1.n.x.z.z.k.3XtXyX&.  . l yX4XtX4XyXM.    & 4XyX4Xz.z.z.z.v.b.M 1 z Q. X[.{.'.{.'.{.'.'.'.'.wX",
"wX[.[.[.[.[.[.[.'.'.'.^.^.^.m 1 1 1.z.r.l.l.l.3XtXyX:.  . H yX4XtX4XyXM.X   = 3X4X3Xz.z.z.j.h.k.c 1 z Q.^.^.`.'.'.'.'.{.'.'.'.}.",
"|.'.[.[.[.'.[.[.'.'.{.j @ * < z 1 A %.F <.v.l.v.c.b.@.w w @.yX5X4XtXyXM.w w e c.v.v.z.z.v.*.F %.x 1 z ; * o p.XX'.'.{.'.'.{.'.}.",
"wX'.[.{. X}.'.[.[.|. X*     , z z i n f <.m.z.z.x.b.@.w w @.yX4XtX4XyXM.e w e x.z.z.x.z.v.%.f g 6 z z       R XX'.'.'.'.[. X{.wX",
"|.`.[.{.[.[.[.[.'.{.[.j + * < < , A %.G ,.j.r.j.j.l.>.w w >.tX4X4X4X4XN.e e +.f.j.j.h.h.h.&.G G 2 1 1 + @ O p.{.'.'.{.'.[.[.[.|.",
"wX).[.[.[.[.[.[.[.'.[.(.(.`.>     T.aXaXA X @ i &.F ,.k.h.j.b.b.v.v.b.v.k.h.f.%.%.g @ X o -XaXaX3   . a.^.!.`. X}.{.'.[.[.[.'.}.",
"wX[.[.[.{.[.'.[.[.{.[.{.{.'.:     T.fXfXc .   t n f ,.n.v.v.v.z.l.z.z.z.v.b.j.l n f       :XfXfX3     Q.XX'.|.'.{.}.'.{.{.[.[.}.",
"|.'.[.[.[.[.[.[.[.[.[.).).`.5 . X R.zXsXc . O i %.n ,.j.h.j.j.j.j.j.j.j.j.l.<.%.G l + O O -XfXsX7 . o s.'.).'.'.'.'.'.[.'.[.'. X",
"wX'.[.[.[.[.[.[.[.[.[.E G L c.M.M.6X6XyX&XOXOX%X>XsXY X & % % % % % % % $ % 4 >XaX:XOXOXOXnXCXVXB.B.B.:.K G E.].'.'.'.[.[.[.'.|.",
"|.'.[.[.'.[.[.[.[.[.[.L h l 3XyXyX4X4X5X&X@X#XgXsXlXU .                     @ aXdXdX*X*X@XnXZXZXuXV.V.*.g h d.]./.'.[.[.[.[.'.}.",
"wX'.[.[.'.[.[.[.[.[.[.L h F 2XtX4XtXtXtX&X@X#XgXsXlXU                       @ aXsXdX*X#X#XVXZXZXuXV.V.:.n h d._./.(.[.[.[.'.'.}.",
"}.).[.[.[.[.[.'.[.[.'.L h %.j.m.b.m.b.M.W C C I.U.U.H.b C.b b b b b b b b v A.U.U.U.C C C ,X6X2X3XN.N.=.n h E..X'.'.[.'.{.'.'. X",
"}.`.`.`.[.[.[.[.[.[.[.L h F h.l.l.z.l.z.H 5 4 C.K.F.J.L.L.L.L.L.L.L.L.L.L.L.L.F.K.F.5 4 4 <.k.k.b.l.l.&.n h d.{.{.'.'._.`.`.'. X",
"}._.`.`.[.[.[.`.`.`.`.L h n h.v.z.z.b.m.J 6 u Z.K.J.F.F.F.F.F.F.F.G.F.F.F.F.F.G.J.D.c 7 7 2.m.b.b.b.x.=.l h d..X'.'.`.`.`.`.'. X",
"|.'.[.[.'.[.{./././.`.~.E.E.:.*.*.f t t & o . Y.iX$XiXjXhXjXjXjXjXhXhXhXhXjXpX$X$XT.; X @ 4 t t &.*.*.d.~.d.).{.'.'.'.'.'.'.`. X",
"|.'.'.[.}.'.'.'.`.].[.{.{.].L g g o           T.zXsXbXBXBXBXBXBXBXBXBXBXBXBXNXsXfX>X. .         y g F ~..X{.'.'.'.{.'.'.'.'.|.}.",
"wX'.'.wXwXwX[.[.[.[.[.'.[.'.L h F &           T.cXsXbXCXMXBXMXNXMXBXNXBXMXNXNXdXfX:X. .         f F n ~.{.[.[.[.[.[.[.`.}.XXwXwX",
"|.'.[.[.[.{.'.[.[.[.[.[.}.'.~.d.d.s.p.a.l Q 9 D T Y U S S S S S S S S S S S S U T Y e ) Q P a.a.d.~.E.).[.[.[.[.'.[.[.[.[.[.[.wX",
"wX'.[.'.'.[.[.[.[.[.[.[.'.[.{..X[.{.{..X,. . .a 5 7 o                         4 5 u { ] { ;X.X{.{.{.{.{.[.[.[.[.'.[.[.[.[.'.'.}.",
"wX'.[.'.[.'.'.[.[.[.[.'.[.[.'.'.'.{.XX.X,./ ..a 6 7 @       .               . 6 6 u { { ) g..X X[.'.'.[.`.[.[.[.[.[.[.[.'.[.'.}.",
"}.'.[.}. X{.'.[.[.}. X X'._./.`.{.s.R p.i 0 0 l L :.A 3 5 @           . 5 5 7 =.L K 0 0 0 P R R (. X{.`.`./.`.[.[.[.[.[.[. X}. X",
"wX'.'.}.[.[.'.[.'.{.{.}.`.`.`.`.'.j           :.m.b.g.T E u       .   @ E T E n.m.h.            s.XX[.`.`.`.[.[.[.'.[.[.{.{.[.|.",
"}.'.'.'.[.[.[.{.[.'.'.'.'.{.'.'. XM   .     . +.n.n.g.T E k           . E E E k.n.0.          . s.{.[.[.[.[.[.}. X[.[.[.[.[.'.}.",
"wX'.'.'.[.[.[.[.[.[.'.{.[.[.[.`.XXj     x V m Y.-XW.T 6 M A B B B B B P 7 7 A W.W.W.C V V +     s.XX[.[.[.[.[.[.{.{.[.[.[.[.[.}.",
"wX'.[.[.[.[.[.'.[.[.[.[.'.[.[.'.{.j     U.=X=X+XoXoXV     N rXXXXXXXXX'..   + oXoXoX#X#X#X<     s. X'.'.'.{.'.'.'.'.[.[.[.[.[.}.",
"|.[.[.'.[.[.[.'.[.[.[.[.[.[.[.'.].j     S.=X=X+XoX+XV     M XX`.'.'.'.^.    O oXoX+X#X=X*X;     s.XX'.{.{.'.'.'.[.'.[.[.[.[.[.}.",
"|.'.{.'.'.[.[.{.[.[.'.'.[.[.[.'.'.p.M N S.S.S.Z.V Z.V P M s.{.'.'.'.[.(.B M B Z.Z.V S.S.S.Z N N !.{.'.'.'.'.`.`.`.'.[.[.[.[.[.}.",
"wX'.[.[.'.'.'.[.[.[.'.'.[.[.'.[._._._..XM . . .     N rX.X[.'.[.'.'.}.`.].]._..           !.XX X{.'.'.'.{.'.`.`./._.[.[.[.'.'.}.",
"|.'.[.[.'.'.[.'.[.[.[.[.[.[.[.[.{.{.'.{.j           M XX`.'.'.[.[.'.'.{.'.'.^.            s.{.'.'.[.'.{.'.{.}.{.'.'.'.'.[.[.'. X",
"}.).`.`.'.{.[.{.[.[.'.[.[.[.[.{.}. X'.{.B > j j j > p.XX'.'.[.[.{.[.[. X]..X(.j > j j j j !.{.'.'.[.[.[.'.'.}.'.{.'.'._.`.'.`. X",
"}._.`./.'.[.'.'.`.`.[.[.[.[.[.'.'.'.{.`._.]._.{.{.{.'.'.`.'.[.[.[.'.'.'.'.[.'._._._.{.{..X'.`.`.'.'.[.'.{.'.'.'.'.'.`./._._.'. X",
"|.`.[.`.'.'.{._._._.`.[.[.[.[.[.{.'.'.[.`.'.'.'.'.'.`./._.`.[.[.[.[.'.[.[.[.[.`.`.'.'.'.'.'._.`._.'.{.[.'.'.{.'.{.'.`.'.'.'.'.|."
};
