/* XPM */
static char *ea7e433ea86a46948329fd1d45002a75gQ7zE7XiJYYiUrai[] = {
/* columns rows colors chars-per-pixel */
"64 64 229 2 ",
"   c #010101",
".  c #040B0B",
"X  c #080809",
"o  c #180907",
"O  c #08110E",
"+  c #1F140F",
"@  c #010D14",
"#  c #000F1B",
"$  c #051516",
"%  c #0E1914",
"&  c #00131C",
"*  c #151817",
"=  c #2C1513",
"-  c #14251C",
";  c #000D23",
":  c #011C26",
">  c #01242D",
",  c #0E2128",
"<  c #182C2D",
"1  c #1B332A",
"2  c #012B33",
"3  c #042835",
"4  c #00343E",
"5  c #0E323B",
"6  c #163338",
"7  c #252424",
"8  c #3C2928",
"9  c #3B2C2F",
"0  c #20372B",
"q  c #22392D",
"w  c #282935",
"e  c #273833",
"r  c #383938",
"t  c #4D1712",
"y  c #681A1D",
"u  c #41201D",
"i  c #73231D",
"p  c #641E20",
"a  c #5E2525",
"s  c #592929",
"d  c #4F3431",
"f  c #662525",
"g  c #692324",
"h  c #642728",
"j  c #64292A",
"k  c #692A29",
"l  c #752621",
"z  c #782823",
"x  c #62372A",
"c  c #693838",
"v  c #743C3D",
"b  c #783D3B",
"n  c #274538",
"m  c #5E473A",
"M  c #684535",
"N  c #77433E",
"B  c #001D48",
"V  c #0E2E4C",
"C  c #003641",
"Z  c #013944",
"A  c #002455",
"S  c #353A41",
"D  c #373E6A",
"F  c #723F43",
"G  c #07435B",
"H  c #30504D",
"J  c #3C6754",
"K  c #044F74",
"L  c #3E4575",
"P  c #4F4F4F",
"I  c #4B4B51",
"U  c #754142",
"Y  c #7B4342",
"T  c #7A4A4A",
"R  c #6B5449",
"E  c #6F504D",
"W  c #525C64",
"Q  c #74586A",
"!  c #4A7E65",
"~  c #6C7765",
"^  c #6C7A66",
"/  c #861E16",
"(  c #AC1C01",
")  c #B51C01",
"_  c #87251A",
"`  c #9C2513",
"'  c #992919",
"]  c #B42106",
"[  c #B92206",
"{  c #B5250B",
"}  c #BA240A",
"|  c #B8280E",
" . c #B02812",
".. c #B72D16",
"X. c #8C362D",
"o. c #B63825",
"O. c #A53B36",
"+. c #C0290E",
"@. c #D03C29",
"#. c #A2403D",
"$. c #B6483C",
"%. c #D84331",
"&. c #844845",
"*. c #8A504A",
"=. c #8E5851",
"-. c #94695A",
";. c #A76856",
":. c #AA7158",
">. c #BB755D",
",. c #855A60",
"<. c #9B776A",
"1. c #AF7B66",
"2. c #CC504B",
"3. c #E95246",
"4. c #F35C52",
"5. c #F85D54",
"6. c #C2675C",
"7. c #F0655D",
"8. c #FE655E",
"9. c #C67462",
"0. c #FF6761",
"q. c #FF6962",
"w. c #FA726D",
"e. c #FA7B77",
"r. c #4C846B",
"t. c #4B8570",
"y. c #5A997D",
"u. c #718E76",
"i. c #6E967B",
"p. c #A38A6F",
"a. c #C68367",
"s. c #D48C6E",
"d. c #DA8F6D",
"f. c #D59170",
"g. c #DC9372",
"h. c #D99775",
"j. c #E6956F",
"k. c #E49775",
"l. c #E59977",
"z. c #DAA37C",
"x. c #E6A47D",
"c. c #003B8C",
"v. c #044D95",
"b. c #0E668C",
"n. c #0147A9",
"m. c #004BB5",
"M. c #0151BB",
"N. c #2C58A0",
"B. c #0074AA",
"V. c #0478AF",
"C. c #2C63B7",
"Z. c #6E7E8C",
"A. c #0256C6",
"S. c #3069C1",
"D. c #A17F80",
"F. c #0F85BF",
"G. c #6D9D82",
"H. c #768D92",
"J. c #5DA586",
"K. c #5EB38F",
"L. c #63A787",
"P. c #72AB8C",
"I. c #66B08F",
"U. c #69B593",
"Y. c #62BC97",
"T. c #6BBA96",
"R. c #65BF99",
"E. c #6DBE9A",
"W. c #72B594",
"Q. c #71BD9A",
"!. c #5D8DAC",
"~. c #66C19A",
"^. c #6DC29C",
"/. c #71C59F",
"(. c #72C6A0",
"). c #7BC6A5",
"_. c #75CAA4",
"`. c #7CC9A6",
"'. c #7CCCA9",
"]. c #73D0A7",
"[. c #72D1A9",
"{. c #74D2A9",
"}. c #7AD3AB",
"|. c #74DAAF",
" X c #0086C7",
".X c #008ACA",
"XX c #1387C1",
"oX c #008FD2",
"OX c #0293D8",
"+X c #2D91CA",
"@X c #009BE2",
"#X c #39B5FC",
"$X c #44A1DC",
"%X c #53AFE7",
"&X c #AC8B9C",
"*X c #9391A5",
"=X c #AD96AC",
"-X c #B095AB",
";X c #AC9CB7",
":X c #B09BB3",
">X c #AEA5B3",
",X c #AAA3BA",
"<X c #EBAC82",
"1X c #EDB488",
"2X c #F5BC8D",
"3X c #CEB1B7",
"4X c #E8ADA3",
"5X c #82CDAB",
"6X c #85D1AD",
"7X c #84DBB6",
"8X c #FDC794",
"9X c #FBC894",
"0X c #AAA7C5",
"qX c #AEADCC",
"wX c #B3ABC6",
"eX c #AFAFD0",
"rX c #AFB5D8",
"tX c #B2B3D4",
"yX c #B9BADC",
"uX c #CEB8C6",
"iX c #E8BEC5",
"pX c #B2D3F0",
"aX c #E4D1DB",
"sX c #D6D5E8",
"dX c #E6DDEA",
"fX c #E9E6F4",
"gX c #ECECFB",
"hX c #E9F1FF",
"jX c #F8F6FF",
/* pixels */
").E.^.Q./.^.^.E.^.Q.).^.E.^.T.^.~.^.Q.E.E.E.E.Q.Q.E.E.E.E.Q.Q.^.E.T.E.E.E.E.E.E.^.Q.(.^.^.Q.^.^././.E.E.T.^.^.^.E.^.E.^.E.(.^.).",
"5X^._.'.`.`./._./.'.'.'.^.R.~.~._.].].].].].}.}.}.].{.].}.7X}.}.~.[.^.{.{.{.{.{._.'.'.`.(.(./.`.`.'.`.~.^.R.(.(.(.(.(.(.`.'.).'.",
"5X^./._./.(.(././._./._./.E././._.i.~ ^ ^ ~ ^ ~ ^ ^ ^ ^ ^ ^ ^ ^ ~ ^ ^ ^ ^ ^ ^ ^ ^ u.^./.(.(.(./.(._.(.^./.^.(.(.(.(.(.(._.(.^.`.",
"`.(.(./././.)./._./././././././.`.~ y f g g g g p g g g g p g p p f p p p g g p y x W././.(.(.(.(.(.(.(.(./._.`.'.(.(.(.(.(.(.`.",
"5X/.(.(.(.(./._./._.(.(.(.(._.(.|.^ y j h s a s h a a a a a a a f p a s h s h j a c T.]._./._./.(.(.(.(.(.(.(.(._._./._.(.(.(.`.",
")./._.(./._.(././.(.(._.(._.I.u.P.E / _ X.#.O.O.#.O.#.#.*.O.#.O.O.*.O.O.O.#.O._ _ X.u.i.i./././.(.(.(.(.(.(.(.(./././.(.(.(./.`.",
"5X/.(.(.(.(.(._._././././.{.~ y h ` +.) @.w.8.0.q.0.q.0.8.0.0.0.q.q.0.0.0.q.0...} | l f c W././.(.(./.(.(.(.(.(./.(././._./.^.'.",
")./.(./././.(.(.(././././._.~ y h ` ] ( @.0.8.8.0.8.8.8.8.8.8.8.0.0.8.8.8.0.4.} ( ( g h c ^.]._._././.(.(.(.^.~.R./._././._.^.`.",
"5X/._././._._./._././././.{.~ y h o.@.@.%.w.8.8.8.8.8.8.8.8.8.8.8.8.8.8.0.0.8.6.9.6.X./ X.u.i.i.E._././._./.^.^.^.~._././././.`.",
"`././././././././././././._.~ y h 2.q.q.0.8.8.8.8.8.8.8.8.8.8.8.8.8.8.0.0.5.w.dXgXdX@.) { l a f P._./././._.`._.)._././._././.`.",
"`.^.^././._./._.(.(.(._./.|.^ p h 2.0.7.8.8.8.8.8.8.0.8.8.8.8.8.0.8.8.8.8.8.q.dXhXfXo.{ { g k k P.]._._./.(.`._.`././.~.~././.`.",
"`.~.^.^./././.^.~.^./.P.i.P.E / i 2.q.8.8.0.8.8.0.8.8.8.8.0.0.8.8.8.8.0.0.0.q.iXiX4Xo.]  .l h j u.i.i.W._./././.^./.^.~.^.^./.`.",
"`././././././.^.~.~.^.R y h ` } ( 3.q.8.8.8.8.8.8.8.8.8.0.8.8.8.8.0.0.8.8.8.8.5.8.5...} { l h k f h f i.]./././.)././._._./.^.`.",
"5X^././.`.`./././././.R g k ` } { 3.q.0.8.8.8.8.8.0.8.q.8.8.8.0.8.8.8.8.8.8.0.5.8.5...{ { l k g p p y i.{._._./././././._._.}.`.",
"5X/.).6X5X6X/._./././.R p k ` } { %.5.3.5.8.8.8.8.8.8.8.8.8.8.8.8.8.8.8.8.8.8.e.e.w...[ { l h h U T &.u.J.L.E././._././.`.5X5X5X",
"5X/./././._./././._./.R g k ` } { { | ] %.q.8.8.8.8.8.8.8.8.8.0.8.8.8.8.0.8.w.aXfXaXo.{  .g j g >XgXgXP   X r.}././._././././.`.",
"5X^./././././././.(.(.R g h ` } } [ { ] %.q.q.q.0.0.0.0.0.0.0.0.0.0.0.0.0.8.w.dXhXdXo.)  .z j p 3XhXhXP     r.}././.(.(.(.(.(.`.",
"5X/././.`././._.(./._.R g j ` } { { { ] @.4.4.4.4.4.4.4.4.4.4.4.4.4.4.4.4.4.0.iXaXiX$.o.o.z z p 3XhXgXP     r._./.(.(.(./.(./.`.",
"/././.).`.`./././._.'.R p h ` } { { { { { | { | | | | | { | | | { | { | { |  ... .o.=X0X;Xo.) ] 3XhXgXP     r.}././.(.(.(.'._.'.",
"5X/./.)./._./._._._._.R g j ` } { { { { { { { { { { { { { { [ { { { { { { { | ) )  .0XrX0Xo.) ) 4XhXgXI     r.}././.(.(.(._.(.`.",
"5X/._./././._./.T.T.~.R t a /  .` { { { { { { { { | [ { { | | { { { { | { { | | { ..&X0X-X$.o.o.uXhXgXP     r.}.)._.(.(.(.(.(.`.",
"5X/././._././.^.1 * - X X X t z g ` [ { { { { { { { { { { { { { { { { { { { { { { { ....o.-X0X;XsXfXhXP     r.}.(.(.(.(.(.(.(.`.",
"`./._./././._.T.X           t k h ` { { { { } { { { { { | [ { { { { | [ { { { } | ) ) ) ..:XrXeXsXfXhXI     r.'.^.(.(._.(.(./.`.",
"5X/._./././.`.^.O           u k a ` { { { { { { { { { { { { { { { { { { | ) { |  . . .....-XtXqXsXfXfXP   X r.]./.(.^._.(.(./.`.",
"`./././.^.n q q 2 2 2 2 2 2 5 6 5 s i g l l l _ } { [ { { { { { { { { { { { ..&X-X-X-X-X-XqXeXeXW 7 r y.L.J.U.~.Y.^.(.(.(.(.(.`.",
"5X/././.T.      4 Z C Z Z C 4 4 Z d g h h h h _ } { { { { { { { { { { [ { [ ..0XrXrXrXrXrXeXqXtXw     y.|._./.^.^.^.(.(.(.(.^.`.",
"`././.`.T.%   O 4 4 4 4 4 4 4 4 C d k h g k h i ] { { { [ { { [ { { { { { { ..;XrXeXqXwXqXqXqXqXS   O y._./._._.(.(.(.(./._./.`.",
"`.^.^././.J.L.y.$ . . 2 Z 4 C C 4 5 6 6 6 6 5 d z z z z i z z l z z i z z z z U T F N.C.C.Q ,.,.i.L.L./././.`._.`./.^.R.^.^./.`.",
"`.~./.~./.`.}.T.X     > Z 4 4 4 4 C C C 4 C 4 e g j h h h h h h h k h f h h h g p s n.m.n.c b N P.{._._././././././.^.~.~.^./.`.",
"5X^./././._._.U..     > Z 4 4 C C C C C 4 4 4 w l h h k f f h k f f f g h h g h j j n.m.m.E N U L.(.(./././._./././././._./.^.`.",
"`././././.n n n 2 > > 4 4 C 4 C 4 4 C 4 I p.<.a.f.z.-.5 6 d >.>.>.>.9.-.+ o = ;.>.>.<.D.<.T v U P._.(.(./._./._._././././._.`.).",
"5X^./.5X/.      4 Z Z 4 4 4 4 4 4 C C 3 R l.d.x.9X9Xp.Z 4 H h.h.g.g.l.:.    o a.k.g.k.j.d.*.v U P._.(.(._./././._./././.).'.5X5X",
"`././._.E.%   . 4 Z 4 Z 4 4 4 4 4 4 C 4 W g.s.h.2X9Xp.4 3 H f.s.s.s.d.:.    o a.d.s.f.s.s.&.F Y P._././.(._./.(.(.(.(././.(./.`.",
"5X/._././.J.y.J.K.J.K.n . @ 2 4 4 : @ . M k.s.<X9X2Xz.-.<.1.f.s.g.1X2Xf.d s x z.1X<X;.*.=.P.W.P./._./._.(.(.(./.(./._.(.(././.`.",
"`././././._._.`.(./.`.1     > Z 4 @     x k.s.l.2X2X<Xj.k.d.d.s.h.8X8Xz.Y Y *.1X8X1X*.c E Q._.(./._.^._././.(.(.(.(.(.(./._./.`.",
"5X/._._.`.`././.{.6X7Xq     2 Z Z @     x x.s.<X9X9X<Xs.f.s.d.s.h.8X8Xz.F c T 1X8X2X*.v T Q.(.`.`.`.).~.~.R./.(.(./.(./.(.'._.'.",
").^./._.(.(._.^.J J J < > & : $ & : : $ d ;.;.;.1.1.9.f.d.d.d.f.g.l.<Xg.;.;.;.1.1.1.u.i.G./.(./._._._.^./.^././.(.(.(./.(.).(.`.",
"5X/././././._.T..     > Z Z O     > Z Z S F c F F c =.g.s.d.f.s.s.s.s.s.g.k.d.F c R Q._.).(.(./._.^././././._.`.'.(.(._.(.(.(._.",
"5X/./._././._.T..     > Z Z @     > Z 4 S &.Y Y Y b ;.l.l.l.l.l.l.g.g.g.d.d.s.*.Y =.W._././.(._././._._._.(.(._._._.^._.(./.(.`.",
"5X/././._./._.^.J J J < & & & @ @ > 2 2 w m d c b F v M M M M M U ;.;.;.;.;.;.u = d W.)././.(././._././././././././.(.(.(._./.`.",
"5X/./././.)././.}.}.}.q     : > > > > : < r r d F F u           X c c c F F j X   O I._./._./._./.(./._._./._./.(.(.(.(.(.(.(.`.",
"5X/.)./././.)./././.^.q     @ & & & # # , r S d &.&.s           + &.&.&.Y X.v X   % I._./././.(.(././././._.~.~.R./.(.(.(.(.^.).",
"/./././././././.(.(._.q     W H.Z.Z.Z.H.W r S 9 u u w A A A A A V u u 8 D L D X   % I._./._././.(././.(./._.^.T.R.R.(.(._./.(.`.",
"5X/././././._./.(.^._.q     >XjXgXjXjXjX>X7 S *     B A.M.M.M.A.c.    ; m.A.n.@   % I._./._./._._.(./.(././._._.(.(.(.(./._.^.`.",
"`.^.^.^._././._.(.(._.1     >XjXfXfXgXjX*X7 n 7     B m.n.n.n.m.c.    ; n.m.n.@   % I._././._././.(._./././._._.`./.^.~.~.^._.`.",
").~.^.^./._./.^.~.^./.q   . H.pXpXpXpXpXH.8 d 7     V S.C.C.C.C.N.+ o w C.C.N.#   % I._./.^.^.^.^./._./._./././././.^.~.^.^./.`.",
"5X^./._./././.~.R.R.^.q     b.oXF. X.XOXb.9 S 7     I yXwXtXeXyX=XY F ,.qXtX;X*   % I._._./.Y.^.T./.(./././._./._././._././.^.`.",
"5X^././.`._././.(.^./.1     b.@XoX.XXXOXb.8 r *     I yXeXeXeXrX*XF X.,.tXyX0X*   % U.`././././._.(./.(._./._./._././././._.`.`.",
"`././.5X5X6X/././._.(.J 1 q b.B.B.F..XoXb.H H 6     I wX>X,X>XwX*Xc s E *X*XD.%   % T.6X)./././././._./.(.(.(.(.(.(.(.(._.5X5X5X",
"5X/./././.)./././._._._.Q.}.J     v.oX.X.X.XOXK     x l.s.d.g.l.;.          .     % I.`././._._._././._.(.(.(.(.(.(.(.(.(.(./.'.",
"5X/./././././._./._./././.}.H     b.@X.XoXoX@XK     d l.d.g.g.l.:.                O I././././././.(.(./.(.(.(./.^.(.(.(./././.`.",
"5X/././._./././././.(././.].! 1 q b.V.B.B.B.V.K o o x s.a.a.9.a.;.= = +     X 1 0 n T././._././.(.(./.(.^.(.(.(.(.(.(.(./.(./.`.",
"5X^._.`.`._./././.`.5X`./.~.~.T.}.J   X       t [ ) ' T F F b F *.s.g.:.    % W._._.}.`./././.).`.'._.~.^.R./.(.(.(.(./.(.'._.'.",
")././.`./._./._./.`./.]./.~.^.^.}.J           t +.+.' F X.F F v *.d.g.:.    % U._.)._.(._./._._._._._.^./.^././.(.^._./.)._.(.`.",
"5X/././././._./././.`./././././.}.J   % O O . t ) ) ' F U U U F =.a.h.:.    % I._././././._./././.(./.(.(.(.(.`.'.(.(._.(.(.(.`.",
")./././._./._././._././././././.`.(.Q.T.T.T./.! o o S XXV.+X$X$X#X%X%X!.X   % I._././._./._./.).(.(._./.(.(.(.(.(._./.(.(._.^.`.",
"5X/._././._._././././._./././././._./._._./.}.r.    A @XoXOX#X#X#X#X#X+X    % I._./._._./././././././././.)././.(./.(.(.(.(.(.`.",
"`._./././././././._./._./._./._.(.(././././.`.r.. X G OX.XOX#X#X#X#X#X+X$ . - U._././././._._./.)._./._././././.(.(.(._.(.(./.`.",
"`././././._./._._./././././._././.Y.~./._._./.^.T./.t.: : , 3 , : , > H I.K.T./._./._././._./._././././._././.~.T.(.(.(._.^.^.`.",
"5X/.)././././._././././._._././.~.Y.R.^./././._./.}.!                 - ~.R.^.(./././././._./././././._././.^.~.~.~.(.(._._.^.`.",
")./././._./././._./._././././.`._._._./././._././.}.r.  .   X     .   1 _._.(.(././._././._././._././._._./._._./././././._./.`.",
")./.^././././._./././././._./._.`.`._.^./.^.^././._.U.y.y.y.y.y.y.y.y.L._._.(.E.~.^././././._././._._././.(.)._.`././.~.~./.^.`.",
").~.T.Y./._./././././._._./././././._.^.~.~.~.^._././._._._._.`.].'._._.(.(.(.Y.Y.Y.^._._././././././././././._./._.~.~.R.~./.`.",
"`.^./././././.~.~.~.^./././._./._./././.^./././././.^.Y.Y.~.(./././.^.(.(.(._.^././././././.~.^.~./._./._./././././.^././._./.`."
};
