/* XPM */
static char *_ea4da1fc0104ac1815a1cf3280f3b79OLoLnssIzpHmh9BN[] = {
/* columns rows colors chars-per-pixel */
"64 64 238 2 ",
"   c #000101",
".  c #0A0B07",
"X  c #00060A",
"o  c #010B0C",
"O  c #09110F",
"+  c #000712",
"@  c #010D13",
"#  c #061618",
"$  c #171819",
"%  c #250B08",
"&  c #231413",
"*  c #14231C",
"=  c #041721",
"-  c #001A24",
";  c #011D2B",
":  c #1D1F25",
">  c #0E2424",
",  c #00232D",
"<  c #182727",
"1  c #1B342B",
"2  c #062430",
"3  c #002C34",
"4  c #002F38",
"5  c #192A31",
"6  c #063136",
"7  c #00343E",
"8  c #0A333D",
"9  c #173238",
"0  c #262C2F",
"q  c #38312C",
"w  c #352D32",
"e  c #273832",
"r  c #363636",
"t  c #5B1207",
"y  c #7A1503",
"u  c #671713",
"i  c #5F2011",
"p  c #772519",
"a  c #661E21",
"s  c #442A2C",
"d  c #4B2B2D",
"f  c #5A2729",
"g  c #5A282A",
"h  c #493636",
"j  c #652324",
"k  c #6B2625",
"l  c #662827",
"z  c #652A2A",
"x  c #6B2A29",
"c  c #752623",
"v  c #7D302E",
"b  c #683432",
"n  c #773838",
"m  c #753C3D",
"M  c #284739",
"N  c #73473C",
"B  c #003640",
"V  c #003943",
"C  c #04354B",
"Z  c #0B3351",
"A  c #28364B",
"S  c #6A3C45",
"D  c #335D4A",
"F  c #2C4B51",
"G  c #36634F",
"H  c #376451",
"J  c #396451",
"K  c #034768",
"L  c #164D6C",
"P  c #094E72",
"I  c #02547A",
"U  c #2B556C",
"Y  c #1F656F",
"T  c #386D66",
"R  c #58514E",
"E  c #5C5B5A",
"W  c #694D44",
"Q  c #7B4543",
"!  c #6A5147",
"~  c #6A5549",
"^  c #735148",
"/  c #6A5755",
"(  c #775E57",
")  c #43765E",
"_  c #6A6458",
"`  c #74675A",
"'  c #586262",
"]  c #477B64",
"[  c #6C6968",
"{  c #726B6C",
"}  c #6A7864",
"|  c #881A07",
" . c #AD1C00",
".. c #B01F04",
"X. c #BF1D03",
"o. c #852719",
"O. c #942515",
"+. c #9C2412",
"@. c #AA230D",
"#. c #B22105",
"$. c #BC2407",
"%. c #B5240B",
"&. c #BA2409",
"*. c #A12411",
"=. c #AB2A14",
"-. c #B63016",
";. c #943327",
":. c #C21E04",
">. c #C12509",
",. c #C32F17",
"<. c #CF3B29",
"1. c #844339",
"2. c #D5402F",
"3. c #D74536",
"4. c #D84332",
"5. c #8B534B",
"6. c #95574D",
"7. c #A06545",
"8. c #865E66",
"9. c #8F6867",
"0. c #986F65",
"q. c #CB4F49",
"w. c #EA5448",
"e. c #E9554B",
"r. c #E95D56",
"t. c #EB5E59",
"y. c #F65D53",
"u. c #FE655E",
"i. c #C37C62",
"p. c #FF6760",
"a. c #FF6963",
"s. c #FF6D69",
"d. c #4D856B",
"f. c #528D72",
"g. c #569579",
"h. c #728E76",
"j. c #73927A",
"k. c #D48E6E",
"l. c #E29E79",
"z. c #D4A77C",
"x. c #003E97",
"c. c #203F86",
"v. c #035A83",
"b. c #00429A",
"n. c #135C96",
"m. c #0D608A",
"M. c #1A6489",
"N. c #2B6F92",
"B. c #367795",
"V. c #0046A9",
"C. c #004AAD",
"Z. c #0247B1",
"A. c #004DB3",
"S. c #0058B7",
"D. c #1254B3",
"F. c #096DAB",
"G. c #007BB5",
"H. c #2879A6",
"J. c #3967B2",
"K. c #5E728F",
"L. c #77778D",
"P. c #7C7B89",
"I. c #5272B1",
"U. c #0273C3",
"Y. c #207FC5",
"T. c #4A7DC5",
"R. c #1081B5",
"E. c #2582AF",
"W. c #749C82",
"Q. c #7F8895",
"!. c #65A889",
"~. c #72A588",
"^. c #69B593",
"/. c #65B894",
"(. c #6AB995",
"). c #64BF99",
"_. c #6CBE99",
"`. c #72B995",
"'. c #72BD9A",
"]. c #66C19B",
"[. c #6DC29C",
"{. c #71C59F",
"}. c #6DC9A2",
"|. c #72C6A0",
" X c #7BC6A4",
".X c #74CAA4",
"XX c #7CCAA6",
"oX c #7CCCA9",
"OX c #73D5AB",
"+X c #77D4AB",
"@X c #7AD2AB",
"#X c #0686C4",
"$X c #0086CA",
"%X c #008BCD",
"&X c #0B8FCA",
"*X c #008ED2",
"=X c #0192D4",
"-X c #0295DB",
";X c #2899D2",
":X c #019AE3",
">X c #129CE3",
",X c #2A97E8",
"<X c #17A1E8",
"1X c #3BB5FD",
"2X c #3DBAFF",
"3X c #7990C6",
"4X c #54ABDB",
"5X c #58ACD8",
"6X c #56B2E4",
"7X c #3FC3FF",
"8X c #40C4FF",
"9X c #9196A9",
"0X c #9497B6",
"qX c #9DA5B7",
"wX c #A8ACB8",
"eX c #B4AEB7",
"rX c #CF9E8D",
"tX c #E6B08C",
"yX c #C6B5BD",
"uX c #82CDAB",
"iX c #84D2AE",
"pX c #FDC492",
"aX c #94A0CB",
"sX c #ACACCC",
"dX c #ADAFD1",
"fX c #B1B0D0",
"gX c #B6B6D5",
"hX c #C2BEDC",
"jX c #D2D2D3",
"kX c #CBD5E8",
"lX c #D6DBED",
"zX c #E3DFF0",
"xX c #D7E1EF",
"cX c #E7E5F0",
"vX c #ECEAF5",
"bX c #EBEAFA",
"nX c #F4F3FD",
"mX c #FDFDFB",
/* pixels */
" X_.[.{.{._.[.[.'.[..X'._._.)._._._._._._._._.[.'._.[.[._.|._._.'.)._.[._.[.[.'.[.[.|.'.[.[.[._.{.|._.[.).[.{._._.{._._._.|.[. X",
"uX[.|.XXXXXX|.|.|.oXoXoX|.).].[.|.|..X.X.X.XoX|.oX|.|.|.oXoXoX.X).[.].|.|.|.|.|.|.oXoXXX|.|.{.XXXXoXXX).[.].{.|.|.|.|.|.XXoX.XoX",
"XX{.|..X{.|.|.|.{..X|.|.|.).|.|.|..X|.|.|.|..X|.|.|.|.|.|.|.|.|.[.|.[.|.|..X|.|.[..X}.{.{..X|.|.|..X|.[.[.[.|.|.|.|.|.|.|.|.|. X",
"uX|.|.{.|.|.|.|.|.|.|.{.|.|.|.|..XoXoX'.~ ! ! ! ! ! ! ! ! ! ! ! ! ! ! ! ~ ~ ! ! ! ! ~ N } .X|.|.|.|.|.|.|.{..XXXoX|.|.|.|.|.|.XX",
" X{.|.|.|.|.|.|.|.|.}.|.|.|.|.|..X|..X'.z a a a a j a j a j j a a a j j a a j a j j l a _ .X{.{.|.|.|.|.|.|.|.|.|..X|.|.|..X|.XX",
"uX{.|.|.|..X|.|.|.|.|.|.|.|.|.|.|.|.}.'.b k x z x x x l x x x x x x x l x x x x z z x a _ .X{.[.|.|.|.|.|.|.|.|.|.{.|.|.|.|.|.XX",
" X{.{.|.|.|.|.|.|.|.|.|.|.|.|.|.'.~ W ^ =.@.=.e.t.r.r.r.r.r.r.r.r.r.r.r.r.r.t.r.r.3.@.#.;.~ N h..X|.|.|.|.|.|.|.|.|.|.|.|.|.[.XX",
"uX{.|.|.{.|.|.|.|.|.[.|.|.|.|.|.^.z a c &.....y.a.p.p.p.p.p.p.p.a.u.a.u.a.u.p.u.u.w.#.$.+.j u _ .X{.{.|.|.|.[.].].[.|.|..X|.[.XX",
"uX{.{..X{.{.{.{.|.|.|.|.|.|.|.|.^.b l c %.%.%.y.p.u.u.u.u.u.u.u.u.u.u.u.u.u.u.u.a.3.%.&.O.g l _ .X{.{.{..X{.[.[.].[..X{.{.|.{.XX",
"uX{.{.{.|.{..X{.|.|.|.|.|.|.|..X Xb a v e.r.y.y.u.u.u.u.u.u.u.u.u.u.u.u.u.u.u.u.u.u.e.y.3.f j _ .X.X{.{.{.{.oX X X.X{.{.|.|.{.XX",
" X[.[.[.|.|.{..X|.|.|.|.|.|.[..X'.b a 1.a.p.p.u.u.u.u.p.u.p.u.u.a.u.u.u.u.a.u.u.u.u.a.s.q.z a _ |.{.{.{.{..XXX.X.X{.{.].[.[.{.XX",
" X).[.[.|.|.{.{.].[.|.|.|..X.XOX].b a n p.u.u.u.u.u.u.p.u.u.p.u.u.u.u.u.u.u.u.u.u.u.u.u.q.f a _ OXOX+X{..X{.{.{.{.|.].].[.[.|.XX",
"XX[.{.{.{.{.{.].].].[.|..X^.} } ` O.O.=.u.u.u.u.u.u.u.u.u.u.u.p.u.u.u.u.u.u.u.u.u.u.u.u.q.+.+.1.} _ h.}..X{.{.{.{.{.{.{.|.{.[.oX",
"uX{.{. XXX X.X{.|.|.[.{..X~.a a p $.%.,.y.u.u.u.p.u.u.p.u.u.p.u.a.u.u.u.u.a.u.u.u.u.u.a.e.$.$.*.a u W [..X{..X{..X.X{.{.|.oX@X X",
"uX{..XiXuXiX|.|.|.|.|.|.|.~.l l c %...,.a.a.s.p.u.u.u.u.u.u.u.u.u.u.u.u.u.u.u.u.u.u.a.s.w.#.%.+.l j ! [.{.{.{.{.{.{..X{.XXuXuXiX",
"uX{.{.{.|.|.{.|.{..X|.|..X~.l l c %.%.-.4.<.<.y.p.u.u.u.u.u.u.u.u.u.u.u.u.u.u.u.a.e.2.2.,.%.$.+.l j ! |..X{. X{..X{.{.{.{.{.{.XX",
" X{..X{.{.{.|.{.|.|.{.{.|.W.l z c %.%.%.......y.p.u.u.u.u.u.u.u.u.u.u.u.u.u.u.u.a.3. .#.#.%.&.+.z a W |.{.{.{.{.{.{.{.{.{.{.{.@X",
"uX{.{.{..X{.{..X|.|.oX@X+X~.x l c %.%.%.%.%.%.y.a.a.a.a.p.p.a.a.p.a.a.a.p.a.p.a.s.w.%.%.%.%.&.+.l c ! +X+X@X{.{.{.{.XX{.{.XX{.XX",
" X{.{. XoXXX{.{.|.@X!.D H D w w d %.%.%.%.%.%.<.4.4.4.3.2.3.4.4.2.2.4.4.2.4.3.4.3.<.%.%.%.%.&.O.0 w r H D T |.|.{.{.XX{..X@X.XXX",
"uX{.{.|.|.{..X{._.@X)   X o B B 1 %.%.%.%.%.%.%...#...%.#.......#.#.......#.#.#.#.#.%.%.%.%.>.c V V 3     * {.|.{.{.{.{.{..X{.XX",
"uX{.{.{.{.{.{..X.XiXd.    @ B B 0 %.%.X.%.%.%.%.&.%.%.%.%.%.%.%.%.%.%.%.&.%.&.%.%.%.%.%.%.&.:.o.B B 3     1 @X@X@XXX{.{.{.{.{.XX",
"XX{..X{..X{..X!.] f.D # # # 7 B e +.+.+.%.%.%.%.%.%.&.%.%.%.%.%.%.%.%.%.%.%.%.%.%.%.%.%.@.+.*.c B B 3 # @ 9 d.d.g.{.{.{..X{.{.XX",
"uX{.{..X.X{.@X]     # V 7 B 7 B 8 z z c %.%.%.%.%.%.%.%.%.%.%.%.%.%.%.%.%.%.%.%.%.%.%.%.+.f j s B B B B B 4     $ ^..X{.{.{.{.XX",
" X{..X{.{.{.@X)     # V V B 7 B 9 k k c %.&.&.%.%.%.%.%.%.>.&.>.&.>.>.%.%.%.%.%.%.%.&.$.*.z c d B B B B V 4     O ^..X{..X.X{.XX",
"uX{.{.{.{.{.@Xg.1 M 1 3 , 3 7 B 8 d d f +.+.+.@.%.%.%.%.$.| y | | y y *.$.%.#.%.%.@.+.*.o.s d w 7 B 7 , , 6 M 1 M )..X{.{.{.{.XX",
"uX{.{.{.{.{.{..X{.@Xd.    o B 7 B B B 8 z z l @.%.%.%.%...%       X   t >.%.%.%.%.+.z l s B B B 7 7 3     1 }.|.[.[..X{..X{.{.XX",
"uX{.{.{.{..X{.|..X+X]     o B 7 B 4 B 9 k c k @.$.%.%.%.$.%           t >.&.%.&.$.+.l c d B B B 7 V 6     1 .X.X.X.X{.{.{.{.{.XX",
"XX[.[.{.{.{..X^.!.!.J     o B B B B B 8 d d d O.@.*.+.@.@.& @ + @ @ @ i @.+.*.+.*.o.d g w B B B 7 V 6     < !.!.!.{.{.].[.[.{.XX",
" X).{._.{.{.+X]   .       @ 7 7 B B 7 B 7 7 7 f j l l l l 9 B B B 7 B w k l l l k s B B B 7 B 7 7 V 3       .   * ^.[.].[.{.{.@X",
"XX{.{.{.{.{.@X)           o B 7 B B B 7 7 B 7 f k l k l k 9 B B B 7 B w c x x j x s B B 7 B 7 7 7 V 4           $ (.{.{.{.{.[.XX",
"uX{.{.{.|.{.oXd.$ * * * * > 4 4 3 7 B B B B 7 d z g g f g 9 B B 7 B B w g g g g z q 7 B B 7 B 7 4 4 6 * * * * $ 1 ].{.{.{.{.XX.X",
"uX[.{.uXuXuX{.{.]._._._.{.g.X   @ B B 7 7 7 7 8 8 8 B 8 B B B B 7 7 B B 8 8 8 8 8 7 7 7 B 7 B ,     1 [.(.[.[.[.[.{.{.{.XXuXuXuX",
"XX{.{.|.{.{.{..X.X|.|.{.@Xg.    o 7 7 7 B 7 7 7 B B B 7 B B 7 7 B B B B B B B B 7 7 B 7 7 7 B ,     1 .X.X{..X{..X{..X{.{.{.{.uX",
"uX{.|.{..X{..X{.{.|._.^.[.f.o   @ 4 4 3 7 4 4 7 7 4 7 7 7 7 B 7 7 7 7 7 7 7 7 4 4 4 7 4 4 4 7 , X   1 ^./._.{.{.{.{..X{.{.{.{.oX",
"XX{.|.|.{.{.{.{.{.+Xd.$ * > 7 7 3   X X   X   X   X 3 B B 7 7 7 B 7 7 B 7 V # X X X X X X X   # 7 7 3 * $ M {.{.{.{..X{.{.{.{. X",
"XX{.|.XXXXXX{.{.[.iX]     X B B 3                   4 V 7 B 7 7 B B B B B V #                 o 7 B 3     * {.{..X{.{.{..X@XXXoX",
"uX{.{..X|. X{..X{.@Xd.$ * > 7 7 3 $ $ . + + + @ @ @ 4 7 4 7 4 4 4 7 7 4 7 7 - @ # @ + + + & & = 7 4 6 * $ M {.{.{.{..X{.{.|.{.XX",
"uX[.{.{.|.{..X{.|.|.[._.|.g..   0 0X0X9Xb.x.V.G.G.G.-   X X X X X X   X o   K #XG.F.x.b.J.0XaXL.    1 _.[.[..XoXXX.X{.{.{..X{.XX",
"uX{.|.|.{.|.{.{.{.{.|.|.@Xg.    : gXgXaXA.A.A.$X*X*X-                       K -X*XU.Z.Z.J.fXhXL.    1 XX{.{.{..XXX.X{..X{..X{.XX",
"uX{.|.|..X{..X.X{..X{._.|.g.$ O w dXfXaXD.D.D.$X%X$X,   + X X X X X + X X   K =X*XU.D.Z.I.fXgXP.. . e `.{.'.{.{.{.{.{..X{.{.{.oX",
"uX{.{..X{.{..X{.{..XW.^ ^ 9.jXjXjXdXfXgXlXlXkX;X%X%XV.b.b.b.b.b.x.b.b.b.x.x.S.=X#X4XxXxXkXsXfXeXz.z.k.( ^ ` {.{.{.{.|.|.|.|.|.XX",
" X{. X|.{.{.{..X{.+Xh.n n 9.mXmXbXdXfXgXmXmXnX;X$X$XS.A.A.A.A.A.A.A.A.A.A.Z.U.=X$X5XmXmXzXsXsXyXpXpXtX1.n ( [.].).{.|.|.|.|.{.XX",
"uX{.{.{.{.{.{.{.|..Xj.Q m 9.nXmXvXdXdXhXmXmXmX;X*X*XS.Z.A.C.V.C.C.C.C.A.Z.Z.U.=X&X6XmXmXcXfXdXyXtXpXrXN m ( [.].).).|.|.|.|.{.XX",
" X{.{.{.|.{..X{.|..Xj.n m 5.tXtXrX8.8.{ T.T.E.U F L Z Z C Y.,X,X,X,X,Xn.C Z Z U F U T.;XI.8.8.0.l.l.k.5.n ` .X.X|.|.|.|.|.|.[.XX",
"XX[.].[.{..X{.{.|..Xj.m n 5.k.k.i.n S S Z.V.V.A q q > - = ;X2X1X2X1X7XM.@ , < q d A Z.Z.c.n n 5.k.k.k.n m `  X{.oX{.{.].[.[.|.oX",
"XX].[.[. X{.{.[.).}.j.n n 5.k.l.i.Q Q S Z.A.V.A 0 r ; ; - ;X2X1X1X1X7Xm.@ - 5 r w L Z.Z.c.m m 6.l.k.k.N m ` {.{.{.{.].].[.[.[.XX",
"uX{.{..X{.{..X].).].^.W.W.j.6.6.Q & % w 3X0X3XwXeXeXqXwXwXU L L L L K K.wXqXwXwXeX0X3XaXK.% & d 6.6.9.j.j.~.{..X{.{.{.|.{.{.{.oX",
"uX[.{.{.oX{.{.{.|.{.|..X+X~.S m b     : dXgXfXvXnXbXbXnXnXF @ - # - @ 9XmXnXnXbXnXzXsXhXL..   & N n ( {..X.X.X{.{..X{.{.{..XXX X",
" X{.{.uXiXuX{.{.{.{.{.{..X~.N 1.b     < dXdXfXzXvXvXvXvXvXF ; 2 ; 2 @ Q.mXzXvXvXvXkXsXhXL.    & Q n ( [.|.|.|.{.|.|.|.|.|.uXuXuX",
"uX{.{.{.{. X{..X{..X.X{..X'.W.W.h.p y p P.P.P.5X4X4X4X4X5XZ - , , , = N.6X4X4X4X4X3XL.Q.( y y N W.W.~.|.|.|.|.|.|.|.|.|.|.|.|.uX",
"uX{.{.{.{.{.{.{..X{.{.{.|.|.oX}.{.-.&.=._ ' ' R.%X$X$X$X%XC - , , ; = v.*X$X$X$X*XH.E ' Q >.:.7.OX|..X}.|.|.|.|.{.{.|.|.|.[.{. X",
"uX{.{.{.{.{..X.X{.{. X{.|.|.|..X'.-.>.-.[ [ { #X=X*X%X%X%XC - , ; ; # v.-X%X*X*X-XE.{ } 5.&.:.7.}.{.|.|.[.|.|.|.|.|.|.|.|.|.|. X",
"uX[..X XoX.X{.{.|. XoXoX[.).).}.`.i t t w r r N.H.B.#X%X%XZ < 5 5 0 < v.-X$XR.B.H.Y q r s t t ~ @XoX.X[.[.).[.|.|.|.|.|.|.oX.XuX",
" X{.{. X.X{.{.{.|..X.X.X}.)._.|.(.o           R _ [ R.*X%XF h r r A s M.*X$XB.( [ h   X       M oX.X|.[.[.[.|.|.|.|.|.|..X.X|. X",
"uX{.{.{.{.{..X{.|.|.|.|.|.|.|..X'..           ~ [ / &X-X-XF r r h M q M.:X:XB.( [ h       .   M .X|.|.|.|.|.|..XoX|.|.|.|.|.|.XX",
" X{.{..X.X{.{..X|.|.|.|.|.|.|.|.'.O   @ L L L N.B.B.P P I 5 & : : : & Z I I Y B.B.N.L L Z     D .X|.|.|.|.|.|..X.X|.|.|.|.|.|.XX",
"XX|.|.|.|.|.|.|.|.|.|.|.|.|.|..X(.O   2 2X2X2X-X%X%X#                       K -X$X>X2X8XE.    M .X{.|.|.|.{.|.{.|.[.|.|.|.|.|.oX",
"XX|.|.|.|.|.|.|.|.|.|.|.[.|.|..X(.o   - 2X2X2X-X-X-X= X                     K :X*X<X2X8XH.    M oX{.|.|.|.|.|.|.|.|.|.|.|.|.|.XX",
"oX{.|.|.|.|.|.|.|.|.|.|.|.|.|.|.].G D T H.N.H.v.I v.H J J J J J J J J J D D Y v.I m.N.H.N.J G f.|.|.{.|.|.|.{.[.).|.|.|.|.|.[..X",
" X{.|.|.|.[.|.|.|.|.|.[.|.|.|.|.].].{.]..         . {.@X.XoX.XoXoX@X@X{.}.OX]           M iX@X.X|.|.{.|.|.|.[.[.).[.|.|.|.|.[.XX",
"uX{.{.|.|.|.|.|.|.[.|.|.|.|.|.|.oX|.{.^.X           ^.|.{.{.{.{.{.{.{..X}..X]           M .X{.{.|.|.[.|.|.|..X|.|.{.|.|.|.|.|.XX",
" X{.[.[.|.|.{.|.|.|.|.|.|.|.|..X.XoX.X_.M 1 M M M M _..X|.|.{.{.|.|.|..X|.@Xf.e e M M e ) .X{.{.|.|.|.|.|.|..X|..X|.[.].[.|.[.XX",
" X).].).|.{.|.|.[.|.|.|.|.|.|.{.{.|.{.{.].{.]..X.X.X|.[.[.|.|.|.|.|.[.|.|.|.}.].].].}.oX.X|.{.[.{.}..X|.|.{.{.|.|.|.[.).).].|.XX",
"XX[.|.{.|.|.|.].).).[.|.|.|.|.|.|.{.}.{.{.{.{.{.|.|.[.).).].|.|.|.|.|.|.|.|.|.[.[.{.{.{.{.{.).[.].|.|.|.|.|.|.|.|.|.[.{.[.|.|.XX"
};
