/* XPM */
static char *_3b4d498e1294fc1cfa0ed455b6fc4d3x0WGtwGn61hCCSFQ[] = {
/* columns rows colors chars-per-pixel */
"64 64 164 2 ",
"   c #010101",
".  c #010905",
"X  c #0B0C0C",
"o  c #1D0000",
"O  c #0A1510",
"+  c #0C1A15",
"@  c #131916",
"#  c #111C17",
"$  c #3D0000",
"%  c #291D17",
"&  c #0D221C",
"*  c #15251E",
"=  c #152522",
"-  c #182A23",
";  c #0E372B",
":  c #1B3328",
">  c #1E362B",
",  c #262425",
"<  c #2C2D2C",
"1  c #21372D",
"2  c #23392F",
"3  c #2E3434",
"4  c #243E32",
"5  c #353435",
"6  c #3A3737",
"7  c #373B3A",
"8  c #3C3C3C",
"9  c #430303",
"0  c #430909",
"q  c #5A0303",
"w  c #610000",
"e  c #6F0000",
"r  c #720000",
"t  c #6B1E18",
"y  c #741C19",
"u  c #63201A",
"i  c #72251E",
"p  c #482726",
"a  c #4F3332",
"s  c #413E3E",
"d  c #613B30",
"f  c #254235",
"g  c #284336",
"h  c #284739",
"j  c #254A3A",
"k  c #2E4F40",
"l  c #3E4743",
"z  c #3F5A4E",
"x  c #3B6753",
"c  c #3D6B56",
"v  c #424343",
"b  c #494747",
"n  c #494B4B",
"m  c #4C4C4C",
"M  c #524742",
"N  c #514E4F",
"B  c #4F5452",
"V  c #545353",
"C  c #575858",
"Z  c #5A5A5A",
"A  c #605E5E",
"S  c #755857",
"D  c #476658",
"F  c #416D59",
"G  c #54635D",
"H  c #42735D",
"J  c #6F6B57",
"K  c #786154",
"L  c #477A63",
"P  c #487E65",
"I  c #626161",
"U  c #676665",
"Y  c #6C6C6C",
"T  c #6C7370",
"R  c #747474",
"E  c #797777",
"W  c #7A7A7A",
"Q  c #810000",
"!  c #B60000",
"~  c #B9100D",
"^  c #B61612",
"/  c #9E3228",
"(  c #813E3D",
")  c #A92C23",
"_  c #A9362B",
"`  c #BA3839",
"'  c #C50000",
"]  c #CC0000",
"[  c #D40000",
"{  c #FE0101",
"}  c #E41914",
"|  c #E6261E",
" . c #D53228",
".. c #9F4B3D",
"X. c #A2473B",
"o. c #D1483B",
"O. c #935B5B",
"+. c #8F6753",
"@. c #8F6B57",
"#. c #926551",
"$. c #8A765F",
"%. c #897962",
"&. c #807F7F",
"*. c #4C846B",
"=. c #4D856B",
"-. c #579679",
";. c #55997B",
":. c #778068",
">. c #7F807F",
",. c #7F9B7D",
"<. c #8F987B",
"1. c #979B7E",
"2. c #7F8A89",
"3. c #5CA282",
"4. c #5EB691",
"5. c #5EBB95",
"6. c #61BD97",
"7. c #65BF99",
"8. c #6BBE99",
"9. c #79BE99",
"0. c #67C09A",
"q. c #6DC29C",
"w. c #71C59F",
"e. c #5DCFA6",
"r. c #6BCBA3",
"t. c #6ECBA4",
"y. c #72C6A0",
"u. c #7AC6A4",
"i. c #75C9A4",
"p. c #7BCAA6",
"a. c #7CCCA9",
"s. c #67D2AA",
"d. c #6DD4AB",
"f. c #73D6AC",
"g. c #7AD3AB",
"h. c #7CD8AE",
"j. c #6DDBB2",
"k. c #76E5B9",
"l. c #838383",
"z. c #8B8B8B",
"x. c #8F9090",
"c. c #949494",
"v. c #9C9C9C",
"b. c #8DA183",
"n. c #9FA09F",
"m. c #A3A3A3",
"M. c #AEADAD",
"N. c #AEB6B6",
"B. c #B3B3B3",
"V. c #BDBDBD",
"C. c #81CDAA",
"Z. c #82CEAB",
"A. c #86D0AD",
"S. c #82DAB4",
"D. c #84E4B8",
"F. c #C3C3C3",
"G. c #CCCCCC",
"H. c #D3D3D3",
"J. c #D8D7D7",
"K. c gray87",
"L. c gray88",
"P. c gray92",
"I. c #F3F3F3",
"U. c white",
/* pixels */
"u.8.8.w.w.q.8.w.8.8.u.q.w.8.8.q.q.w.8.q.8.w.q.w.w.8.q.8.w.w.8.8.8.8.8.w.8.8.w.8.q.q.i.q.q.8.w.q.w.w.8.8.0.q.8.w.8.w.q.q.8.w.w.y.",
"C.w.i.p.p.u.w.i.w.a.a.a.q.6.8.0.y.w.w.i.w.w.p.i.p.w.w.i.p.g.C.i.7.q.8.w.w.i.i.w.w.g.p.p.w.i.w.p.p.a.p.0.q.0.w.w.w.w.y.w.p.a.u.C.",
"C.q.w.i.w.i.w.w.w.u.w.i.q.q.w.q.q.i.w.w.w.w.u.w.w.w.i.w.i.w.i.w.7.w.w.w.w.i.w.w.y.i.y.y.w.w.w.w.i.i.i.w.w.q.w.w.w.w.w.w.i.y.w.u.",
"p.y.y.w.w.w.i.i.i.w.w.w.y.y.y.y.p.a.g.i.w.i.w.w.w.w.i.w.w.w.w.w.i.y.w.i.p.p.i.w.y.y.y.y.i.w.i.w.w.w.w.w.i.w.i.u.p.u.y.i.w.y.w.p.",
"C.w.i.w.i.w.w.w.y.y.y.y.y.y.y.y.i.i.i.w.w.i.w.i.i.w.w.i.w.i.w.i.y.y.y.y.i.i.y.w.y.y.y.y.y.y.y.y.w.i.w.w.i.w.w.i.y.i.y.y.y.y.y.p.",
"p.w.w.i.w.i.i.w.y.y.y.y.y.y.y.y.w.y.w.w.y.y.w.y.w.i.w.i.w.w.i.w.y.y.y.y.w.w.w.i.y.y.y.y.y.y.y.y.w.w.i.w.w.i.i.w.y.w.y.y.y.y.y.p.",
"C.w.w.w.w.i.w.w.y.y.y.y.y.y.y.y.w.q.i.w.w.i.y.y.w.w.i.w.w.w.w.i.y.y.y.y.w.w.i.w.y.y.y.y.y.y.y.y.i.w.w.w.w.w.i.w.y.y.y.y.y.y.q.p.",
"C.8.i.w.w.w.w.i.y.y.w.w.y.y.y.y.q.6.7.w.w.y.y.w.i.w.w.w.i.w.w.w.y.y.y.q.7.6.w.w.y.y.w.y.y.y.y.y.w.w.w.i.i.w.q.0.0.q.y.y.y.y.w.p.",
"p.w.y.y.w.i.i.w.y.y.w.w.y.i.w.w.q.q.7.w.w.y.y.w.y.y.y.y.y.y.w.y.y.w.y.q.q.q.q.y.y.y.y.q.y.y.y.y.y.y.y.w.y.w.q.q.q.q.y.y.y.y.q.p.",
"C.w.y.w.w.w.w.w.y.y.w.i.y.y.y.i.g.a.y.w.w.y.y.y.y.y.y.y.y.y.y.y.y.y.y.p.i.y.y.y.y.y.y.y.y.y.y.y.y.w.y.y.y.y.a.i.i.y.y.y.y.y.w.p.",
"p.q.q.q.w.i.w.i.y.y.y.w.w.i.w.i.p.i.u.w.q.0.q.y.y.y.y.y.y.w.y.y.y.y.i.i.p.p.w.w.0.q.w.y.y.y.y.y.w.y.y.i.y.y.p.y.i.y.q.0.q.q.y.p.",
"u.0.q.q.w.w.w.w.0.q.t.w.y.w.i.w.w.w.w.w.7.q.0.y.y.y.w.q.0.q.y.y.y.y.y.y.w.w.w.7.0.0.q.i.i.q.q.q.q.w.y.y.y.y.w.w.y.y.q.0.q.q.y.p.",
"p.q.w.w.w.w.w.q.0.0.0.i.w.w.i.w.w.w.w.w.w.w.w.y.q.y.q.0.7.8.y.y.y.w.w.w.i.w.w.w.w.w.w.w.y.w.0.q.0.y.y.w.i.w.i.w.i.w.w.w.t.w.q.p.",
"C.w.w.p.p.u.w.w.w.w.w.w.i.w.w.i.i.i.i.w.w.w.u.A.p.i.w.y.y.y.y.i.y.y.y.i.w.i.w.u.w.i.p.p.y.y.y.y.y.y.y.y.w.w.w.i.w.w.i.w.y.p.g.p.",
"C.w.w.A.C.A.w.w.i.w.w.i.y.w.w.w.w.w.w.w.w.w.C.A.A.p.w.y.9.w.w.q.w.q.w.w.w.w.w.w.w.C.p.C.p.w.y.y.i.y.y.y.w.i.i.w.w.w.w.w.u.Z.Z.A.",
"C.w.w.w.w.i.w.i.w.i.y.y.i.y.w.i.w.i.w.i.w.w.w.w.w.w.w.w.| } % + # # y ~ %.d.w.w.y.w.y.y.w.w.y.y.y.y.y.y.w.i.w.w.w.i.i.w.w.w.w.p.",
"C.w.w.w.w.w.i.w.i.w.w.w.y.w.w.y.y.w.w.w.w.i.w.w.y.y.t.9.{ { o       r ' +.d.w.y.y.y.y.y.w.w.w.w.y.y.y.y.y.y.y.w.w.w.w.w.y.w.w.a.",
"u.w.w.w.u.w.w.w.w.w.p.w.y.w.q.y.y.y.w.i.y.w.t.b. . ._ / 0 $ M.F.x.z.a o t _ / ) @.y.i.y.y.i.y.w.y.i.w.y.q.w.t.w.w.i.i.y.w.i.w.p.",
"C.q.w.i.g.i.w.i.w.p.g.a.q.q.0.0.w.y.w.y.i.q.j.1.{ { ' !     I.U.H.F.v   w ] ! ' ..j.g.p.i.w.w.u.p.g.i.q.q.0.w.w.w.w.i.w.i.g.a.g.",
"C.w.w.u.w.i.w.w.w.i.w.i.w.q.q.q.w.i.y.w.d.1.o._ q q 9 0 U U A Z b s b N p 9 0 $ u X.@.i.w.w.w.i.y.y.i.q.w.q.w.w.i.w.w.w.w.w.w.u.",
"C.w.w.w.w.w.w.w.w.w.w.w.w.i.w.w.u.a.a.y.s.1.{ [         m.m.        b c.3       $ [ ) y.w.w.i.w.q.y.w.y.y.y.i.a.p.i.w.w.w.w.w.p.",
"p.w.i.w.i.i.w.i.w.i.i.i.w.w.i.w.i.i.i.w.y.:.Q y V V N C n.m.Z V b 8 I >.C 6 s 8 p q d i.w.w.w.i.y.y.y.w.y.y.y.y.w.i.i.i.i.w.w.p.",
"C.w.w.i.w.i.w.i.w.w.w.i.i.w.w.i.w.w.y.r.k.*.  = M.M.M.M.m.m.M.M.z.W W E W l.l.x.n   ; j.f.w.w.w.i.y.y.y.y.y.y.y.w.w.w.w.w.w.i.p.",
"C.w.i.w.w.w.w.i.i.w.w.w.w.i.w.w.y.w.t.,.#.K n A n.m.m.n.m.m.n.n.x.z.l.E W E E W Z 6 M +.%.w.i.i.y.y.y.y.y.y.y.y.i.w.w.i.i.w.w.p.",
"u.w.w.w.w.w.y.y.y.y.w.w.y.y.y.t.8.4.e.#.' ` N.M.n.m.m.m.m.m.m.n.m.m.z.E W W W R W 2.O.' ^ w.w.w.y.w.w.y.y.y.q.0.0.q.w.w.i.y.w.p.",
"C.w.w.w.w.y.y.y.y.y.y.w.y.y.y.y.q.7.r.J w ..m.n.m.m.m.m.m.m.m.m.m.m.l.E W W W W W W S r i w.i.w.y.y.w.y.y.w.q.q.q.q.i.w.w.w.q.p.",
"C.w.w.w.y.y.y.y.y.y.y.y.y.y.y.y.p.i.g.c   7 M.m.m.m.m.m.m.m.m.m.m.m.z.E W W W W E l.C   & w.w.w.y.y.y.y.y.w.i.i.w.i.w.w.w.w.w.g.",
"u.q.w.w.y.y.w.i.y.y.y.y.y.y.y.i.i.p.h.c   8 m.v.m.m.m.n.m.m.m.m.v.v.l.E W W R W E W C   * w.i.w.y.y.y.y.y.y.p.i.i.w.w.0.q.w.w.p.",
"u.7.w.8.w.w.w.q.q.q.q.y.y.y.y.y.y.8.h.c   8 M.m.m.m.m.m.m.m.m.m.2.W W W W R W W E l.Z   * q.w.q.q.w.y.y.w.w.w.w.w.w.q.q.q.q.w.p.",
"C.w.w.w.w.w.w.q.0.0.q.y.y.y.y.y.y.y.a.L . l c.z.m.m.m.m.v.v.v.v.W E W W W W W W R Y V O 2 q.0.q.0.y.y.y.w.w.i.w.w.w.w.w.w.w.w.p.",
"u.w.w.w.u.w.w.y.w.w.w.y.y.y.y.y.i.y.y.8.i.P   < m.m.m.m.>.W W W E W W E W W W 2.m   2 w.q.w.y.y.w.y.y.y.i.i.i.w.u.w.w.w.w.w.p.p.",
"C.w.w.C.C.A.w.w.y.y.y.y.y.y.y.y.y.y.y.y.g.*.  < v.v.v.c.W E W E W E E E E R Y E n   g A.i.w.y.y.y.w.y.t.w.w.w.w.i.w.w.w.w.C.g.C.",
"A.w.w.i.y.y.w.y.y.y.y.y.y.y.y.y.w.w.w.w.w.8.w.-.  . X X R W E E W W E l.8   X   k y.8.i.y.y.y.y.i.y.y.y.y.y.y.y.y.y.y.y.y.y.q.p.",
"p.w.w.y.y.y.y.w.y.y.y.w.y.y.y.y.i.w.w.i.w.w.i.-.X .     T R E E R E R W 5   .   k i.q.y.y.y.y.y.y.w.y.y.y.y.y.y.y.y.y.y.y.y.y.u.",
"a.w.w.y.y.y.y.y.y.w.i.w.y.y.q.y.w.w.w.w.g.=.. v P.F.X   X X X X X X X X X   m B.U . k i.y.y.y.y.y.y.y.y.q.y.y.y.y.y.y.y.y.i.y.u.",
"p.w.i.i.g.i.y.y.y.p.a.g.q.0.0.q.i.w.w.w.g.*.  8 U.K..                       C J.Y   1 a.y.y.q.i.p.p.i.8.r.6.y.y.y.q.y.y.y.p.i.a.",
"C.w.w.i.y.y.y.y.y.y.y.i.q.q.q.q.w.y.g.P + G H.v.5 <                         @ , m c.T = h w.w.i.y.i.y.y.y.q.y.y.y.y.y.y.i.y.y.p.",
"u.w.w.w.y.y.i.y.y.y.y.y.y.y.i.y.u.p.S.c   Z U.F.                                s H.l.  & w.i.w.y.y.y.y.y.y.y.y.p.i.y.y.y.y.y.u.",
"C.w.w.i.y.y.y.y.i.y.y.y.y.y.i.q.i.i.S.F   b J.c.  .                             v V.<.  * w.w.w.y.y.y.y.y.y.y.y.i.i.y.y.y.y.y.i.",
"C.w.i.w.y.y.y.y.y.y.y.y.y.y.y.y.w.w.g.x   s G.z.                                8 H.l.  O w.i.w.y.y.y.y.y.y.y.y.y.y.y.y.y.y.y.p.",
"u.w.w.i.w.w.i.w.y.y.y.y.y.y.y.y.y.w.i.3.c D n Z z.E X   . .   .     .   .   5 Y C N B c *.q.w.i.y.y.y.y.y.y.y.y.y.y.y.y.y.y.y.p.",
"C.w.i.y.w.w.w.i.y.y.w.w.y.y.y.w.8.5.6.y.D.=.  8 U.P.                        V L.T   : h.g.y.w.w.y.w.y.y.y.y.q.0.6.y.y.y.y.y.y.p.",
"C.w.i.y.w.i.w.w.y.y.w.w.y.y.y.y.7.6.5.8.a.=.  7 H.F.W E W W Z Z C Z Z C C m >.F.Y   4 w.q.y.y.y.y.q.q.y.y.y.q.0.6.7.y.y.y.y.y.i.",
"9.w.w.w.w.w.w.i.y.y.y.y.y.y.y.y.p.i.y.w.g.P   , V.G.U.U.U.U.G.F.F.F.F.F.G.H.F.G.R   : i.y.y.y.i.y.y.y.y.y.y.i.i.y.y.y.y.y.y.y.p.",
"p.q.q.q.w.w.w.i.w.y.y.y.i.y.y.i.y.g.i.q.y.;.j B Y T z.c.J.J.B.M.B.M.M.B.z.G Y Y G j H i.w.w.y.y.y.y.y.i.y.y.i.y.i.y.q.7.8.q.y.u.",
"p.0.q.0.w.i.w.q.0.q.q.y.y.w.y.w.w.y.y.q.6.q.d.;.        M.V.V.F.V.V.V.H.N     . 4 f.i.w.y.w.q.q.q.y.y.y.y.y.w.y.y.y.q.0.0.r.y.p.",
"C.q.w.w.w.w.i.0.0.0.q.y.w.y.y.y.y.y.y.y.w.w.i.3.f f 4 f W l.W W &.W W l.C 2 g > c i.q.w.y.q.0.q.0.w.y.y.y.y.y.y.y.y.y.y.w.w.q.p.",
"p.w.w.i.p.w.w.w.y.q.w.y.y.y.y.y.i.y.y.y.w.w.w.a.a.i.i.q.      .         x h.y.i.i.t.p.i.w.y.q.y.q.w.y.y.y.y.i.y.y.y.w.w.y.i.p.p.",
"C.w.w.C.A.A.i.w.w.i.w.i.w.w.w.i.w.w.w.w.w.w.g.A.A.u.w.w.> * - * - * * & =.g.w.w.w.g.C.A.i.i.i.w.y.y.y.y.y.y.y.w.y.y.y.w.i.C.A.C.",
"C.8.w.i.w.i.w.w.w.w.i.w.w.i.w.w.i.w.i.w.i.y.w.i.w.w.w.w.w.w.w.w.w.w.w.w.q.w.w.w.w.w.w.i.w.w.w.i.i.y.y.y.y.y.y.y.y.y.y.y.y.y.y.p.",
"C.w.w.w.w.q.i.w.i.i.w.i.i.w.i.w.w.w.w.w.w.y.w.w.w.w.w.w.y.y.y.y.u.w.w.i.w.w.w.i.w.w.w.w.w.i.w.w.y.y.y.y.y.y.y.q.w.w.y.y.y.w.q.p.",
"C.w.w.w.i.w.w.w.w.w.w.q.w.w.i.w.w.w.i.w.w.y.w.y.w.w.w.u.w.y.w.w.w.w.w.w.w.w.y.w.w.w.w.w.w.i.w.w.w.y.w.y.w.y.y.y.y.y.y.y.w.y.y.p.",
"C.8.w.p.a.i.w.i.w.a.a.g.q.0.0.0.w.y.w.i.y.y.i.i.p.i.w.w.p.a.a.i.q.q.0.q.w.w.i.w.w.w.Z.p.w.w.i.i.p.a.i.q.q.0.y.y.y.y.y.y.y.a.i.a.",
"C.w.w.i.w.i.w.i.q.i.u.i.q.q.q.q.w.i.w.y.y.y.i.y.i.w.i.w.i.y.i.w.q.w.q.w.w.w.w.i.w.g.w.u.w.w.w.i.i.y.i.q.q.0.w.w.y.w.i.y.i.i.y.p.",
"C.i.w.q.w.w.w.w.w.w.w.w.w.i.w.i.i.g.a.y.w.y.y.y.w.w.i.w.w.y.y.w.i.w.w.w.a.g.w.i.i.w.w.w.w.t.i.w.y.y.y.y.y.y.i.i.a.y.y.y.y.y.y.p.",
"u.9.w.i.i.w.i.w.i.w.i.w.w.i.w.w.i.i.i.y.y.y.y.y.w.i.w.w.y.y.y.i.w.w.w.i.w.p.i.w.w.w.i.w.i.w.w.i.y.y.y.y.y.y.y.i.i.i.q.y.y.y.y.p.",
"g.q.w.i.i.w.w.w.w.w.w.w.i.i.w.w.w.w.w.y.y.y.y.y.w.i.i.w.y.y.y.y.w.i.i.w.w.w.w.i.w.y.w.w.y.i.w.w.y.y.w.y.y.y.w.w.q.y.y.y.y.y.w.p.",
"Z.i.w.w.w.w.i.i.w.i.i.w.w.w.w.i.w.y.y.y.y.y.w.y.w.w.w.w.w.y.y.y.w.w.w.w.w.w.w.w.y.i.i.w.w.w.i.y.i.y.y.y.y.y.y.q.y.y.y.y.w.i.w.p.",
"p.w.i.w.w.w.w.w.w.w.i.q.w.w.w.i.w.6.q.w.y.y.y.y.i.w.i.w.y.y.w.y.i.i.w.w.0.0.w.i.y.w.y.w.y.w.w.w.w.w.y.y.y.i.q.q.7.y.w.y.y.y.w.p.",
"p.w.w.w.i.w.w.i.i.w.w.w.i.i.w.w.0.6.6.q.y.w.y.w.w.w.w.w.t.w.w.w.w.w.w.q.0.0.q.w.w.w.t.w.y.i.y.i.y.w.w.y.w.w.q.q.0.0.i.w.y.y.q.p.",
"C.w.w.w.w.w.w.w.i.w.w.w.w.w.w.i.i.a.w.w.w.w.w.w.i.w.i.w.w.y.y.y.y.w.y.y.i.w.w.w.w.y.y.w.y.y.y.i.y.w.w.y.y.y.i.i.y.w.w.q.y.y.w.p.",
"u.w.q.q.i.w.i.w.w.w.i.i.w.i.w.i.i.a.y.w.w.q.q.w.w.i.i.w.y.w.y.y.y.w.i.a.i.p.w.w.0.q.w.y.y.y.w.y.w.i.i.y.y.y.i.i.i.w.w.0.q.q.w.p.",
"u.0.0.0.i.w.i.w.q.q.w.w.w.w.w.w.w.w.w.w.0.0.0.w.w.w.w.w.q.w.y.y.i.w.w.w.y.w.w.0.6.6.q.y.i.w.q.q.w.y.y.w.y.w.w.y.y.y.q.0.0.0.y.a.",
"u.q.w.w.w.w.w.0.0.0.w.w.i.i.w.w.w.t.w.w.w.w.w.i.w.w.q.0.0.q.y.y.y.y.y.w.y.w.w.q.w.w.y.y.y.w.0.q.0.w.y.y.y.y.y.y.y.y.w.w.q.w.w.p."
};
