/* XPM */
static char *f4537f14b8b2437dba78ab462e8ca796AysPHPsWIsHmKWC1[] = {
/* columns rows colors chars-per-pixel */
"64 64 155 2 ",
"   c #010000",
".  c #0C0404",
"X  c #080807",
"o  c #0E0909",
"O  c #100000",
"+  c #130B0B",
"@  c #091311",
"#  c #250F0F",
"$  c #3C0302",
"%  c #281919",
"&  c #1A2D24",
"*  c #2C2323",
"=  c #222D25",
"-  c #272E2E",
";  c #372222",
":  c #352B2B",
">  c #223027",
",  c #25332A",
"<  c #28392F",
"1  c #2A3D32",
"2  c #363333",
"3  c #3E3A3A",
"4  c #430403",
"5  c #530303",
"6  c #5A0000",
"7  c #4F1511",
"8  c #630404",
"9  c #6B0303",
"0  c #650A0A",
"q  c #690808",
"w  c #760404",
"e  c #790303",
"r  c #721010",
"t  c #7A1515",
"y  c #5E2E25",
"u  c #413D3C",
"i  c #2C4035",
"p  c #2D4638",
"a  c #2B4B3C",
"s  c #334A3D",
"d  c #2E503F",
"f  c #4C4C3E",
"g  c #375344",
"h  c #385747",
"j  c #3A5B4A",
"k  c #38604E",
"l  c #3C6653",
"z  c #3D6955",
"x  c #4E4D4D",
"c  c #514E4D",
"v  c #50504E",
"b  c #504F50",
"n  c #4B5E53",
"m  c #565151",
"M  c #595454",
"N  c #5D5B5A",
"B  c #635555",
"V  c #625F5E",
"C  c #416452",
"Z  c #426855",
"A  c #4D6459",
"S  c #4B6D5C",
"D  c #46735D",
"F  c #49745F",
"G  c #62605F",
"H  c #645F60",
"J  c #4B7760",
"K  c #4B7A63",
"L  c #507A65",
"P  c #656564",
"I  c #676769",
"U  c #6E6B6B",
"Y  c #706E6E",
"T  c #66746B",
"R  c #757272",
"E  c #797777",
"W  c #7D7B7B",
"Q  c #840000",
"!  c #8D0000",
"~  c #920202",
"^  c #9B0000",
"/  c #911C1C",
"(  c #A30404",
")  c #AD0101",
"_  c #B40000",
"`  c #BC0000",
"'  c #C20000",
"]  c #CC0303",
"[  c #D50101",
"{  c #E90000",
"}  c #F50000",
"|  c #FF0000",
" . c #934D4C",
".. c #847E7D",
"X. c #F74C4C",
"o. c #CB6262",
"O. c #D37F7F",
"+. c #FA7B7B",
"@. c #4C836A",
"#. c #51876D",
"$. c #538C72",
"%. c #539276",
"&. c #5A977B",
"*. c #5C9D7F",
"=. c #5DA081",
"-. c #5EBB95",
";. c #60A284",
":. c #65AC8B",
">. c #62BD97",
",. c #65BF99",
"<. c #6BBE99",
"1. c #67C09A",
"2. c #6CC29C",
"3. c #71C59F",
"4. c #6ECBA3",
"5. c #72C6A0",
"6. c #7BC6A5",
"7. c #76C9A4",
"8. c #7BCAA6",
"9. c #7CCCA9",
"0. c #77D1A8",
"q. c #7AD4AC",
"w. c #7CD9AF",
"e. c #7EDDB3",
"r. c #818080",
"t. c #8B8182",
"y. c #8C8B8B",
"u. c #9D8181",
"i. c #949393",
"p. c #979898",
"a. c #989898",
"s. c #A59E9D",
"d. c #9AA0A1",
"f. c #A4A3A3",
"g. c #ADA5A5",
"h. c #ACABAB",
"j. c #B4B3B3",
"k. c #B8B6B6",
"l. c #BDBDBD",
"z. c #F68989",
"x. c #FF8989",
"c. c #FFA2A2",
"v. c #82CEAB",
"b. c #86D0AD",
"n. c #81E1B6",
"m. c #83E6BA",
"M. c #C3C4C4",
"N. c #C9C7C7",
"B. c #CACBCB",
"V. c #D1CFCF",
"C. c #D4D3D3",
"Z. c gray86",
"A. c #E2E2E2",
"S. c #FFE8E8",
"D. c #FFFFFF",
/* pixels */
"6.<.2.<.3.3.<.3.<.<.5.<.3.<.<.<.2.2.<.3.<.<.2.3.<.<.3.<.2.3.3.2.<.<.<.3.<.3.<.<.2.2.5.3.<.<.3.<.3.3.<.<.<.2.<.3.<.<.<.3.<.5.<.6.",
"v.2.7.9.8.8.3.7.3.9.9.v.3.,.1.<.5.5.5.5.5.6.8.7.7.7.5.5.8.9.8.5.,.2.,.5.5.5.5.5.3.9.9.8.5.5.5.7.8.9.9.<.1.,.5.5.5.5.5.5.7.9.6.v.",
"8.3.5.6.3.5.3.3.3.7.5.7.5.,.5.5.5.5.5.5.5.3.7.5.5.5.5.5.6.5.7.3.1.5.5.5.5.5.5.5.3.7.5.5.5.5.5.5.5.5.5.3.3.2.5.5.7.5.5.5.5.5.5.6.",
"v.5.3.3.3.3.7.7.5.3.3.3.5.5.5.5.7.9.9.5.3.5.5.3.5.5.5.5.3.5.3.3.5.5.3.5.9.9.5.5.5.3.5.5.5.5.5.5.5.5.5.5.5.5.6.7.9.5.5.5.5.5.5.7.",
"8.3.5.5.5.7.3.3.5.5.5.5.5.5.5.5.7.5.7.5.5.5.5.5.5.5.3.5.5.7.7.5.5.5.5.5.5.5.5.5.5.5.5.5.5.5.5.5.5.5.5.5.5.5.5.5.5.5.5.5.5.5.5.9.",
"v.3.7.5.7.3.3.7.5.5.5.5.5.5.5.5.3.3.3.3.5.5.5.5.5.5.5.5.3.5.5.5.5.5.5.5.5.5.5.5.5.5.7.5.5.5.5.5.5.5.5.5.5.5.5.5.5.3.5.5.5.5.5.8.",
"6.3.3.3.3.3.5.3.5.5.5.5.5.5.5.5.7.5.3.7.5.5.5.5.5.5.5.5.5.5.3.5.5.5.5.5.5.5.5.5.5.5.5.3.5.5.5.5.5.5.5.5.5.5.5.5.5.5.5.5.5.5.5.7.",
"v.3.3.3.3.3.3.7.5.5.5.5.5.5.2.5.1.-.1.2.5.5.5.3.5.5.5.5.5.3.3.3.5.5.5.2.,.>.3.5.5.5.5.3.3.7.5.5.5.5.3.5.5.5.3.,.,.5.5.5.5.5.3.8.",
"v.3.7.5.3.5.3.5.5.5.5.5.5.5.5.3.1.2.1.2.5.5.5.3.5.5.5.5.5.5.5.5.5.5.3.2.2.2.2.5.5.5.5.5.5.5.5.5.3.3.3.3.3.3.2.2.1.2.5.5.5.5.3.7.",
"6.3.3.5.5.5.5.5.5.5.5.5.5.5.5.7.9.8.7.5.5.5.5.5.5.5.5.5.5.5.5.5.5.5.5.7.7.7.5.5.5.5.5.5.5.5.5.5.3.7.3.7.3.7.8.7.7.5.5.5.5.5.3.8.",
"8.2.1.2.5.5.3.5.5.5.5.5.5.5.5.7.6.8.5.3.2.1.5.5.5.5.5.5.5.5.5.5.5.5.7.7.7.7.5.2.,.2.3.5.5.5.5.5.3.7.3.3.7.3.7.7.7.5.5.,.1.3.5.8.",
"6.<.2.2.5.5.3.3.1.1.5.5.5.5.5.3.3.3.5.3.,.1.1.5.5.5.5.1.,.2.5.5.5.5.5.5.3.5.5.,.,.,.3.3.5.3.2.2.2.3.7.3.7.3.3.3.5.5.2.,.2.2.5.8.",
"8.3.3.3.3.3.5.2.1.,.2.5.5.5.5.5.5.5.5.5.5.5.5.5.5.5.5.,.,.,.5.5.5.5.5.5.5.5.5.5.5.5.3.3.5.3.,.3.1.7.3.3.7.3.7.3.7.5.3.3.3.3.3.7.",
"v.2.3.7.9.7.5.5.5.5.5.5.5.5.5.5.5.5.5.5.3.5.5.v.7.5.5.5.5.5.5.5.5.5.5.5.5.5.5.5.3.6.8.8.5.5.5.5.3.3.7.3.5.3.3.7.3.5.5.3.7.8.v.8.",
"v.3.6.b.v.v.5.5.5.5.5.5.5.5.5.5.3.5.5.5.5.3.v.v.v.7.5.5.5.5.5.5.5.5.5.5.5.5.5.5.2.v.9.v.7.3.5.5.3.3.3.3.3.3.3.3.3.5.3.3.8.v.v.v.",
"8.3.3.3.5.5.3.5.5.7.5.5.5.5.5.5.5.5.5.5.5.3.5.5.6.3.5.5.5.7.5.5.5.5.5.5.5.5.5.5.5.5.3.5.5.3.5.5.7.7.3.7.7.3.7.3.7.3.7.3.3.5.3.8.",
"v.3.6.3.3.3.3.3.3.3.3.3.3.7.3.3.7.3.3.7.3.7.3.3.5.5.5.5.5.5.5.5.7.3.7.5.5.5.5.5.3.3.3.5.3.7.7.3.3.3.3.3.7.3.3.3.3.3.7.3.3.3.3.0.",
"6.3.3.3.7.3.3.7.3.3.8.3.3.3.2.3.3.3.3.3.3.3.3.3.3.2.8.$.> < < < , , , 1 2.5.2.5.3.7.7.5.3.3.3.3.7.7.3.3.2.3.3.7.7.3.3.7.3.7.3.8.",
"v.3.3.7.9.8.3.3.3.0.9.9.3.1.1.1.3.3.3.3.3.3.0.8.9.5.e.J               X 2.0.7.7.7.7.v.7.7.3.3.7.8.0.8.1.2.1.2.3.3.3.7.3.3.9.8.9.",
"6.3.3.7.7.3.3.7.3.8.3.0.3.1.3.2.3.8.3.7.3.2.8.#.g g a I g.s.f.u.e e e w s s s s *.7.3.7.3.3.3.7.7.7.7.2.3.2.3.3.7.2.3.3.7.7.3.8.",
"8.3.3.3.3.3.3.3.3.3.3.3.3.3.3.3.7.9.9.7.3.0.m.d       H D.D.D.S.` ` ' _         &.n.7.3.3.7.3.3.3.3.3.3.3.3.8.8.0.7.3.3.3.3.3.8.",
"v.3.7.7.3.7.3.7.3.7.7.3.7.3.7.3.7.3.7.3.7.#.k T t...&.O.+.O.z.o._ ) _ ) q 6 8 8 f l *.7.3.3.3.7.7.3.7.3.3.7.7.3.3.8.3.7.3.7.3.8.",
"8.3.3.3.7.3.3.7.3.3.3.8.3.7.3.7.3.7.3.3.7.i   d.D.D.D.c.| { ` ` ' ' _ _ ' ' ' ' 4   D q.3.3.7.3.3.7.3.3.3.3.3.3.3.3.7.3.3.3.3.9.",
"v.3.7.3.3.7.3.3.7.3.3.3.3.3.3.7.3.3.3.3.7.s    .x.+.z.X.| ] 0 0 q 9 ) _ ) _ _ _ 4   F 0.3.3.3.3.3.3.3.7.7.3.7.3.3.3.3.3.7.3.3.8.",
"8.3.3.3.3.3.3.8.3.7.3.3.3.7.3.3.2.>.>.7.e.a   ! | | | | | _         _ ' ` ` _ ` $   K e.7.4.3.7.3.3.3.7.7.3.2.1.1.3.3.3.7.3.3.8.",
"v.3.3.3.3.7.3.3.3.3.3.3.3.7.3.3.1.1.1.$.@.y 6 _ | ] ( ( ) / N B V B w e e e ( _ 9 4 f @.=.7.3.7.7.3.3.3.3.3.2.2.2.1.7.3.3.3.3.8.",
"v.3.3.3.3.3.3.7.3.3.7.3.3.3.3.3.8.7.3.=   _ | | | e X X   b D.D.D.D..     . ^ ' ` ' 5   C w.2.3.3.7.7.3.3.3.3.8.3.3.3.3.3.3.3.8.",
"6.2.3.3.3.7.3.3.3.7.3.3.3.8.3.0.7.8.7.>   ) | [ ] t - : % m k.j.l.j.: * * * e ~ ( ` 5   Z w.3.3.3.3.3.3.3.7.0.7.0.3.3.2.2.3.3.8.",
"6.,.3.2.3.3.3.3.2.3.3.3.7.3.3.3.5.5.5.>   ) | w   m k.a.p.P . . X + y.i.i.y.% O Q ] 5   l q.1.3.3.3.3.7.3.3.3.3.3.3.1.1.2.2.3.9.",
"v.3.3.3.3.3.3.2.1.1.2.7.3.3.3.3.5.5.5.>   ~ } r @ m a.r.W M . . . + R W E E ; # w ) 7 @ F q.1.2.1.3.3.3.3.3.7.3.3.3.3.3.3.3.3.8.",
"6.2.3.3.8.3.3.3.3.3.3.3.7.3.7.7.5.5.5.&   o . M k.b   + + . . . . . o O . + R y.:   L q.3.3.3.3.3.3.7.3.3.8.8.3.0.3.3.3.3.3.8.8.",
"v.2.3.v.v.v.3.3.3.7.3.3.3.3.3.3.5.5.5.&   o . M j.c   O . . . . . . . . . . R y.2 . L v.3.3.3.7.3.3.7.3.3.3.3.3.3.3.3.3.8.8.v.v.",
"6.5.5.5.5.5.5.5.5.5.5.5.5.5.5.5.5.5.5.=   R l.x   o o O . . O . . . . o . . + + ..k.m   S q.3.5.5.5.5.5.5.5.5.5.5.5.5.5.2.5.5.7.",
"9.5.5.5.5.5.5.5.5.5.5.5.5.5.5.5.3.3.5.,   W V.x   . o . . . o . . . . . . . .   &.N.c . Z q.3.5.3.5.5.5.5.5.5.2.5.5.5.5.5.5.5.8.",
"6.5.5.5.5.5.5.5.5.5.7.5.5.5.3.5.3.5.3.,   f.D.U   . .       . . . . . . . . O . ..N.v   Z q.3.3.5.5.5.5.5.5.5.5.5.5.5.5.5.5.5.6.",
"6.5.5.8.8.7.5.5.5.7.9.8.3.,.,.,.5.5.3.,   h.D.Y   + . .     . o . . . . . . . . W M.v   Z q.3.6.9.9.7.1.<.,.3.5.5.5.5.5.5.9.7.9.",
"v.3.5.7.5.5.5.5.5.7.5.7.2.1.5.3.3.7.5.;.*.n : y.V.M.C.R   X . O . . o + l.M.i.y.x * S *.:.7.5.5.5.5.5.3.3.2.5.5.5.3.5.5.7.5.5.7.",
"6.5.5.3.5.5.5.5.5.5.5.5.5.5.5.5.7.9.9.7.w.p   i.D.D.D.i.        . .   + D.D.N.l.3   J e.7.5.5.5.5.5.5.5.5.5.7.7.9.7.5.5.5.5.5.8.",
"v.3.5.5.5.5.5.5.5.5.5.5.5.5.5.5.7.7.8.3.7.s   E C.Z.D.C.f.g.h.f.W E W W M.N.j.j.u   K q.2.7.5.5.5.5.5.5.5.5.5.5.7.7.5.5.5.5.5.7.",
"6.5.5.5.5.5.5.5.5.5.5.5.5.5.5.5.3.3.3.5.7.i   I M.A.D.D.D.D.D.D.l.l.l.l.l.l.l.M.3   D q.3.3.5.5.5.5.5.5.5.5.5.3.3.3.5.5.5.5.5.9.",
"v.3.3.5.3.3.5.7.5.5.5.5.3.5.5.5.5.5.5.5.7.$.D A c P Y p.C.B.V.N.j.h.j.h.N M M M S D =.7.5.5.5.5.5.3.3.7.5.5.5.5.5.5.5.5.5.5.5.6.",
"6.3.6.5.3.5.3.3.5.5.3.3.5.5.5.3.2.-.,.2.5.7.m.a       3 B.l.l.l.M.M.M.j.        $.e.7.5.5.5.5.5.5.3.3.3.5.5.2.1.,.3.5.5.5.5.3.6.",
"v.3.3.3.3.3.5.5.5.5.3.3.5.5.5.5.,.,.-.<.5.2.5.%.k z z S P G G G N P V N Z l Z Z :.5.2.5.5.5.5.5.3.3.3.5.5.5.2.,.,.,.5.5.5.5.5.7.",
"v.2.3.3.3.3.7.5.5.5.5.5.5.5.5.5.7.7.5.5.5.5.5.0.w.q.m.D                 7.w.q.w.7.5.5.5.5.5.5.5.5.5.5.5.5.5.7.7.5.5.5.5.5.5.3.8.",
"8.2.1.3.5.5.3.7.5.5.5.5.5.5.5.7.7.8.5.3.2.2.2.5.3.3.7.&.g h h j j j h j 5.6.<.<.-.2.3.7.3.3.5.5.5.5.5.5.3.3.7.5.7.3.3.,.2.3.5.8.",
"6.,.2.2.3.7.3.2.,.2.5.5.5.5.5.5.5.5.5.3.,.1.,.5.3.7.2.2.7.0.0.0.0.0.0.0.5.5.5.,.1.1.2.7.5.3.2.2.3.3.5.5.7.3.3.5.5.5.2.1.1.2.5.7.",
"v.3.7.3.3.3.3.1.>.,.1.5.5.5.5.5.5.5.5.5.3.5.5.5.3.3.1.1.>.,.3.3.3.3.3.3.5.5.5.3.5.5.2.5.5.2.1.2.,.3.7.3.5.5.7.5.5.5.5.5.3.3.3.8.",
"6.3.3.3.7.7.3.3.5.5.5.5.5.5.5.5.5.5.5.5.3.5.5.7.7.3.3.3.3.2.3.3.5.3.5.5.5.5.5.3.5.5.7.7.3.5.3.3.3.5.5.3.5.5.5.5.5.5.3.3.5.7.8.7.",
"v.3.3.v.v.b.3.3.3.7.7.3.3.3.3.7.7.3.3.3.3.3.v.b.b.7.3.3.7.3.3.7.7.3.3.3.3.7.3.3.3.9.9.v.0.3.3.3.5.3.5.3.5.5.5.5.5.5.5.3.6.v.v.v.",
"6.3.3.3.3.7.3.7.3.3.3.7.7.3.7.3.3.3.3.7.7.3.3.7.7.3.3.7.3.7.7.3.3.3.7.7.3.3.3.7.3.3.3.8.3.3.3.8.5.7.3.7.5.5.5.3.5.5.5.5.5.3.5.9.",
"v.3.7.3.3.3.3.3.7.3.3.3.3.7.3.3.5.3.3.3.3.7.3.3.3.3.3.3.3.3.3.3.3.3.3.3.3.3.3.3.3.3.3.3.3.3.3.3.5.5.5.5.5.5.5.3.3.5.5.5.5.3.3.7.",
"v.3.3.3.7.3.3.7.3.3.7.3.3.3.3.3.5.5.3.3.3.3.3.3.3.3.7.3.3.7.3.3.7.3.3.3.7.3.7.3.3.3.3.3.3.8.3.3.3.5.3.3.3.3.5.5.5.3.5.5.3.5.3.8.",
"v.3.7.7.8.7.3.3.3.8.9.8.3.1.1.2.3.3.3.7.3.3.8.0.8.7.3.3.7.8.8.7.1.2.1.3.3.7.3.3.3.0.v.8.7.3.3.0.7.9.7.1.2.,.3.5.5.5.7.3.5.9.7.9.",
"v.2.3.8.3.7.3.3.3.7.7.8.3.1.3.2.3.7.3.5.3.3.7.3.7.3.7.3.7.7.7.3.1.3.2.3.3.3.3.7.3.9.3.3.3.3.3.7.7.7.7.2.3.2.5.5.5.3.3.3.7.6.5.8.",
"6.3.3.3.3.5.7.3.3.3.3.3.3.7.3.3.5.q.8.3.3.3.3.3.3.3.3.3.3.3.3.7.3.3.3.3.0.8.3.3.3.3.3.3.3.7.8.3.5.5.5.5.5.5.5.7.8.5.5.7.5.3.3.7.",
"v.<.3.3.7.3.3.7.7.5.7.3.7.3.3.3.7.7.8.7.3.7.7.3.3.7.3.7.7.3.7.3.3.7.3.7.7.7.8.3.7.7.3.7.3.3.3.3.5.5.5.5.5.5.5.5.7.7.3.5.5.7.5.8.",
"9.3.3.7.7.7.3.3.3.3.5.5.5.3.7.3.3.3.3.3.3.3.7.3.3.7.7.3.3.7.3.8.7.3.7.3.3.3.3.7.3.3.7.3.7.3.7.3.3.3.3.3.3.7.3.3.3.3.5.5.5.7.3.8.",
"9.3.7.3.3.3.3.7.7.3.3.5.3.7.3.3.3.3.3.7.3.7.3.3.3.3.3.3.3.3.3.3.3.3.3.3.3.3.3.3.3.7.3.3.3.7.3.3.7.7.3.7.7.3.3.3.5.5.5.5.5.5.5.8.",
"v.3.3.3.3.3.3.3.3.5.5.3.3.3.7.3.2.>.1.3.3.3.3.3.7.3.3.3.3.3.3.3.7.7.3.3.1.1.3.3.7.3.3.3.3.3.3.7.3.3.3.3.3.3.3.1.,.5.5.5.5.5.3.7.",
"8.3.7.3.3.3.7.3.5.3.3.3.7.7.3.3.1.1.1.2.7.3.7.3.3.3.7.3.7.3.3.3.3.3.3.2.1.1.2.7.3.3.3.3.3.7.7.3.3.3.3.3.7.3.2.1.,.1.5.5.5.3.3.8.",
"v.3.3.3.3.7.3.3.3.3.3.3.3.3.3.7.8.7.3.3.3.3.3.3.7.3.3.7.3.7.3.3.7.3.3.7.3.3.3.3.3.3.3.7.3.3.3.3.7.3.3.3.5.5.7.7.7.3.3.3.5.7.3.7.",
"3.3.2.3.3.7.3.7.7.3.7.3.3.7.3.7.7.0.7.2.3.2.3.3.3.7.3.3.3.3.7.3.3.3.3.0.8.7.3.3.1.1.3.3.7.7.3.3.3.7.3.7.5.5.7.6.7.3.3.1.2.2.3.8.",
"3.1.2.,.3.3.3.2.2.3.3.7.7.3.3.3.3.7.3.3.1.1.1.3.7.3.3.3.2.3.3.3.7.3.3.3.3.3.3.1.1.-.2.3.3.3.3.3.3.3.7.3.5.3.3.3.3.3.1.,.1.1.5.8.",
"v.2.3.3.3.3.7.1.1.1.2.3.3.3.3.7.3.3.7.3.2.3.3.3.3.3.2.1.1.1.7.3.7.3.7.3.3.7.3.2.3.3.7.3.7.3.1.2.1.3.7.3.3.3.7.3.3.7.3.3.3.3.3.8."
};
