/* XPM */
static char *_c2974df1c3b42d99d310007a444ea1agiBHJmOEb9P2PiyH[] = {
/* columns rows colors chars-per-pixel */
"64 64 195 2 ",
"   c #000000",
".  c #0A0500",
"X  c #0D0801",
"o  c #040C0B",
"O  c #0A0D0C",
"+  c #100900",
"@  c #150C08",
"#  c #09110D",
"$  c #161104",
"%  c #000511",
"&  c #0D1510",
"*  c #0A1C1B",
"=  c #151918",
"-  c #2F0000",
";  c #330302",
":  c #3C0201",
">  c #251300",
",  c #2B1C04",
"<  c #331D00",
"1  c #201E1C",
"2  c #15221B",
"3  c #262602",
"4  c #3C2200",
"5  c #372805",
"6  c #253302",
"7  c #0C2322",
"8  c #192924",
"9  c #193028",
"0  c #262524",
"q  c #233021",
"w  c #393324",
"e  c #3B3B3C",
"r  c #500403",
"t  c #690706",
"y  c #730402",
"u  c #790504",
"i  c #422501",
"p  c #452C06",
"a  c #542F00",
"s  c #5B3501",
"d  c #583605",
"f  c #6D3C00",
"g  c #723F00",
"h  c #5C372C",
"j  c #274437",
"k  c #2D4A3A",
"l  c #37483F",
"z  c #6E4A05",
"x  c #744403",
"c  c #794401",
"v  c #7C4A05",
"b  c #694E15",
"n  c #6E5317",
"m  c #765313",
"M  c #686601",
"N  c #706F04",
"B  c #797601",
"V  c #4F4F28",
"C  c #353D47",
"Z  c #324F40",
"A  c #2B5847",
"S  c #335342",
"D  c #355947",
"F  c #375A49",
"G  c #385D4A",
"H  c #35614E",
"J  c #3B634E",
"K  c #3D6652",
"L  c #396954",
"P  c #3D6A55",
"I  c #3D705D",
"U  c #3F7960",
"Y  c #455948",
"T  c #5B5B58",
"R  c #46664D",
"E  c #4A6655",
"W  c #436B55",
"Q  c #426F59",
"!  c #42735D",
"~  c #517252",
"^  c #7C7B44",
"/  c #467962",
"(  c #497D64",
")  c #5E7368",
"_  c #717672",
"`  c #870101",
"'  c #922902",
"]  c #EC0000",
"[  c #FD0000",
"{  c #F80700",
"}  c #F81A00",
"|  c #FA2800",
" . c #FC3700",
".. c #834B01",
"X. c #8A4E00",
"o. c #895209",
"O. c #915200",
"+. c #9E5B01",
"@. c #A75E00",
"#. c #846300",
"$. c #B46600",
"%. c #BC6C01",
"&. c #966320",
"*. c #C26E00",
"=. c #C67100",
"-. c #CB7401",
";. c #D47601",
":. c #D67A00",
">. c #D97C00",
",. c #817F7C",
"<. c #4D856B",
"1. c #4F886E",
"2. c #538C71",
"3. c #539376",
"4. c #569579",
"5. c #59987A",
"6. c #5A9B7D",
"7. c #8A8600",
"8. c #999401",
"9. c #A19D01",
"0. c #AAA501",
"q. c #E38200",
"w. c #EC8600",
"e. c #EF8800",
"r. c #FD8400",
"t. c #F48B01",
"y. c #FB8E00",
"u. c #FE9100",
"i. c #FF9A00",
"p. c #FF9711",
"a. c #D9A400",
"s. c #FFA200",
"d. c #FFAF00",
"f. c #FCBB00",
"g. c #FCA533",
"h. c #CDC703",
"j. c #DAD400",
"k. c #FFC900",
"l. c #E9D800",
"z. c #F7DC00",
"x. c #EDE900",
"c. c #F5EC00",
"v. c #FBED00",
"b. c #FCF400",
"n. c #FFFE00",
"m. c #FBC37A",
"M. c #7F7D86",
"N. c #5C9E81",
"B. c #5EA182",
"V. c #5CBA94",
"C. c #60A485",
"Z. c #63AC8C",
"A. c #7AAB95",
"S. c #66B390",
"D. c #68B592",
"F. c #61BD97",
"G. c #6BBA96",
"H. c #65BF99",
"J. c #6DBE9A",
"K. c #71BD9B",
"L. c #67C09A",
"P. c #6DC29C",
"I. c #66C89F",
"U. c #71C59F",
"Y. c #6DCBA2",
"T. c #72C6A0",
"R. c #7CC5A4",
"E. c #75C9A4",
"W. c #79CAA6",
"Q. c #7BCCA9",
"!. c #7ACDA9",
"~. c #7CCCA9",
"^. c #7DCDAA",
"/. c #77D0A8",
"(. c #7AD3AA",
"). c #7DD9AF",
"_. c #7EDCB1",
"`. c #8D8C8C",
"'. c #97928E",
"]. c #B7B6B6",
"[. c #82CAA9",
"{. c #82CAAA",
"}. c #84CAAA",
"|. c #81CDAA",
" X c #85CFAC",
".X c #83D1AD",
"XX c #85D8B3",
"oX c #99D7BB",
"OX c #86E4B9",
"+X c #F8C888",
"@X c #DDDEDE",
"#X c #E9EBE9",
"$X c #F1EFED",
"%X c #F3F7F5",
"&X c #FDFEFE",
/* pixels */
"R.P.P.J.U.P.P.U.J.P.E.U.J.J.G.P.P.T.J.J.U.J.J.U.K.P.J.P.P.U.K.U.J.J.J.P.J.P.P.J.P.K.T.P.P.J.U.J.U.U.K.P.H.J.J.P.J.U.J.U.J.U.K.P.",
"}.T.T.~.~.E.U.T.U.~.~.[.U.F.L.H.T.T.T.T.T.T.!.E.W.T.T.T.~.~.~.E.F.P.L.T.T.T.T.T.T.(.~.~.T.T.T.E.~.~.W.H.J.H.T.T.T.T.T.T.E.~.E.W.",
"[.U.T.T.T.T.T.T.U.E.T.T.P.P.T.P.T.T.T.T.T.T.T.T.T.U.T.T.T.T.T.T.P.T.T.T.T.T.T.T.U.E.T.T.U.T.T.T.T.T.T.U.U.U.U.T.T.T.T.T.T.T.T.T.",
"[.T.T.T.U.T.T.U.T.U.T.T.T.T.T.T.E.~.~.T.U.T.T.T.T.T.T.T.T.T.T.T.T.T.P.E.!.~.T.T.T.U.T.T.T.T.T.T.T.T.T.U.T.T.T.W.~.T.T.T.T.U.T.T.",
"[.U.T.T.T.E.E.U.T.T.T.T.T.T.T.T.T.T.W.T.T.T.T.T.T.T.T.T.T.T.T.T.T.T.T.E.T.T.T.T.T.T.E.T.T.T.T.T.T.T.T.T.T.T.T.T.T.T.T.T.T.T.T.T.",
"[.U.T.T.T.T.T.T.T.T.T.T.T.T.T.T.U.U.U.T.T.T.T.T.T.T.T.T.T.T.T.T.T.T.T.T.T.T.T.T.T.T.T.T.T.T.T.T.T.T.T.T.T.T.T.U.T.T.T.T.T.T.E.T.",
"[.U.T.T.T.T.U.T.T.T.T.T.T.T.T.T.T.T.T.T.T.T.T.T.T.T.T.T.T.T.T.T.T.T.T.T.T.T.T.T.T.T.T.T.T.T.T.T.T.T.T.T.T.T.T.T.T.T.U.T.T.T.T.T.",
"[.U.T.T.T.T.T.T.T.T.U.T.T.T.T.T.P.V.H.U.T.T.U.U.T.T.T.T.T.T.U.U.T.T.T.P.H.F.P.T.U.T.T.U.U.E.T.T.T.T.U.T.T.T.U.L.F.P.T.T.T.T.T.T.",
"[.T.T.T.U.T.U.T.T.T.T.T.T.T.T.T.P.H.L.U.T.T.T.T.T.T.T.T.T.T.T.T.T.T.T.P.P.P.P.T.T.T.T.P.T.T.T.T.T.T.T.T.T.T.P.P.P.H.T.T.T.T.T.U.",
"[.T.T.T.T.T.T.T.T.T.T.T.T.T.T.E.~.!.T.T.T.T.T.T.T.T.T.T.T.T.T.T.T.T.T.W.W.T.T.T.T.T.T.T.T.T.T.T.T.T.T.T.T.T.~.W.R.E.T.T.T.T.T.T.",
"[.P.P.P.T.T.T.T.T.T.T.T.T.T.T.T.W.W.T.U.P.L.P.U.T.T.T.T.T.T.T.T.T.T.T.W.T.!.T.P.H.P.U.T.T.T.U.U.T.T.T.T.T.T.W.T.E.T.P.H.P.P.T.T.",
"~.L.P.L.T.T.T.P.L.P.P.T.T.T.T.T.U.T.T.U.H.P.L.U.T.T.T.P.H.P.T.T.T.T.T.T.T.U.T.H.H.L.U.T.T.U.P.P.P.T.T.T.T.T.U.T.T.T.P.H.L.P.T.T.",
"[.P.T.T.U.U.T.P.L.F.P.T.T.T.T.T.T.T.T.T.U.U.U.U.T.T.P.H.G.H.T.T.T.T.T.T.T.T.T.T.T.T.U.U.T.U.L.P.L.P.T.T.T.T.T.T.T.T.U.T.T.T.P.T.",
"[.P.T.T.~.W.T.T.T.T.T.T.T.T.T.T.T.T.T.T.U.T.T.[.W.T.T.T.T.T.T.T.T.T.T.T.T.T.T.T.T.T.~.~.T.U.T.T.T.T.T.T.T.T.T.T.T.T.T.U.T.W. XT.",
"}.U.T..X[..XT.T.T.T.T.T.T.T.T.T.T.T.T.T.T.U.[..X}.!.T.T.T.T.T.T.T.T.T.T.T.T.T.T.U.[.~.[.W.U.T.T.T.T.T.T.T.T.U.T.T.T.T.U.W. X X~.",
"[.U.T.T.T.T.T.E.T.T.T.T.T.T.T.T.U.U.U.U.U.U.U.T.T.T.T.T.T.T.T.T.T.T.T.T.T.T.T.T.T.U.T.T.U.U.T.T.T.T.T.T.T.T.T.T.T.U.T.U.U.T.T.T.",
"[.U.T.T.U.T.T.T.T.T.T.T.T.T.T.E.(.E.E./.E././.E.T.T.T.T.T.T.T.T.T.T.T.T.T.U.T.T.T.T.T.T.!.E.T.U.T.T.T.T.T.T.T.T.U.T.T.U.T.T.T.T.",
"[.U.T.U.T.U.T.T.T.T.E.T.T.P.G.K j k k k k k k k G.T.P.T.T.T.T.U.T.P.T.T.T.T.T.T.T.U.E.Z.k Z G.U.T.E.U.T.P.T.T.U.T.T.T.T.P.E.T.U.",
"[.U.T.~.E.~.U.T.T.W.~.!.T.Y.Y.*                 W._.T.T.E.!.!.E.H.P.F.T.T.U.T.T.T.!.OXZ.    T.XX~.~.E.L.L.L.U.U.U.T.T.T.T.~.~.E.",
"[.U.T.T.T.T.T.T.T.T.T.E.G.L H n ..v ..v ..v o.v R L Z.T.T.T.E.T.P.T.P.T.T.T.U.T.E.6.L Y ` u G W S.W.T.P.P.P.U.T.T.T.T.T.E.T.T.T.",
"[.U.T.T.T.T.T.T.T.T.T.(.T.    ;.s.i.i.i.i.i.s.u.    N._.T.U.U.T.T.T.T.T.W.!.E.P.(.P   ; [ [     N._.E.E.T.T.E.!.!.E.T.T.T.T.T.T.",
"[.U.T.T.T.T.T.T.T.E.G.( ( d s :.u.y.y.y.u.t.y.e.z d ~ ( C.~.U.T.T.T.T.T.T.T.T.U.(.!   ; [ ] t r E ( B.E.T.T.T.T.T.E.T.T.T.T.T.T.",
"[.U.E.T.T.T.T.T.T.E.B.  . t.i.u.y.u.u.u.u.u.u.y.u.u.<   P XXU.U.T.T.T.T.U.T.T.U.(.Q   ; [ [ [ [ :   K (.P.T.T.T.U.U.T.T.T.T.T.T.",
"|.U.T.T.T.T.T.T.T./.N.  + w.u.y.u.u.u.u.y.y.u.u.u.y.d $ R S.D.T.T.T.T.T.T.T.T.U.(.Q   ; [ [ [ [ :   W (.U.T.P.G.T.T.T.T.T.T.T.T.",
"[.U.T.Y.U.U.T.T.T./.B.  X e.y.u.u.u.y.u.u.u.u.u.y.y.t.u.z   G /.T.T.T.P.F.F.P.T._.!   - ] [ [ [ ;   P _.P.!.3.! I.P.T.T.T.T.T.U.",
"[.T.T.U.U.T.T.T.U.K.5.X $ e.u.y.y.u.p.t.w.t.u.u.u.u.u.i.c   F /.P.T.T.J.P.P.P.J.T.W   r [ [ [ [ r   W T.G.(.3.! E.J.T.T.T.T.T.T.",
"[.U.T.T.U.T.U.(./   5 w.e.y.u.u.r.m.&X'.  i u.u.u.y.y.i.v   D /.T.T.T.E.T.T.(.K   t { ] [ [ [ [ ] { u   G _.4.( (.T.T.T.T.T.T.T.",
"[.P.P.U.U.U.U.(.Q   < u.u.y.u.u.r.+X&X`.  < t.u.y.u.y.i.x   D (.U.T.T.E.E.E.(.F   y [ [ [ [ [ [ [ [ y   D XX5.! _.P.U.H.L.P.T.T.",
"~.L.U.L.U.(.( 7 b *.-.y.u.y.u.y.i.&.C 0   < t.u.u.u.u.u.>.*.m 9 l T.T.T.T.T.~.G   y [ [ [ { d.f.| [ u   D (.D.D.E.U.P.L.P.P.T.T.",
"}.P.T.U.U.(.G   x s.u.u.u.u.u.y.i.g       < y.u.y.u.u.u.u.s.O.  2 K.T.T.T.K.(.G   y [ [ [ [ v.n. .[ u   D (.U.E.U.U.U.T.T.U.P.T.",
"[.U.U.U.U.XXJ   x u.t.u.u.u.y.y.i.c   X   < y.u.u.u.y.u.y.u.O.  8 P.T.T.T.P.(.G   y [ } r.y.v.v. .[ u   H (.U.U.T.T.U.U.T.T.~.U.",
"[.U.U.(.}.XXG   f s.i.u.y.u.u.y.i.f       > y.u.y.u.u.y.y.i.X.  7 (.(.T.T.T.(.D   y [  .n.n.n.n. .[ u   l (.U.T.T.T.T.U.T.|. X~.",
"[.U.T.T.U.(.2.A V X.+.y.y.u.y.u.i.$.f c g O.y.u.y.u.u.y.u.u.*.f b R ! G.U.U.!.2.A h ` ' b.b.7.7.' ` h A 2.E.U.U.U.U.T.T.U.U.U.E.",
"[.U.T.T.T.T.E.OX/   > u.i.i.u.u.u.u.i.i.i.i.y.u.u.y.u.u.u.y.u.s.:.    P.(.U.U.E.OXI   6 n.x.        I OXE.U.E.E.U.T.T.T.E.U.T.U.",
"[.P.T.T.T.T.U.E.<.8 V $.%.%.%.w.u.t.y.y.y.y.u.u.u.u.u.u.u.u.y.u.:.i p 3.5.G.T.U./.!   5 z.l.$   8 9 ( E.P.T.G.S.E.U.T.T.U.T.T.U.",
"[.T.T.E.!.E.T.T.U.(.C.        =.i.u.u.u.u.u.y.u.y.u.u.u.u.u.u.u.u.u.e.X   6.E.P.(./   < u.e.+   C..XT.L.G.I.3./ (.U.T.U.E.~.~.E.",
"[.U.T.T.T.E.T.T.U.!.B.# o o # %.t.q.e.w.w.t.y.u.u.y.t.q.t.u.u.u.y.u.w.+   C..XK.T.W   i y.e.X   6.(.T.U.U.E.3./ (.P.T.U.U.T.T.T.",
"[.U.T.T.T.T.T.T.U.U.U.G.G.J.G.q . X + +   4 y.y.u.u.p   O.i.y.y.u.y.w.+   ].&X_   z y.e.u.e.X   5.W.U.T.U./.3./ XXT.T.T.T.U.T.T.",
"[.U.T.T.T.T.T.T.T.T.T.T.T.!.T.8           5 u.u.t.t.i   X.i.y.u.u.u.e.+ % ].&X_   x i.y.y.q.@ o 6.~.U.U.U.(.5./ ).E.U.E.T.T.T.T.",
"[.T.T.T.T.T.T.T.T.T.T.T.T.T.T.Z.S.S   M l.j.v.l.4 > $.>.q.u.y.u.u.u.w.+ . 1 8 o.q.q.u.;.> 3 N.Z.U.U.U.U.U.T.P.G.T.U.T.T.T.T.T.E.",
"[.P.T.T.T.T.T.T.T.T.T.T.T.T.T.T._.J   N n.n.n.x.    :.s.i.i.u.u.u.u.w.X       ..s.y.u.-.  o J./.T.T.T.T.T.T.T.T.U.T.T.T.T.T.T.T.",
"[.T.T.T.U.T.T.T.T.T.P.T.T.T.T.P.Y.G   N n.c.b.v.0.8.z d s a @.u.y.u.t.@.+.,   X.i.t.u.-.. # G.T.U.U.U.T.T.T.P.L.F.U.T.T.T.T.T.U.",
"[.U.T.T.P.T.T.T.T.T.T.P.T.T.T.(._.A   N n.n.b.b.n.n.3       s i.y.u.u.u.u.4   X.i.u.s.>.    G.E.U.U.Y.U.T.T.P.L.H.L.T.T.T.U.U.U.",
"[.T.T.T.T.T.T.T.T.T.T.T.T.T.T./ H ) M.^ B 8.b.b.b.b.8.B #.c %.u.y.u.u.u.y.4   ..i.*.c m K L J.E.T.T.T.T.T.T.W.E.T.U.T.T.T.T.T.T.",
"~.P.P.P.T.T.T.T.T.T.T.T.T.E.T.=   `.&X'.  3 n.n.b.b.n.n.k.u.i.u.u.u.u.u.y.4   O.d...  * (.(.T.T.T.T.T.T.T.T.~.T.~.T.U.L.L.P.T.T.",
"~.L.U.P.T.T.T.P.L.T.T.T.T.T.T.L j ) ].T   3 9.0.c.b.b.b.f.t.y.u.y.u.y.u.y.4   a %.n j J U.P.P.P.P.T.T.T.T.T.U.U.U.U.L.L.P.P.T.T.",
"}.P.U.T.U.T.T.H.F.F.L.T.T.T.T.T._.A             c.n.n.n.k.r.u.u.u.u.u.i.u.4       A ).T.T.P.F.P.L.U.T.T.T.T.T.T.U.T.T.T.T.U.T.T.",
"[.U.U.U.~.T.T.T.T.P.T.T.T.T.T.T.~.Q & 2 = = 8 w h.j.j.j.a.;.w.u.t.>.>.>.:.<   & & P ~.T.T.T.T.T.P.T.T.T.T.T.T.T.T.T.U.U.T.T.~.U.",
"[.U.U.|..X.XT.T.T.T.T.T.T.T.T.T.T.U.J.K.J.}.%X#X& . X . X   f i.=.. . . X     K E.E.[..XW.U.T.T.T.T.T.T.T.T.T.T.T.U.T.U.T.}..X}.",
"[.U.U.T.T.T.U.T.T.T.T.T.T.T.T.T.T.T.T.E.E. X&X#X= O     O % x i.-.O O     o   ! (.U.U.T.T.T.T.T.T.T.T.T.T.T.U.T.T.T.T.T.T.T.U.E.",
"[.U.T.U.U.U.T.T.T.T.T.T.T.T.T.T.T.P.T.T.T.T.R.[.#X$Xe   ,.&X+Xr.g.$X@XO   2.P.J.T.T.U.U.T.T.T.T.T.T.T.T.T.T.T.U.U.U.T.T.T.U.U.U.",
"[.U.T.U.T.U.T.T.T.U.T.U.T.T.U.T.T.T.T.T.T.T.P.W.&X&Xe   `.&X+Xr.g.&X%X&   N.(.T.U.U.T.U.T.T.T.U.T.T.T.T.U.T.U.T.T.U.T.T.U.T.T.U.",
"}.U.T.E.~.E.T.T.U.~.!.~.T.L.L.L.T.T.T.T.T.T.E.~.%X&XA.3.Q e w i p C h %   6.(.U.T.E.~.~.T.T.T.E.!.!.E.H.L.L.U.T.T.T.T.T.T.~.~.T.",
"|.U.T.E.T.T.T.E.P.W.T.~.U.L.P.P.T.E.T.P.T.T.T.W.%X&XoX_.D                 5.E.U.U.W.T.T.T.T.T.T.E.E.E.P.U.P.T.U.T.U.T.T.W.T.T.T.",
"[.U.T.U.T.T.T.T.T.U.T.U.T.T.T.T.T.|.!.T.T.T.T.T.oXoX~.T.B.<.1.<.1.1.1.1.2.K.E.T.E.T.T.U.T.T.T.T.T.T.U.T.T.U.T.W.(.T.T.T.T.T.T.T.",
"[.U.T.T.T.T.T.T.T.T.T.T.T.T.T.U.E.E.W.T.T.T.T.T.Y.P.T.T./.(.(.(./.(.(.(.(.~.T.U.T.T.T.T.T.T.T.T.T.T.T.T.T.T.T.T.T.W.T.T.T.T.T.T.",
"[.U.T.T.T.T.T.T.T.T.T.T.U.T.T.T.P.T.T.T.T.T.T.T.E.T.T.T.U.U.U.U.T.P.U.U.P.U.U.T.T.T.T.T.T.T.T.T.T.T.T.T.T.T.T.T.T.U.T.T.T.T.T.T.",
"[.T.T.T.T.T.T.T.T.T.T.T.T.T.T.T.T.T.T.T.T.T.T.T.T.T.T.T.T.T.T.T.T.T.T.T.T.T.T.U.T.T.T.T.T.T.T.T.T.T.U.T.T.T.T.T.T.T.T.T.T.T.T.T.",
"[.U.T.T.U.T.T.T.T.T.T.U.T.T.T.U.T.F.P.P.T.T.T.T.T.T.T.T.T.T.P.T.T.T.T.P.P.H.U.T.T.T.T.T.T.T.T.T.T.T.T.T.T.T.T.P.H.U.U.T.T.U.T.T.",
"[.U.T.T.U.U.T.T.T.T.U.U.T.T.T.T.L.F.F.P.T.T.T.P.U.T.T.T.T.T.T.T.T.T.T.P.H.H.L.T.U.U.Y.T.T.T.T.T.T.P.T.T.T.T.P.L.H.L.T.T.T.T.T.U.",
"[.U.T.T.T.Y.U.T.T.T.U.T.T.E.U.T.E.!.T.T.T.T.T.T.T.T.T.T.T.T.T.T.T.T.T.T.E.T.T.T.T.T.T.T.T.T.T.T.T.T.T.T.T.T.T.E.T.U.U.T.T.U.T.U.",
"~.P.P.U.T.T.U.T.T.T.T.T.T.T.U.E.E.W.T.T.T.P.P.P.T.T.T.T.T.T.T.T.T.T.T.W.E.W.U.U.L.L.P.T.T.T.T.T.T.T.T.T.T.T.W.T.W.U.U.L.P.U.T.T.",
"~.L.P.F.T.T.U.U.P.U.T.T.T.T.T.U.T.T.T.P.F.P.F.T.T.E.T.P.P.T.T.T.T.T.U.U.T.U.U.H.F.F.P.T.T.T.U.P.T.U.T.T.T.T.U.T.T.T.L.F.J.L.T.T.",
"[.P.U.U.T.T.T.L.L.L.P.T.T.T.T.T.T.T.T.T.T.P.T.T.T.T.P.H.H.J.T.T.T.T.U.T.T.T.T.U.T.T.T.T.T.T.H.L.L.T.T.T.T.T.T.T.T.T.T.P.U.U.T.T."
};
