/* XPM */
static char *f617c7fc77ee4a46f4bd30943c1a6f88YbFrHiCQxBmUH52k[] = {
/* columns rows colors chars-per-pixel */
"64 64 194 2 ",
"   c #3C2E2A",
".  c #3E3931",
"X  c #413833",
"o  c #35450F",
"O  c #37480E",
"+  c #3A4A0E",
"@  c #394C14",
"#  c #3C4D15",
"$  c #3D5216",
"%  c #3F5319",
"&  c #3B561A",
"*  c #3D4424",
"=  c #3E5923",
"-  c #3F602D",
";  c #40551B",
":  c #425B1D",
">  c #485A19",
",  c #50621E",
"<  c #435C24",
"1  c #455929",
"2  c #444635",
"3  c #525837",
"4  c #446423",
"5  c #4B6423",
"6  c #466A26",
"7  c #45642C",
"8  c #476D28",
"9  c #496E29",
"0  c #536826",
"q  c #526B2A",
"w  c #46742B",
"e  c #4A742C",
"r  c #447C2E",
"t  c #4C7A2F",
"y  c #52722C",
"u  c #58732C",
"i  c #4B6432",
"p  c #476936",
"a  c #496C31",
"s  c #477F30",
"d  c #4C7D31",
"f  c #4B723D",
"g  c #587735",
"h  c #5C7C35",
"j  c #454E42",
"k  c #564B48",
"l  c #515C51",
"z  c #635B56",
"x  c #645956",
"c  c #695F5C",
"v  c #4D7543",
"b  c #4F7C42",
"n  c #517C49",
"m  c #4D6352",
"M  c #526B58",
"N  c #6C5F61",
"B  c #4D7660",
"V  c #6E6362",
"C  c #716366",
"Z  c #726269",
"A  c #4C822F",
"S  c #4D8334",
"D  c #4A853A",
"F  c #4F8839",
"G  c #518636",
"H  c #528937",
"J  c #538738",
"K  c #5E8439",
"L  c #528A3A",
"P  c #5A8D3D",
"I  c #55903D",
"U  c #5B913F",
"Y  c #678836",
"T  c #64873C",
"R  c #678A3E",
"E  c #4E8D45",
"W  c #578C43",
"Q  c #53824E",
"!  c #529044",
"~  c #5D9441",
"^  c #548452",
"/  c #568858",
"(  c #598C5C",
")  c #5D935B",
"_  c #6B8D40",
"`  c #688A4B",
"'  c #619643",
"]  c #6D9445",
"[  c #649A46",
"{  c #669D48",
"}  c #689E49",
"|  c #62985B",
" . c #6DA34C",
".. c #71A64F",
"X. c #79A24F",
"o. c #6CA450",
"O. c #71A650",
"+. c #7AA551",
"@. c #75AA52",
"#. c #7AAD55",
"$. c #79AA5A",
"%. c #7BB057",
"&. c #7EB459",
"*. c #598E61",
"=. c #5C9364",
"-. c #599E61",
";. c #5C9669",
":. c #5E9A6C",
">. c #5C8E73",
",. c #5F9875",
"<. c #619976",
"1. c #5DA268",
"2. c #5EA978",
"3. c #62A365",
"4. c #77A961",
"5. c #62A276",
"6. c #63AB73",
"7. c #63A57A",
"8. c #65AC7C",
"9. c #69AE7E",
"0. c #71AE76",
"q. c #66B17C",
"w. c #7BBC78",
"e. c #819F54",
"r. c #85A355",
"t. c #87A658",
"y. c #80AD58",
"u. c #82B55B",
"i. c #83B95D",
"p. c #88B85E",
"a. c #8BAD63",
"s. c #85B762",
"d. c #87BC60",
"f. c #8ABD62",
"g. c #93B864",
"h. c #8DC364",
"j. c #91C567",
"k. c #93C66A",
"l. c #98C76E",
"z. c #95CA6A",
"x. c #99CD6D",
"c. c #9CD06F",
"v. c #9DCC71",
"b. c #9DD271",
"n. c #A2CC73",
"m. c #AACF78",
"M. c #A3D475",
"N. c #A6D778",
"B. c #AAD57A",
"V. c #A7D978",
"C. c #ABDA7C",
"Z. c #B0DF7F",
"A. c #5CBA94",
"S. c #66AC83",
"D. c #69AF8E",
"F. c #67B586",
"G. c #69B583",
"H. c #69B38B",
"J. c #6BB98E",
"K. c #62BD97",
"L. c #6DBB93",
"P. c #65BF99",
"I. c #6DBF99",
"U. c #71BF98",
"Y. c #79C58D",
"T. c #6FC096",
"R. c #67C09A",
"E. c #6DC29C",
"W. c #71C59F",
"Q. c #68C6A1",
"!. c #6CC5A1",
"~. c #72C6A0",
"^. c #7EC6A6",
"/. c #75C9A4",
"(. c #79CAA6",
"). c #75CDA9",
"_. c #7CCCA9",
"`. c #77D0AC",
"'. c #79D1AD",
"]. c #7AD4B1",
"[. c #83CB8A",
"{. c #B1DE81",
"}. c #B5E283",
"|. c #B9E587",
" X c #BCE789",
".X c #BEE98B",
"XX c #82CBA9",
"oX c #86D0AD",
"OX c #C2EC8D",
"+X c #C5EF90",
"@X c #C6F091",
"#X c #CAF394",
"$X c #CDF898",
"%X c #D2FD9C",
/* pixels */
"^.E.E.U.W.W.U.E.U.I./.U.W.I.P.U.W.I.I.W.I.I.I.W.I.I.I.E.I.~.D.;.;.2.R.E.W.E.W.I.E.E.W.W.T.E.W.U.W.~.I.I.I.I.I.E.I.U.I.I.E.~.W.I.",
"XXW.~._.(.(.W.~.~._._._.!.K.P.P.~.~.~.~.~.~._./._.~./.~.).oX<.+ O p R.W.W.W.~.W.W._._._./.W.W./._._._.E.R.P.~.~.~.~.~.~./._.(./.",
"XXE.~././.W./.W.~./.~.~.~.P.~.~.~.~.W.W.~.~.~.~.~.~.~.~.W.v ` B.m.a.v L./.~.W.~.W.(.W./.W.W.~.W.~.~.~.E.W.E.W.~./.~.~.~.~.~.~.~.",
"XX~.~.W.W.W.W.W.~.~.~.~.~.~.~.~./._._./.~.~.~.~.~.~.~.~.W.7 _ %X%Xn.< U._._.~.W./.W.W.W.W.~./.W.~.~.!.~.~.W./.(._./.~.~.~.~.~.~.",
"XX~.W./.W./.W./.~.~.~.~.~.~.~.~./.~./.~.~.~.~.~.~.~.!././.E @.@X#Xb.F W./.~.W.W././.W.W.W./.W./.~.~.~.~.~.~.~.~.~.~.~.~.~.~.~.~.",
"XXE./.W.W.W.W.W.~.~.~.~.~.~.~.~.W.W.W.W.~.~.~.~.~.~.`.7.f O.x.@X@X}.%.f :.)./.~.W.W.W././.W.W.W.~.~.~.~.~.~.~.~.~.~.~.~.~.~.~.~.",
"XXE././.W.W.W./.~.~.~.~.~.~.~.~./.W.W.W.~.~.~./.E.F.L.( $ f.Z.@X@X|.h.; Q J.F.L.W.W./.W.W.W.W./.~.~.~.~.~.~.~.~.~.~.~.~.~.~.~.~.",
"XX~./.W.W././.W.~.~.~.~.~.~.~.~.E.A.R.E./.W.W.E.G.~ U ~ L }.#XOX@X|.d.U U U P 3.W.T.W.W.W./.W./.~.~.W.~.~.~.W.P.K.E.~.~.~.~.~.~.",
"XXE.~.~.W.~.~.~.~.~.~.!.~.~.~.~.E.R.R.W./.G.L F o..XOXV.h..X@X+X@X|.h.h.N.OXOXl.F L 8./.W./.W.W.~.~.~.~.~.~.W.E.P.E.~.~.~.~.~.!.",
"XX~.~./.~.~.~.~.~.~.~.~.~.~.~./._.(./.W./.q.D [ &.C.OX}.h..X@X+X#X}.j.j.M.C.Z.k. .L 6.).W.~.W./.~.~.~.~.~.~._.(././.~.~.~.~.~.~.",
"XXE.E.E.W.~.~.~.~.~.~.~.~.~.~././.(./.E.~.2.H d.x.h.}.}.h..X@X+X@X|.h.k.j.j.j.j.x.~ 6./.W.W.W.W.~.~.~.~.~.~.(.~.(.~.U.P.P.!.~.~.",
"_.R.E.R.~.~.~.E.P.I.~.~.~.~.~.~.W./././.Q.2.S v.@X.XM.M..X.X@X@X#X}.j..XN.j.h.M..X~ 1.)././.W.W.E.W.~.~.~.~.W.W.~.~.E.P.E.I.~.~.",
"XXE.~.~.W.W.~.E.P.P.P.~.~.~.~.~.~.F.q.q.Y.w.#.M.}.}.V.Z.$XOX@XOX+X|.V.+X}.M.N.V.}.s.w.Y.q.8.2.R.P.W.~.~.W.~.~.~.W.~.W.W.~.~.!.~.",
"XXE.~./._.^.~.~./.~.~.~.~.~.~.W./.1.A L i.B.#Xb.h.h.}.$XOX@X@X@X+X+X@X+X+X+X#XZ.h..XC.h.L S L T.~.~.~.~.~.~./.~.~.~.~.W./.^.XX~.",
"XXW.~.XXXXoX~.~.~.~.~.~.~.~.~.~.].-.S &.{ ' { i.c.}..XOX@XOX@XOX@X+X+X+X@X+Xc.V..X@.' ' u.[ A /.).~.~.~.~.~.~.W.~.~.~.W./.oXXX_.",
"XX~.~.~.~.~.~.~./.~.~.~.~.~.~.L./ 4.k.{.~ H  .x.}.@X@X+X@X+X@X@X+X+X+X@X|.V.C.C.C.&.P F Z.M.d./ 7./.W.~.~.~.~.~.~.~./.W.W.~.~./.",
"XXW.~.~.W.~.~.~.W.~.W.W.~.W./.H.O g.%X.X{ { b.|.@XOXOX@X@X@X@X@X+X+X@X@XC.h.OX}.h.b...P OX#XOX> ^ ).~.~.~.~.~.~.W.~.~.~.~.~.~.~.",
"XXW.~.W.~.~.~.~.W.W._.W.W.W.!./.!.) S F s.M..X$XOXj.}.@XOX@XOX@X@X+X+X+X@X+Xk.V.$XOXN.f.H D G L.).).W.~.E.~.!.~.W.~.~.W.W.~.~.W.",
"XXW.~./.(.(.W.~.W._._._.W.R.:.=.[.h.s.s.@.f.#Xx.h.V.|.+X@X@X@X@X+X+X@X@X|.C.C.v.d.OXl...d.s.s.[.0.<./.I.E.P.E.~.~.~.~.~.~._.(./.",
"XXW.~./.~.~.~.~.W./.~./.W.!.v > j.}.%X#X'  .@X[ [ #X@X+X@X.XOX@X+X+X.X@XC.h.@Xx.r Z.u.S +X$X@XM.Y p /.E.E.E.~.~.~.~.~.~././.~.~.",
"XXW.W.W.~.~.~./.W.W./.W.W./.f , $X$X}.G u.&.W n.+X+X@X@X@X' #.#X$XM.~ OXC.j..X#XOX] O.k.A d.$X%Xr.- /.~.~.~./.(._./.~.~.~.~.~.~.",
"XXW././.~.~.~.~.W./.W./.W./.<.) f.M.B.&.V.h.s C.#XZ.Z.|.$X..p.#X@XV. .OX|.V.Z.V.k.O.&.l.y.k.C.k.$.;.~.~.~.~.~.~.~.~.~.~.~.~.~.~.",
"XXE./.W.~./.~.W.W.W./.W.~.~.J.9.~ s.M.$X+Xv.~ l.M.u.&.k..XM.C.@X@X|.M.OXOX}.d. .A d.x.j.$X|.k.[ 3.L.E.~.~.~.~.W.~.~.~.~.~.~.~.~.",
"XXW.~.~.W.W.W././.W.W.W./.`.n 0 @X+X@XOXb.k.k.' S S S } x.|.+X+X@XOXOX$XZ.h.I D G u.x.x.OXOXOX%Xr.p ).~.~.~.~.~.W.~.~.~.~.~.~.~.",
"XXW.W./.W.W.W.W.W.W./.5.n Q = 0 $X+XOXB.O.@.j.l.l.l.s...{ |.OXN.N.{.OXu.O.{ @.#.@.h.%. .M.}.OX%Xt.& Q n ( W.E.P.K.E.~.~.~.~.~.E.",
"XXW.W.W.W./.W././.W./.( $ > : g {.|.}.p.'  .x. X#X#XZ.&.D B.V.i.p.x.C.I G ~ h.v.x.x.O.U &.M.OX Xe.: > # 7 I.W.E.E.E.~.~.~.~.~.~.",
"XXW./.W.W.W.W./.W.W.)./ 5 k.j.u.; +.j.; m.OXOXOXOXOXM.h.h.[ L H H H ~ h.j.h.h.b.@Xl.C. X$ R b.< T k.k.u 7 U././.~.~.~.~.~.~.~.~.",
"XXE.E.E.W./.W.W.W.E./.S.)  .h.p.@ K @.e.|.#XOX@X@X+XM.x.{.U P @.O.{ L j.k.k.C.C.C.C.C.C.r.+. .# T k.O.| :.W.(.~./.~.~.P.E.E.~.~.",
"XXR.W.R.W./.W.W.R.E.~.~.F.S %.u.$ 6 ~ $XOXOX@XOXOX@XM.N.$X[ } c.c.s.P j.k.z..X}.h..XC.h.%Xh.r $ _ d.S q.W.W.W.~./.W.R.R.E.E./.~.",
"XXE.W.W.W.W./.R.R.R.!.*.y z. .H S 4 q @X{ @.@X#XOXz.{.OXOX X X.X.X.X}.h.C.+Xx.V.@Xv.V.OX%Xt.O S S { z.g p W.~.~.W.W.W.W.~.E.E.~.",
"XXW.W.W.(.W.W.W./.W./.1.d { H G d.U e o.v.{.$Xs.#.}.OX@XOXM.C.@X@X|.b.|.V.b.}.x.} B.#X+X@.P w &. .S { D W E./.W.W./.W.W.W./._.W.",
"XXE./._.oXXXW./.W.W./.3.d D U  .x.@.~ S l.{.B.' ' @XOX+X@Xn.V.@X@X|.b.@X}.x.@Xl.s l.{.M.G L  .j.&.I G t W W.W./.W.W.W.W./.XXoX_.",
"XXW./.W.W./.W././.E.`.( & S &.x.j.z.j.D A S S S  .$X+X@X#X#X+X+X@XOX@X#X#X@X$Xv.S S A S A @.c.h.z.u.S 4 a W./.W.~.~.~.~.W.~.~.~.",
"XXW.W.W.W.W.W.W./.L.Q 1 6 u.h.j.x.@.~ &.%.&.&.I P  .{.{. .}.#X@XOX$X.XO.v.@Xu.[ D @.&.&.&.o.[ j.z.h.u.y % f 5.~.W.W.~.~.~.~.~.~.",
"XXW.W.W./.W.W./.W.J.4 : h f.h.h.d. .~ z.z.z.x.[ S r f.g.S }.+X|.|.OX|.L y.m.H S L h.c.z.c.%.I u.h.j.h.T 4 ; ;./.W.~.~.~.W.~.~.~.",
"XXW./././._.W.W.W.W.! %.h.A u.h.A %.c.h.z.z.z.~ S I & h b..X}.h.h.M.OXM._ o G H G &.z.z.j.j.j.D ..d.A &.j.L 6./.W.~.~.W.~._.(./.",
"XXW.W./.W./.W.W.W.L.e K ' < U  .A @.c.z. ...z.&. .S r G [ c.M.j.k.c.M. .J e S ~ @.z.@.~ k.z.j.H U [ 4 P [ 4 :./.~.W.~.~.~.~.~.~.",
"XXW.W.W./.W.W././.J.< 4 d # 4 t S @.z.%.[ @.j.z.h. .P P  .@.%.%.%.%.@.{ ~ L [ %.z.z.@. .@.d.j.P A 6 # e d # ;._.(./.~.~.~.~.~.~.",
"XXW./././.W.W././.H.< 8 S $ # : S %.h.S i.x.j.h.h.c.[ [ c.U S G G S P k.O.F h.k.h.z.z.z.S  .l.I 8 # $ t G # =.).~.(.~.~.~.~.~.~.",
"XXW.W.W.W.W./.W.W.W.H.^ $ X...w & D { h.k.c.j.x.h.~ O.f.z.I ~ i.i.@.L h.h.&.[ O.z.z.z.z.h.@.~ 4 6 L u.y 7 9.L.W.W.~.~.~.~.~./.~.",
"XXW.W.~.W.W.W.W./.E.F.( q u.@.S $ 8 G +.+.y.j.p.@.S %.x.z.' [ z.x.&.I h.x.j.L ' u.j.u.+.u._ w $ 8 ~ h.T g 8.L.!.W.~.~.~.~.~.~.~.",
"XXW./.W.W./.W././.J.& R b.P S S $ $ # @ # : j.[ S A %.j.x. .[ c.x.&.H j.k.h.I S S j.R O @ # # # 8 G S s.f.$ *.Q.K.W.~.~.~.~.~.W.",
"XXW.~.W.W./.W././.L.1 y  .L G G e t e d 4 $ h G U &.f.h.[ ..@.U U  .%.[ %.j.i. .D K 5 $ t t t e S G F ~ ~ # *.Q.K.I.~.~.~.W.W.W.",
"XXW.W./.W.W.W.W./.L.= 4 S G G S L L L I 6 # # 6 U x.x.f.S %.d.I I  .j.G  .x.x.#.t & # & H L H L S S H F d # =._.~.W.~.~.~.~.~.~.",
"XXE.E.E.W./.W.W./.J.7 9 L G e : H G G L 6 $ < # q f.h.i.D  .k.k.j.j.p.D  .h.j.] $ : ; : S G D H 8 : G F G ; ;._.(.~.W.P.I.!.~.~.",
"_.R.E.E./.W.W.W.R.I.~./ + $ 4 H I 4 $ H G G G : # ; ; ; ; # K b.b.y.$ : ; ; ; $ # t F G L 8 # H L t & + 7 L.W.W.W.~.E.P.R.E.~.~.",
"XXW.W.~.W.~./.L.K.P.!.8.^ < 4 H 9 8 9 D F H H e 8 6 8 4 ; # 5 ] ] h @ $ > 8 6 8 6 G H H H d 7 9 d d ; f ;.W./.W.~.W.~.~.W.W.W.~.",
"XXW.~.W.(.~.~.~.~.~.E./.~.i 4 S @ e ! H G L H H L L L S ; ; # @ $ $ % $ 8 L L L L G H H H L H # 6 S ; 5.'.W.W./.~.~.W.W.W./._.W.",
"XXW.~.XXXXoXW.W.W./.W./.U.5 + $ # e L L F G L 4 < F H G G S d G d G d G G G G e % d L H H H D : ; ; + ;./.~.~.W.~.~.~.W./.XXoX_.",
"XXE.W./././.W././.W.W./.W./ n n # e L L L G y 4 8 F L D e d L L L L H e d L L d 4 e S F H H G $ 7 ^ n S./.~.~.~.W.~.~.~.W.W.W./.",
"XXE.~.W.W.W.W./.W.~.W.W.~./.).J.$ t L F L S $ d L G H G $ 8 H H G L S # 8 L G G H : 8 L H L H # ( './.W.~.W.~.W.W.W.~.~.W.W.W.W.",
"XXW.~.W.W.W.W.W.W.W./.W.~.W.E.U.F.b $ % e L ; d L G 8 : $ e L G G L G ; ; 4 G L L : e L : % : 5.J./.W.W.W.~.~.W.~.~.~.~.W.W./.W.",
"XXW.W.(.(./.W./.~._._._.~.P.P.R.).7./ =.b 4 $ 4 e L 4 $ ; : t H L G 7 ; $ ; S d 8 $ : e / ( ( (._._./.I.I.P.W.~./.W./.W./._.(./.",
"XXW././.~./.W.W.W./.~.(.E.E.E.E.E.)./.].( $ < < 4 H 4 $ ; # 4 H L e # ; $ : G e < < < < W.`._.~./././.W.E.E.W.W.W.W.W.W././.~.W.",
"XX/.W.W.W.W.~./.~.W.~.W.~.~.~.~.~.XX/.W.T.L.L.L.7.$ * . $ @ 4 I L t $ $ * . # n I.L.L.L.W.W.W.W.W.W.W.~.~.W././.XX~.W./.W.W.W.~.",
"XXE./.W.~./.~.~.~.~.~./.~.~.~.~././.(.~./././.).H.a 2 . 3 3 i 9 e 8 3 3 2 . 1 ( /.~./.~./.W./.W.~./.~.~./.W.W././.(.W.W././.W./.",
"XXW./.~.W./.W.W.~.~.~.~.W.~.~.~.W.W.W.~.~.~.~.~.W./.M X c C z # # 1 C C k 2 D.~.W.W.W.W./.W./.W.W./.W.W.~.~.~.W.W.W.~.~.~.~.~.~.",
"XXE.~.W.W.~.~./.~.~.~.~.~.~.~.~.~.~.~.~.~.~.~.W.~.).m   V V z z z c V Z k . D./.W././.W.W./.W.W.~.W.~./.~.~.~.~.W.W.W./.~.~.~.~.",
"XXW.W.~.W.~.~.~.~.~.~.W.~.~.~.W.!.K.E.E.~.~.~.~.W.~.,.M k z N Z C V c k l B L.~./.W./.W.W.W.W./.~.~./.W.~./.!.E.I.W.W.~.~.~.~.W.",
"XXW./.~.W.W.W.~.~.~.W.W.~.~.~.~.R.K.K.E.~.~.~.W.W.~.`.E.j k x x x x z 2 >.Q.E.~.W.W.W.W.W././.W.W.W.E.~.~.~.E.I.P.R.~.~.~.~.~.W.",
"XXW.~.~.~.~.W./.~.~.~.~.~.~.~.~.(.(.W.~.~.~.~.~.~.~.W.W.W.j         2 L.~.~.~.~.W./.W.W.~.~.~.~.~.~.~.~.~.~././.~.~.~.~.~.~.W.~.",
"_.E.E.W.~.~.~.~.~.W.!.~.~.~.~././._./.W.E.E.E.~.~.~.~.~.~.<.>.>.>.>.<.~././.W.!.R.E.E./.~.~.~.~.~.~.W./.~.~.(.~.(.~.E.P.R.W.~.~.",
"_.P.E.K.~.~.~.~.E.W.~.~.~.~.~.W.W.~.~.W.P.E.P.E.~.~.~.W.U.).).).).)./.~.W.~.~.P.K.K.E.W./.E.W.W.W.W.~.W.~.~.W.W.~.~.I.K.P.R.~.~.",
"XXE.W.W.~.~.~.R.P.P.E.~.~.~.~.~.~.~.~.~.E.!.~.~.~.~.E.P.P.K.~.~.~.~.W.~.~.~.~.E.E.W./././.E.K.E.P.W./.~.~.~.~.~.~.~.W.W.W.W.~.~."
};
